<svg xmlns="http://www.w3.org/2000/svg" id="Layer_1" data-name="Layer 1" viewBox="0 0 56.07 57">
    <defs>
        <style>
            .cls-1{fill:#fff}
        </style>
    </defs>
    <path d="M54.9 28.6a1 1 0 0 0-.9-.6H42v-8a5 5 0 0 0-5-5H27a5 5 0 0 0-5 5v8H10a1 1 0 0 0-.9.6l-5 10a1.17 1.17 0 0 0 0 1c.1.3.6.4.9.4h4v15a5 5 0 0 0 5 5h36a5 5 0 0 0 5-5V40h4a1.19 1.19 0 0 0 .9-.5.91.91 0 0 0 0-1zM24 20a3 3 0 0 1 3-3h10a3 3 0 0 1 3 3v8h-4a5.14 5.14 0 0 0 1-3 .94.94 0 0 0-1-1h-8a.94.94 0 0 0-1 1 5.14 5.14 0 0 0 1 3h-4zm5.2 6h5.7a2.91 2.91 0 0 1-2.8 2 3 3 0 0 1-2.9-2zm-18.6 4h29.8l-4 8H6.6zm.4 25V40h26a1 1 0 0 0 .9-.6l3.1-6.2V58H31V47a1.19 1.19 0 0 0-.5-.9.91.91 0 0 0-1 0l-1.5.8-1.6-.8a1.39 1.39 0 0 0-.9 0l-1.5.8-1.6-.8a1.17 1.17 0 0 0-1 0 1.49 1.49 0 0 0-.4.9v11h-7a3 3 0 0 1-3-3zm12 3v-9.4l.6.3a1.39 1.39 0 0 0 .9 0l1.6-.8 1.6.8a1.39 1.39 0 0 0 .9 0l.6-.3V58zm30-3a3 3 0 0 1-3 3h-7V33.2l3.1 6.2a1.15 1.15 0 0 0 .9.6h6zm-5.4-17l-4-8h9.8l4 8z" class="cls-1" transform="translate(-3.98 -3)"/>
    <circle cx="25.02" cy="18" r="1" class="cls-1"/>
    <circle cx="31.02" cy="18" r="1" class="cls-1"/>
    <path d="M12 26h2A10 10 0 0 0 4 16v2a8 8 0 0 1 8 8zM16 17h2A13 13 0 0 0 5 4v2a11 11 0 0 1 11 11zM27 13h2a9 9 0 0 0-9-9v2a7 7 0 0 1 7 7zM50 26h2a8 8 0 0 1 8-8v-2a10 10 0 0 0-10 10zM59 6V4a13 13 0 0 0-13 13h2A11 11 0 0 1 59 6zM44 6V4a9 9 0 0 0-9 9h2a7 7 0 0 1 7-7z" class="cls-1" transform="translate(-3.98 -3)"/>
    <path d="M12.02 16h2v2h-2zM12.02 20h2v2h-2zM42.02 16h2v2h-2zM42.02 20h2v2h-2zM12.02 1h2v2h-2zM42.02 1h2v2h-2zM27.02 8h2v2h-2zM27.02 4h2v2h-2zM27.02 0h2v2h-2zM17.02 8h2v2h-2zM37.02 8h2v2h-2z" class="cls-1"/>
</svg>
