<?xml version="1.0" encoding="utf-8"?>
<!-- Generator: Adobe Illustrator 21.1.0, SVG Export Plug-In . SVG Version: 6.00 Build 0)  -->
<svg version="1.1" id="Layer_1" xmlns="http://www.w3.org/2000/svg" xmlns:xlink="http://www.w3.org/1999/xlink" x="0px" y="0px"
	 viewBox="0 0 100 102.8" style="enable-background:new 0 0 100 102.8;" xml:space="preserve">
<style type="text/css">
	.st0{fill:#2C92B3;}
</style>
<path class="st0" d="M50,98.6c-26.6,0-48.3-21.7-48.3-48.3S23.4,1.9,50,1.9s48.3,21.7,48.3,48.3S76.6,98.6,50,98.6z M50,7.9
	c-23.3,0-42.3,19-42.3,42.3s19,42.3,42.3,42.3s42.3-19,42.3-42.3S73.4,7.9,50,7.9z"/>
<path class="st0" d="M50,62.3c-1.5,0-2.7-1.2-2.7-2.7V25.3c0-1.5,1.2-2.7,2.7-2.7s2.7,1.2,2.7,2.7v34.4C52.7,61.1,51.5,62.3,50,62.3
	z"/>
<circle class="st0" cx="50" cy="72" r="3.2"/>
</svg>
