<?xml version="1.0" encoding="utf-8"?>
<!-- Generator: Adobe Illustrator 21.1.0, SVG Export Plug-In . SVG Version: 6.00 Build 0)  -->
<svg version="1.1" id="Layer_1" xmlns="http://www.w3.org/2000/svg" xmlns:xlink="http://www.w3.org/1999/xlink" x="0px" y="0px"
	 viewBox="0 0 300 150" style="enable-background:new 0 0 300 150;" xml:space="preserve">
<style type="text/css">
	.st0{fill:url(#SVGID_1_);}
	.st1{fill:url(#SVGID_2_);}
	.st2{fill:url(#SVGID_3_);}
	.st3{fill:url(#SVGID_4_);}
	.st4{fill:url(#SVGID_5_);}
	.st5{fill:#FFFFFF;}
</style>
<g id="Icon">
	<linearGradient id="SVGID_1_" gradientUnits="userSpaceOnUse" x1="53.5462" y1="58.6079" x2="47.7226" y2="80.7376">
		<stop  offset="0" style="stop-color:#F89A1C"/>
		<stop  offset="1" style="stop-color:#F05C22"/>
	</linearGradient>
	<path class="st0" d="M67.4,56c2.4-4,6.6-6.3,10.9-6.4c-0.1,0-0.1,0-0.2,0H43.6c-7.2,0-13,5.8-13,13c0,7.2,5.8,13,13,13h12.3
		L67.4,56z"/>
	<g>
		<linearGradient id="SVGID_2_" gradientUnits="userSpaceOnUse" x1="76.8491" y1="81.2425" x2="56.1751" y2="63.7714">
			<stop  offset="0" style="stop-color:#37B455"/>
			<stop  offset="1" style="stop-color:#20773D"/>
		</linearGradient>
		<path class="st1" d="M85.1,51.4C79,47.8,71,49.8,67.4,56l-6.3,10.7l11.2,19c3.6,6.2,1.6,14.2-4.6,17.8c-1.9,1.1-4,1.7-6.1,1.8
			c4.3-0.1,8.5-2.4,10.9-6.4l17.5-29.8C93.4,63,91.3,55,85.1,51.4z"/>
		<linearGradient id="SVGID_3_" gradientUnits="userSpaceOnUse" x1="58.3063" y1="103.3194" x2="38.0471" y2="86.1989">
			<stop  offset="0" style="stop-color:#16ADC1"/>
			<stop  offset="1" style="stop-color:#198CAC"/>
		</linearGradient>
		<path class="st2" d="M60.7,105.4L60.7,105.4L60.7,105.4z"/>
	</g>
	<g>
		<linearGradient id="SVGID_4_" gradientUnits="userSpaceOnUse" x1="54.1468" y1="87.7032" x2="79.7709" y2="88.868">
			<stop  offset="0" style="stop-color:#FFE000"/>
			<stop  offset="1" style="stop-color:#DABA00"/>
		</linearGradient>
		<path class="st3" d="M66.2,75.6H43.6c-4.7,0-8.8-2.5-11.1-6.2l17.3,29.6c3.6,6.2,11.6,8.3,17.8,4.6c6.2-3.6,8.3-11.6,4.6-17.8
			L66.2,75.6z"/>
		<linearGradient id="SVGID_5_" gradientUnits="userSpaceOnUse" x1="55.0392" y1="70.1825" x2="80.7607" y2="71.3517">
			<stop  offset="0" style="stop-color:#0E8DCD"/>
			<stop  offset="1" style="stop-color:#2A6AB3"/>
		</linearGradient>
		<path class="st4" d="M32.4,69.1C32.4,69.1,32.4,69.1,32.4,69.1L32.4,69.1C32.4,69.2,32.4,69.1,32.4,69.1z"/>
	</g>
</g>
<g>
	<g>
		<path class="st5" d="M102.4,76c0-1.1,0.6-1.8,1.8-1.8h1.8c1.2,0,1.8,0.6,1.8,1.8v7.9c0,1.1-0.1,1.8-0.1,1.8h0.1
			c0,0,1.9-3.5,6.6-3.5c5.7,0,9.6,4.6,9.6,11.3c0,6.9-4.3,11.4-9.9,11.4c-4.9,0-6.6-3.7-6.6-3.7h-0.1c0,0,0.1,0.3,0.1,0.9v0.7
			c0,0.9-0.6,1.5-1.8,1.5h-1.4c-1.1,0-1.8-0.6-1.8-1.8V76z M113,100.4c3,0,5.5-2.4,5.5-6.7c0-4.1-2.2-6.8-5.4-6.8
			c-2.8,0-5.5,2.1-5.5,6.7C107.7,97.1,109.5,100.4,113,100.4z"/>
	</g>
	<g>
		<path class="st5" d="M127.8,84.5c0-1.1,0.6-1.8,1.8-1.8h1.8c1.2,0,1.8,0.6,1.8,1.8v11c0,2.6,0.7,4.4,3.4,4.4
			c3.9,0,6.1-3.4,6.1-7.3v-8.2c0-1.1,0.6-1.8,1.8-1.8h1.8c1.1,0,1.8,0.6,1.8,1.8v18.1c0,1.2-0.6,1.8-1.8,1.8h-1.7
			c-1.1,0-1.7-0.6-1.7-1.8v-1.3c0-0.5,0.1-1,0.1-1h-0.1c-1,2.2-3.8,4.5-7.5,4.5c-4.6,0-7.5-2.3-7.5-8.2V84.5z"/>
	</g>
	<g>
		<path class="st5" d="M152.4,100.3l0.5-0.8c0.6-0.9,1.4-1,2.4-0.4c1,0.6,2.6,1.5,4.8,1.5c1.9,0,3-0.9,3-2.2
			c0-3.5-10.8-2.2-10.8-9.6c0-4.2,3.7-6.5,8.3-6.5c2.9,0,4.9,0.9,6,1.6c1,0.5,1.1,1.4,0.6,2.4l-0.4,0.8c-0.5,1-1.3,1.1-2.4,0.7
			c-0.9-0.4-2.3-1.1-4.1-1.1c-1.9,0-2.9,0.8-2.9,2.1c0,3.6,10.8,2.2,10.8,9.6c0,3.8-3.2,6.7-8.2,6.7c-3.5,0-5.9-1.3-7.2-2.2
			C151.8,102.2,151.7,101.2,152.4,100.3z"/>
	</g>
	<g>
		<path class="st5" d="M172.3,77.3V76c0-1.1,0.6-1.8,1.7-1.8h1.9c1.1,0,1.8,0.6,1.8,1.8v1.3c0,1.1-0.6,1.7-1.8,1.7H174
			C172.9,79.1,172.3,78.5,172.3,77.3z M172.3,84.5c0-1.1,0.6-1.8,1.7-1.8h1.9c1.1,0,1.7,0.6,1.7,1.8v18.1c0,1.2-0.6,1.8-1.7,1.8H174
			c-1.1,0-1.7-0.6-1.7-1.8V84.5z"/>
	</g>
	<g>
		<path class="st5" d="M183,84.5c0-1.1,0.6-1.8,1.7-1.8h1.7c1.1,0,1.7,0.6,1.7,1.8v1.3c0,0.5-0.1,1-0.1,1h0.1
			c0.9-1.8,3.3-4.6,7.7-4.6c4.8,0,7.6,2.5,7.6,8.2v12.2c0,1.2-0.6,1.8-1.8,1.8h-1.8c-1.1,0-1.8-0.6-1.8-1.8v-11
			c0-2.6-0.7-4.4-3.4-4.4c-3.8,0-6.2,3.2-6.2,7.1v8.4c0,1.2-0.6,1.8-1.7,1.8h-1.9c-1.1,0-1.7-0.6-1.7-1.8V84.5z"/>
	</g>
	<g>
		<path class="st5" d="M218.2,82.2c6.2,0,9.6,4.4,9.6,10.3c0,0.9-0.8,1.8-1.9,1.8h-13.2c0.3,3.9,3.2,6,6.5,6c2,0,3.7-0.8,4.7-1.4
			c1.1-0.5,1.8-0.4,2.4,0.6l0.5,0.8c0.5,1,0.3,1.8-0.6,2.4c-1.4,0.9-4,2.2-7.4,2.2c-7.2,0-11.6-5.2-11.6-11.3
			C207.1,86.9,211.7,82.2,218.2,82.2z M222.4,91.1c-0.1-3-1.9-4.8-4.4-4.8c-2.8,0-4.7,1.9-5.2,4.8H222.4z"/>
	</g>
	<g>
		<path class="st5" d="M230.7,100.3l0.5-0.8c0.6-0.9,1.4-1,2.4-0.4c1,0.6,2.6,1.5,4.8,1.5c1.9,0,3-0.9,3-2.2
			c0-3.5-10.8-2.2-10.8-9.6c0-4.2,3.7-6.5,8.3-6.5c2.9,0,4.9,0.9,6,1.6c1,0.5,1.1,1.4,0.6,2.4l-0.4,0.8c-0.5,1-1.3,1.1-2.4,0.7
			c-0.9-0.4-2.3-1.1-4.1-1.1c-1.9,0-2.9,0.8-2.9,2.1c0,3.6,10.8,2.2,10.8,9.6c0,3.8-3.2,6.7-8.2,6.7c-3.5,0-5.9-1.3-7.2-2.2
			C230.2,102.2,230.1,101.2,230.7,100.3z"/>
	</g>
	<g>
		<path class="st5" d="M249.7,100.3l0.5-0.8c0.6-0.9,1.4-1,2.4-0.4c1,0.6,2.6,1.5,4.8,1.5c1.9,0,3-0.9,3-2.2
			c0-3.5-10.8-2.2-10.8-9.6c0-4.2,3.7-6.5,8.3-6.5c2.9,0,4.9,0.9,6,1.6c1,0.5,1.1,1.4,0.6,2.4l-0.4,0.8c-0.5,1-1.3,1.1-2.4,0.7
			c-0.9-0.4-2.3-1.1-4.1-1.1c-1.9,0-2.9,0.8-2.9,2.1c0,3.6,10.8,2.2,10.8,9.6c0,3.8-3.2,6.7-8.2,6.7c-3.5,0-5.9-1.3-7.2-2.2
			C249.2,102.2,249.1,101.2,249.7,100.3z"/>
	</g>
</g>
<g>
	<g>
		<path class="st5" d="M102.4,51.8c0-0.8,0.4-1.2,1.2-1.2h1.3c0.8,0,1.2,0.4,1.2,1.2v5.5c0,0.7-0.1,1.3-0.1,1.3h0.1
			c0,0,1.3-2.4,4.6-2.4c4,0,6.7,3.2,6.7,7.9c0,4.8-3,7.9-6.9,7.9c-3.4,0-4.6-2.5-4.6-2.5h-0.1c0,0,0.1,0.2,0.1,0.7v0.5
			c0,0.7-0.4,1.1-1.2,1.1h-1c-0.8,0-1.2-0.4-1.2-1.2V51.8z M109.7,68.7c2.1,0,3.8-1.7,3.8-4.7c0-2.8-1.5-4.7-3.7-4.7
			c-2,0-3.8,1.4-3.8,4.7C106,66.5,107.3,68.7,109.7,68.7z"/>
	</g>
	<g>
		<path class="st5" d="M120.2,57.7c0-0.8,0.4-1.2,1.2-1.2h1.2c0.8,0,1.2,0.4,1.2,1.2v1.4c0,0.6-0.1,1-0.1,1h0.1
			c0.6-1.8,2.2-3.8,4.4-3.8c0.8,0,1.1,0.4,1.1,1.2v1.2c0,0.8-0.5,1.2-1.3,1.2c-2.7,0-4.1,2.7-4.1,5.5v4.9c0,0.8-0.4,1.2-1.2,1.2
			h-1.3c-0.8,0-1.2-0.4-1.2-1.2V57.7z"/>
	</g>
	<g>
		<path class="st5" d="M138.1,56.1c4.6,0,8.3,3.3,8.3,7.9c0,4.6-3.7,7.9-8.3,7.9c-4.6,0-8.3-3.3-8.3-7.9
			C129.8,59.4,133.5,56.1,138.1,56.1z M138.1,68.7c2.5,0,4.5-1.9,4.5-4.7c0-2.8-2-4.7-4.5-4.7s-4.5,1.9-4.5,4.7
			C133.6,66.8,135.6,68.7,138.1,68.7z"/>
	</g>
	<g>
		<path class="st5" d="M156.8,62.2h0.6v-0.4c0-2-1.3-2.7-2.8-2.7c-1.3,0-2.4,0.5-3.1,0.9c-0.7,0.3-1.3,0.2-1.7-0.5l-0.3-0.6
			c-0.4-0.7-0.2-1.3,0.5-1.7c1-0.5,2.7-1.2,4.9-1.2c3.9,0,6.2,2.2,6.2,6v8.2c0,0.8-0.4,1.2-1.2,1.2h-1c-0.8,0-1.2-0.4-1.2-1.2v-0.6
			c0-0.4,0.1-0.7,0.1-0.7h-0.1c0,0-1.4,2.8-4.7,2.8c-2.7,0-5-1.8-5-4.5C148,63,153.4,62.2,156.8,62.2z M154,69c2.1,0,3.5-2.1,3.5-4
			v-0.6h-0.6c-1.9,0-5.1,0.3-5.1,2.5C151.7,68.1,152.5,69,154,69z"/>
	</g>
	<g>
		<path class="st5" d="M170.6,56.1c3.3,0,4.4,2.2,4.4,2.2h0.1c0,0-0.1-0.4-0.1-0.9v-5.6c0-0.8,0.4-1.2,1.2-1.2h1.3
			c0.8,0,1.2,0.4,1.2,1.2v18.5c0,0.8-0.4,1.2-1.2,1.2h-1.1c-0.8,0-1.2-0.4-1.2-1.1v-0.6c0-0.3,0.1-0.5,0.1-0.5h-0.1
			c0,0-1.3,2.6-4.7,2.6c-4.1,0-6.7-3.2-6.7-7.9C163.8,59.2,166.6,56.1,170.6,56.1z M171.3,68.7c2,0,3.8-1.4,3.8-4.8
			c0-2.3-1.2-4.6-3.8-4.6c-2,0-3.8,1.7-3.8,4.7C167.6,66.9,169.1,68.7,171.3,68.7z"/>
	</g>
	<g>
		<path class="st5" d="M182,69.2l0.2-0.3c0.3-0.4,0.6-0.4,1-0.1c0.7,0.5,2,1.4,3.9,1.4c1.7,0,3-0.8,3-2.4c0-3.3-8-2.3-8-7.2
			c0-2.7,2.3-4.2,5.1-4.2c2.1,0,3.5,0.8,4.1,1.2c0.4,0.2,0.4,0.6,0.2,1l-0.2,0.3c-0.2,0.4-0.6,0.4-1,0.2c-0.6-0.4-1.6-0.9-3.2-0.9
			s-2.9,0.7-2.9,2.3c0,3.4,7.9,2.3,7.9,7.3c0,2.5-2.1,4.2-5,4.2c-2.6,0-4.3-1.1-5-1.7C181.7,69.9,181.7,69.6,182,69.2z"/>
	</g>
	<g>
		<path class="st5" d="M202.4,56.3c4.3,0,7.9,3.3,7.9,7.7c0,4.5-3.5,7.9-7.8,7.9c-4.3,0-7.9-3.4-7.9-7.9
			C194.6,59.6,198.1,56.3,202.4,56.3z M202.5,70.1c3.2,0,5.8-2.6,5.8-6.1c0-3.4-2.6-5.9-5.8-5.9c-3.2,0-5.8,2.5-5.8,5.9
			C196.7,67.5,199.3,70.1,202.5,70.1z"/>
	</g>
	<g>
		<path class="st5" d="M214.2,58.5h-1.2c-0.5,0-0.7-0.2-0.7-0.7v-0.2c0-0.5,0.2-0.7,0.7-0.7h1.2v-0.7c0-4.7,3.5-5.5,5-5.5h0.3
			c0.5,0,0.7,0.3,0.7,0.7v0.4c0,0.5-0.3,0.7-0.8,0.7c-1.3,0.1-3.2,0.4-3.2,3.7v0.7h3.1c0.5,0,0.7,0.3,0.7,0.7v0.2
			c0,0.5-0.2,0.7-0.7,0.7h-3.1v12.3c0,0.5-0.3,0.7-0.7,0.7H215c-0.5,0-0.7-0.3-0.7-0.7V58.5z"/>
	</g>
	<g>
		<path class="st5" d="M223.3,58.5h-1.2c-0.5,0-0.7-0.2-0.7-0.7v-0.2c0-0.5,0.2-0.7,0.7-0.7h1.3v-3.5c0-0.5,0.3-0.7,0.7-0.7h0.5
			c0.5,0,0.7,0.3,0.7,0.7v3.5h3c0.5,0,0.7,0.3,0.7,0.7v0.2c0,0.5-0.3,0.7-0.7,0.7h-3v7.5c0,3.4,2.1,3.8,3.3,3.9
			c0.6,0.1,0.8,0.2,0.8,0.7V71c0,0.5-0.2,0.7-0.8,0.7c-3.3,0-5.2-2-5.2-5.5V58.5z"/>
	</g>
</g>
</svg>
