<svg xmlns="http://www.w3.org/2000/svg" id="Layer_1" viewBox="0 0 612 792">
    <style>
        .st0{fill:#fff}
    </style>
    <path d="M390.5 548H199.4c-3.8 0-6.8 3.1-6.8 6.8v13.7c0 3.8 3.1 6.8 6.8 6.8 3.8 0 6.8-3.1 6.8-6.8v-6.8h184.3c3.8 0 6.8-3.1 6.8-6.8.1-3.8-3-6.9-6.8-6.9zM247.2 336.4c0 3.8 3.1 6.8 6.8 6.8h27.3c3.8 0 6.8-3.1 6.8-6.8v-41c0-3.8-3.1-6.8-6.8-6.8H254c-3.8 0-6.8 3.1-6.8 6.8v41zm13.6-34.2h13.7v27.3h-13.7v-27.3zM185.7 247.6h-81.9c-3.8 0-6.8 3.1-6.8 6.8v136.5c0 3.8 3.1 6.8 6.8 6.8 3.8 0 6.8-3.1 6.8-6.8V261.3h75.1c3.8 0 6.8-3.1 6.8-6.8.1-3.8-3-6.9-6.8-6.9zM424.7 500.2c0 3.8 3.1 6.8 6.8 6.8h27.3c3.8 0 6.8-3.1 6.8-6.8v-41c0-3.8-3.1-6.8-6.8-6.8h-27.3c-3.8 0-6.8 3.1-6.8 6.8v41zm13.6-34.1H452v27.3h-13.7v-27.3zM131.1 411.5c-33.7 0-34.1 87.9-34.1 88.7 0 16.5 11.8 30.3 27.3 33.4v34.8c0 3.8 3.1 6.8 6.8 6.8 3.8 0 6.8-3.1 6.8-6.8v-34.8c15.6-3.2 27.3-17 27.3-33.4.1-.9-.3-88.7-34.1-88.7zm0 109.2c-11.3 0-20.5-9.2-20.5-20.5 0-34 9.1-75.1 20.5-75.1 11.3 0 20.5 41.1 20.5 75.1 0 11.3-9.2 20.5-20.5 20.5zM172.1 370.5h-27.3c-3.8 0-6.8 3.1-6.8 6.8V391c0 3.8 3.1 6.8 6.8 6.8 3.8 0 6.8-3.1 6.8-6.8v-6.8h13.7v34.1c0 3.8 3.1 6.8 6.8 6.8 3.8 0 6.8-3.1 6.8-6.8v-41c0-3.7-3-6.8-6.8-6.8zM431.5 343.2h27.3c3.8 0 6.8-3.1 6.8-6.8v-41c0-3.8-3.1-6.8-6.8-6.8h-27.3c-3.8 0-6.8 3.1-6.8 6.8v41c0 3.7 3 6.8 6.8 6.8zm6.8-41H452v27.3h-13.7v-27.3z" class="st0"/>
    <path d="M172.1 288.6h-27.3c-3.8 0-6.8 3.1-6.8 6.8v41c0 3.8 3.1 6.8 6.8 6.8h27.3c3.8 0 6.8-3.1 6.8-6.8v-41c0-3.8-3-6.8-6.8-6.8zm-6.8 40.9h-13.7v-27.3h13.7v27.3zM315.5 336.4c0 3.8 3.1 6.8 6.8 6.8h27.3c3.8 0 6.8-3.1 6.8-6.8v-41c0-3.8-3.1-6.8-6.8-6.8h-27.3c-3.8 0-6.8 3.1-6.8 6.8v41zm13.6-34.2h13.7v27.3h-13.7v-27.3zM499.8 247.6h-81.9c-3.8 0-6.8 3.1-6.8 6.8 0 3.8 3.1 6.8 6.8 6.8H493v274.3c-2.1-.8-4.4-1.3-6.8-1.3-1.2 0-2.4.1-3.5.3-4.7-8.5-13.7-14-23.8-14-10.1 0-19.1 5.5-23.8 14-1.2-.2-2.3-.3-3.5-.3-11.3 0-20.5 9.2-20.5 20.5s9.2 20.5 20.5 20.5h54.6c11.3 0 20.5-9.2 20.5-20.5V254.4c-.1-3.7-3.2-6.8-6.9-6.8zm-13.7 314h-54.6c-3.8 0-6.8-3.1-6.8-6.8 0-3.7 3.1-6.8 6.8-6.8 1.3 0 2.6.4 3.7 1.1 1.9 1.2 4.2 1.4 6.3.6 2.1-.8 3.6-2.6 4.1-4.8 1.4-6.2 6.9-10.6 13.3-10.6s11.8 4.3 13.3 10.6c.5 2.2 2 4 4.1 4.8 2.1.8 4.4.6 6.3-.6 4.4-2.9 10.5.6 10.5 5.7-.2 3.8-3.2 6.8-7 6.8zM322.3 261.3h27.3c3.8 0 6.8-3.1 6.8-6.8v-41c0-3.8-3.1-6.8-6.8-6.8h-27.3c-3.8 0-6.8 3.1-6.8 6.8v41c0 3.7 3 6.8 6.8 6.8zm6.8-41h13.7v27.3h-13.7v-27.3zM315.5 418.3c0 3.8 3.1 6.8 6.8 6.8h27.3c3.8 0 6.8-3.1 6.8-6.8v-41c0-3.8-3.1-6.8-6.8-6.8h-27.3c-3.8 0-6.8 3.1-6.8 6.8v41zm13.6-34.1h13.7v27.3h-13.7v-27.3zM254 261.3h27.3c3.8 0 6.8-3.1 6.8-6.8v-41c0-3.8-3.1-6.8-6.8-6.8H254c-3.8 0-6.8 3.1-6.8 6.8v41c0 3.7 3 6.8 6.8 6.8zm6.8-41h13.7v27.3h-13.7v-27.3zM297 495.4c-1.2 1.3-2 3.1-2 4.8 0 1.8.8 3.6 2 4.8 1.3 1.2 3.1 2 4.8 2 1.8 0 3.5-.8 4.8-2 1.2-1.3 2-3.1 2-4.8 0-1.8-.8-3.6-2-4.8-2.5-2.6-7.1-2.6-9.6 0zM247.2 418.3c0 3.8 3.1 6.8 6.8 6.8h27.3c3.8 0 6.8-3.1 6.8-6.8v-41c0-3.8-3.1-6.8-6.8-6.8H254c-3.8 0-6.8 3.1-6.8 6.8v41zm13.6-34.1h13.7v27.3h-13.7v-27.3z" class="st0"/>
    <path d="M233.5 459.2c0 3.8 3.1 6.8 6.8 6.8h20.5v61.4c0 3.8 3.1 6.8 6.8 6.8 3.8 0 6.8-3.1 6.8-6.8V466H329v61.4c0 3.8 3.1 6.8 6.8 6.8 3.8 0 6.8-3.1 6.8-6.8V466h20.5c3.8 0 6.8-3.1 6.8-6.8 0-3.8-3.1-6.8-6.8-6.8H240.4c-3.8 0-6.9 3.1-6.9 6.8zM424.7 418.3c0 3.8 3.1 6.8 6.8 6.8h27.3c3.8 0 6.8-3.1 6.8-6.8v-41c0-3.8-3.1-6.8-6.8-6.8h-27.3c-3.8 0-6.8 3.1-6.8 6.8v41zm13.6-34.1H452v27.3h-13.7v-27.3z" class="st0"/>
    <path d="M390.5 165.7H213.1c-3.8 0-6.8 3.1-6.8 6.8v355c0 3.8 3.1 6.8 6.8 6.8 3.8 0 6.8-3.1 6.8-6.8V179.4h163.8v348.2c0 3.8 3.1 6.8 6.8 6.8 3.8 0 6.8-3.1 6.8-6.8v-355c.1-3.8-3-6.9-6.8-6.9z" class="st0"/>
</svg>
