<?xml version="1.0" encoding="utf-8"?>
<!-- Generator: Adobe Illustrator 21.1.0, SVG Export Plug-In . SVG Version: 6.00 Build 0)  -->
<svg version="1.1" id="Layer_1" xmlns="http://www.w3.org/2000/svg" xmlns:xlink="http://www.w3.org/1999/xlink" x="0px" y="0px"
	 viewBox="0 0 268 272" style="enable-background:new 0 0 268 272;" xml:space="preserve">
<style type="text/css">
	.st0{clip-path:url(#SVGID_1_);fill:none;stroke:#FFFFFF;stroke-width:6;stroke-miterlimit:10;}
	.st1{fill:none;stroke:#FFFFFF;stroke-width:6;stroke-miterlimit:10;}
	.st2{clip-path:url(#SVGID_2_);fill:none;stroke:#FFFFFF;stroke-width:6;stroke-miterlimit:10;}
	.st3{clip-path:url(#SVGID_3_);fill:none;stroke:#FFFFFF;stroke-width:6;stroke-miterlimit:10;}
</style>
<g>
	<defs>
		<circle id="SVGID_19_" cx="68.5" cy="218.5" r="12.6"/>
	</defs>
	<clipPath id="SVGID_1_">
		<use xlink:href="#SVGID_19_"  style="overflow:visible;"/>
	</clipPath>
	<rect x="35" y="185" class="st0" width="67" height="67"/>
	<use xlink:href="#SVGID_19_"  style="overflow:visible;fill:none;stroke:#FFFFFF;stroke-width:6;stroke-miterlimit:10;"/>
</g>
<circle class="st1" cx="68.5" cy="218.5" r="12.6"/>
<g>
	<defs>
		<circle id="SVGID_21_" cx="173.2" cy="218.5" r="12.6"/>
	</defs>
	<clipPath id="SVGID_2_">
		<use xlink:href="#SVGID_21_"  style="overflow:visible;"/>
	</clipPath>
	<rect x="139.7" y="185" class="st2" width="67" height="67"/>
	<use xlink:href="#SVGID_21_"  style="overflow:visible;fill:none;stroke:#FFFFFF;stroke-width:6;stroke-miterlimit:10;"/>
</g>
<circle class="st1" cx="173.2" cy="218.5" r="12.6"/>
<polyline class="st1" points="171.1,88.7 210.9,88.7 202.5,180.8 39.1,164.1 30.8,88.7 75.8,88.7 "/>
<polyline class="st1" points="202.5,178.7 202.5,193.6 44.5,193.6 "/>
<polyline class="st1" points="210.5,96.8 213.3,71.9 242.7,71.9 "/>
<g>
	<defs>
		<circle id="SVGID_23_" cx="122.9" cy="88.7" r="46.1"/>
	</defs>
	<clipPath id="SVGID_3_">
		<use xlink:href="#SVGID_23_"  style="overflow:visible;"/>
	</clipPath>
	<rect x="55.9" y="21.7" class="st3" width="134" height="134"/>
	<use xlink:href="#SVGID_23_"  style="overflow:visible;fill:none;stroke:#FFFFFF;stroke-width:6;stroke-miterlimit:10;"/>
</g>
<circle class="st1" cx="122.9" cy="88.7" r="46.1"/>
<line class="st1" x1="97.8" y1="88.7" x2="148" y2="88.7"/>
<line class="st1" x1="118.7" y1="67.7" x2="127.1" y2="67.7"/>
<line class="st1" x1="118.7" y1="109.6" x2="127.1" y2="109.6"/>
</svg>
