<svg xmlns="http://www.w3.org/2000/svg" id="Layer_1" viewBox="0 0 472 452">
    <style>
        .st0{fill:#78c143}
    </style>
    <path d="M371.2 88.9c-38-38-88.3-58.9-141.7-58.9-53.4 0-103.7 20.9-141.7 58.9-38 38-58.9 88.3-58.9 141.7 0 53.4 20.9 103.7 58.9 141.7 38 38 88.3 58.9 141.7 58.9 53.7 0 104.1-20.9 142-58.9 37.8-37.9 58.6-88.2 58.6-141.7 0-53.5-21-103.8-58.9-141.7zm-13.7 268.7c-34.1 34.1-79.6 52.9-127.9 52.9-48.4 0-93.8-18.8-127.9-52.9-34.2-34.1-53-79.6-53-127.9 0-48.4 18.8-93.8 52.9-127.9 34.1-34.1 79.6-52.9 127.9-52.9 48.9 0 94.7 19.1 129 53.7 33.9 34.1 52.3 79.3 51.8 127.2.1 48.2-18.7 93.7-52.8 127.8z" class="st0"/>
    <path d="M288.1 187.3l-78.3 76.5-34.6-34.6c-4-4-9.7-4-13.7 0s-4 9.7 0 13.7l41.7 41.7c2.8 1.8 5.4 2.8 7.5 2.8 3.1 0 5.6-.9 7.3-2.5l83.8-83.8c4-4 4-9.7 0-13.7s-9.7-4-13.7-.1z" class="st0"/>
</svg>
