<?xml version="1.0" encoding="utf-8"?>
<!-- Generator: Adobe Illustrator 21.1.0, SVG Export Plug-In . SVG Version: 6.00 Build 0)  -->
<svg version="1.1" id="Layer_1" xmlns="http://www.w3.org/2000/svg" xmlns:xlink="http://www.w3.org/1999/xlink" x="0px" y="0px"
	 viewBox="0 0 472 452" style="enable-background:new 0 0 472 452;" xml:space="preserve">
<style type="text/css">
	.st0{fill:#78C143;}
</style>
<g>
	<path class="st0" d="M371.2,88.9c-38-38-88.3-58.9-141.7-58.9c-53.4,0-103.7,20.9-141.7,58.9c-38,38-58.9,88.3-58.9,141.7
		c0,53.4,20.9,103.7,58.9,141.7c38,38,88.3,58.9,141.7,58.9c53.7,0,104.1-20.9,142-58.9c37.8-37.9,58.6-88.2,58.6-141.7
		C430.1,177.1,409.1,126.8,371.2,88.9z M357.5,357.6c-34.1,34.1-79.6,52.9-127.9,52.9c-48.4,0-93.8-18.8-127.9-52.9
		C67.5,323.5,48.7,278,48.7,229.7c0-48.4,18.8-93.8,52.9-127.9c34.1-34.1,79.6-52.9,127.9-52.9c48.9,0,94.7,19.1,129,53.7
		c33.9,34.1,52.3,79.3,51.8,127.2C410.4,278,391.6,323.5,357.5,357.6z"/>
	<path class="st0" d="M288.1,187.3l-78.3,76.5l-34.6-34.6c-4-4-9.7-4-13.7,0c-4,4-4,9.7,0,13.7l41.7,41.7c2.8,1.8,5.4,2.8,7.5,2.8
		c3.1,0,5.6-0.9,7.3-2.5l83.8-83.8c4-4,4-9.7,0-13.7C297.8,183.4,292.1,183.4,288.1,187.3z"/>
</g>
</svg>
