<?xml version="1.0" encoding="utf-8"?>
<!-- Generator: Adobe Illustrator 16.0.0, SVG Export Plug-In . SVG Version: 6.00 Build 0)  -->
<!DOCTYPE svg PUBLIC "-//W3C//DTD SVG 1.1//EN" "http://www.w3.org/Graphics/SVG/1.1/DTD/svg11.dtd">
<svg version="1.1" id="Layer_1" xmlns="http://www.w3.org/2000/svg" xmlns:xlink="http://www.w3.org/1999/xlink" x="0px" y="0px"
	 width="80px" height="40px" viewBox="0 0 80 40" enable-background="new 0 0 80 40" xml:space="preserve">
<path fill-rule="evenodd" clip-rule="evenodd" fill="#FFFFFF" d="M56.437,32.996c-0.013-3.725,2.904-6.606,6.707-6.628
	c3.828-0.023,6.778,2.845,6.788,6.593c0.01,3.775-2.883,6.631-6.727,6.643C59.366,39.615,56.451,36.771,56.437,32.996z
	 M63.189,36.345c1.877,0.002,3.334-1.467,3.335-3.356c0-1.878-1.478-3.364-3.343-3.362s-3.333,1.484-3.331,3.369
	C59.853,34.887,61.305,36.344,63.189,36.345z"/>
<path fill-rule="evenodd" clip-rule="evenodd" fill="#FFFFFF" d="M31.39,36.326c0.938,0.237,1.838,0.422,2.761,0.46
	c0.562,0.023,1.121-0.009,1.662-0.163c0.479-0.138,0.902-0.372,0.953-0.937c0.049-0.537-0.301-0.84-0.727-1.07
	c-0.466-0.254-0.982-0.372-1.479-0.54c-0.484-0.166-0.955-0.355-1.393-0.619c-1.271-0.766-1.892-1.877-1.792-3.373
	c0.096-1.437,0.779-2.49,2.06-3.138c1.371-0.691,2.831-0.653,4.298-0.461c0.502,0.065,1.149,0.007,1.454,0.341
	c0.29,0.32,0.071,0.946,0.083,1.437c0.009,0.394,0.134,0.941-0.067,1.139c-0.212,0.207-0.721-0.105-1.105-0.157
	c-0.75-0.104-1.5-0.208-2.256-0.034c-0.228,0.052-0.445,0.121-0.642,0.245c-0.56,0.349-0.609,0.966-0.107,1.397
	c0.334,0.286,0.749,0.403,1.154,0.535c0.624,0.205,1.262,0.371,1.844,0.687c1.265,0.688,2.038,1.713,2.069,3.183
	c0.032,1.553-0.595,2.774-1.972,3.561c-1.456,0.83-3.043,0.867-4.65,0.736c-0.622-0.052-1.238-0.168-1.859-0.24
	c-0.191-0.023-0.297-0.075-0.295-0.297C31.395,38.133,31.39,37.247,31.39,36.326z"/>
<path fill-rule="evenodd" clip-rule="evenodd" fill="#FFFFFF" d="M19.373,35.751c0,1.098-0.001,2.146,0.001,3.191
	c0,0.153-0.062,0.227-0.217,0.273c-2.915,0.865-6.39,0.396-8.351-2.361c-2.511-3.532-1.094-9.679,4.666-10.417
	c1.213-0.155,2.392-0.003,3.566,0.294c0.256,0.064,0.346,0.173,0.342,0.436c-0.014,0.904-0.017,1.811,0,2.716
	c0.007,0.344-0.102,0.331-0.361,0.213c-1.079-0.488-2.207-0.656-3.368-0.38c-1.566,0.371-2.597,1.777-2.522,3.391
	c0.081,1.723,1.232,3.004,2.892,3.241C17.182,36.513,18.265,36.249,19.373,35.751z"/>
<path fill-rule="evenodd" clip-rule="evenodd" fill="#FFFFFF" d="M53.032,30.248c-1.028-0.512-2.062-0.719-3.148-0.639
	c-1.62,0.122-2.889,1.346-3.07,2.967c-0.19,1.695,0.772,3.193,2.356,3.66c0.912,0.268,1.824,0.193,2.724-0.062
	c0.375-0.104,0.737-0.256,1.139-0.397c0,1.059-0.001,2.093,0.002,3.127c0,0.162-0.03,0.259-0.22,0.313
	c-2.861,0.841-6.148,0.417-8.105-2.06c-1.631-2.063-1.852-4.404-0.89-6.8c0.941-2.344,2.813-3.561,5.276-3.914
	c1.193-0.172,2.359-0.019,3.521,0.265c0.305,0.074,0.434,0.182,0.425,0.52C53.017,28.211,53.032,29.195,53.032,30.248z"/>
<path fill-rule="evenodd" clip-rule="evenodd" fill="#FFFFFF" d="M23.788,10.986c0,2.798,0.003,5.595-0.002,8.393
	c-0.002,0.769-0.428,1.337-1.128,1.555c-0.667,0.208-1.37-0.04-1.778-0.625c-0.206-0.294-0.28-0.622-0.28-0.978
	c0.002-5.611-0.001-11.223,0.005-16.834c0-0.955,0.689-1.648,1.592-1.648c0.913,0,1.587,0.685,1.589,1.646
	C23.793,5.326,23.789,8.156,23.788,10.986z"/>
<path fill-rule="evenodd" clip-rule="evenodd" fill="#FFFFFF" d="M58.97,10.937c0,2.816,0.004,5.632-0.002,8.448
	c-0.002,0.771-0.433,1.338-1.135,1.552c-0.67,0.205-1.374-0.05-1.771-0.642c-0.181-0.266-0.271-0.558-0.271-0.881
	c0.002-5.666-0.003-11.332,0.006-16.997c0.001-0.888,0.704-1.561,1.573-1.567c0.895-0.006,1.595,0.669,1.598,1.589
	C58.977,5.271,58.97,8.104,58.97,10.937z"/>
<path fill-rule="evenodd" clip-rule="evenodd" fill="#FFFFFF" d="M23.799,32.975c0-1.977,0.007-3.952-0.007-5.929
	c-0.002-0.334,0.075-0.463,0.433-0.452c0.806,0.025,1.614,0.019,2.42,0.002c0.288-0.005,0.398,0.053,0.397,0.375
	c-0.011,4.018-0.011,8.036,0,12.055c0.002,0.325-0.112,0.377-0.397,0.373c-0.806-0.018-1.614-0.025-2.42,0.001
	c-0.358,0.012-0.436-0.109-0.433-0.447C23.807,36.96,23.799,34.968,23.799,32.975z"/>
<path fill-rule="evenodd" clip-rule="evenodd" fill="#FFFFFF" d="M11.809,12.338c0-1.25-0.003-2.5,0-3.75
	c0.002-1.001,0.654-1.705,1.574-1.712c0.951-0.007,1.606,0.689,1.608,1.724c0.004,2.5,0.004,5.001,0,7.501
	c-0.001,1.002-0.653,1.711-1.571,1.726c-0.928,0.015-1.609-0.715-1.611-1.738C11.807,14.838,11.809,13.588,11.809,12.338z"/>
<path fill-rule="evenodd" clip-rule="evenodd" fill="#FFFFFF" d="M29.396,12.319c0-1.25-0.006-2.5,0.002-3.751
	c0.006-0.996,0.672-1.693,1.595-1.693c0.93,0,1.588,0.692,1.589,1.694c0.005,2.517,0.005,5.033,0,7.551
	c-0.002,0.994-0.675,1.706-1.59,1.707c-0.914,0-1.588-0.713-1.594-1.708C29.391,14.852,29.396,13.585,29.396,12.319z"/>
<path fill-rule="evenodd" clip-rule="evenodd" fill="#FFFFFF" d="M64.577,12.37c0-1.317-0.011-2.634,0.004-3.951
	c0.01-0.765,0.578-1.41,1.293-1.529c0.797-0.132,1.531,0.297,1.81,1.042c0.065,0.175,0.084,0.353,0.084,0.533
	c0.002,2.585,0.009,5.169-0.002,7.754c-0.003,0.855-0.56,1.459-1.396,1.587c-0.743,0.113-1.478-0.359-1.725-1.098
	c-0.075-0.226-0.069-0.454-0.069-0.683c-0.003-1.218-0.001-2.437-0.001-3.655C64.575,12.37,64.576,12.37,64.577,12.37z"/>
<path fill-rule="evenodd" clip-rule="evenodd" fill="#FFFFFF" d="M50.17,12.373c0,1.25,0.006,2.5-0.001,3.749
	c-0.004,0.993-0.678,1.707-1.592,1.704c-0.914-0.004-1.583-0.719-1.585-1.714c-0.004-2.515-0.004-5.031,0-7.546
	c0.002-0.995,0.67-1.693,1.596-1.691c0.927,0.002,1.577,0.697,1.581,1.701C50.174,9.842,50.17,11.108,50.17,12.373z"/>
<path fill-rule="evenodd" clip-rule="evenodd" fill="#FFFFFF" d="M3.014,14.556c0-0.558-0.007-1.117,0.001-1.675
	c0.014-0.902,0.707-1.605,1.582-1.614c0.87-0.009,1.583,0.682,1.598,1.593c0.019,1.134,0.021,2.267-0.001,3.4
	c-0.018,0.899-0.764,1.595-1.625,1.567C3.71,17.8,3.032,17.109,3.016,16.231C3.005,15.673,3.014,15.114,3.014,14.556z"/>
<path fill-rule="evenodd" clip-rule="evenodd" fill="#FFFFFF" d="M41.371,14.578c0.001,0.56,0.015,1.12-0.002,1.679
	c-0.026,0.88-0.729,1.569-1.581,1.571c-0.85,0.002-1.574-0.687-1.589-1.56c-0.02-1.152-0.02-2.305,0-3.457
	c0.016-0.869,0.751-1.554,1.603-1.544c0.838,0.01,1.536,0.682,1.564,1.534C41.388,13.393,41.371,13.985,41.371,14.578z"/>
<path fill-rule="evenodd" clip-rule="evenodd" fill="#FFFFFF" d="M73.375,14.497c0-0.56-0.014-1.12,0.003-1.679
	c0.024-0.873,0.74-1.559,1.597-1.551c0.859,0.008,1.563,0.698,1.574,1.575c0.014,1.136,0.014,2.272,0,3.408
	c-0.011,0.876-0.718,1.568-1.574,1.578c-0.851,0.009-1.571-0.682-1.596-1.552C73.361,15.683,73.376,15.09,73.375,14.497z"/>
<path fill-rule="evenodd" clip-rule="evenodd" fill="#FFFFFF" d="M74.863,39.3c-0.001-0.455-0.003-0.912-0.005-1.368
	c0.004-0.061,0.009-0.121,0.013-0.181c0.237-0.118,0.356-0.026,0.434,0.211c0.111,0.342,0.248,0.675,0.401,1.089
	c0.153-0.418,0.29-0.763,0.405-1.113c0.054-0.164,0.131-0.262,0.313-0.23c0.204,0.036,0.126,0.202,0.129,0.315
	c0.01,0.395,0.004,0.79,0.001,1.185c0,0.08-0.004,0.178-0.116,0.174c-0.108-0.002-0.113-0.099-0.113-0.181
	c-0.002-0.26-0.001-0.52-0.001-0.853c-0.306,0.23-0.291,0.531-0.415,0.759c-0.06,0.104-0.042,0.287-0.227,0.277
	c-0.173-0.011-0.167-0.183-0.213-0.295c-0.109-0.271-0.204-0.546-0.415-0.814c0,0.341,0,0.683,0,1.024
	C74.991,39.299,74.927,39.299,74.863,39.3z"/>
<path fill-rule="evenodd" clip-rule="evenodd" fill="#FFFFFF" d="M74.871,37.751c-0.004,0.06-0.009,0.12-0.013,0.181
	c-0.692-0.041-0.692-0.041-0.692,0.629c0,0.182,0.005,0.362-0.002,0.543c-0.004,0.105,0.041,0.27-0.122,0.275
	c-0.206,0.006-0.14-0.181-0.148-0.297c-0.01-0.148-0.003-0.297-0.001-0.445c0.002-0.39,0.114-0.854-0.583-0.823
	C73.85,37.657,74.357,37.671,74.871,37.751z"/>
<path fill-rule="evenodd" clip-rule="evenodd" fill="#FFFFFF" d="M74.863,39.3c0.063-0.001,0.128-0.001,0.19-0.001
	c-0.023,0.03-0.04,0.083-0.07,0.091C74.919,39.407,74.869,39.376,74.863,39.3z"/>
</svg>
