<svg xmlns="http://www.w3.org/2000/svg" id="Layer_1" viewBox="0 0 300 300">
    <style>
        .st0{fill:#8c8c8c}
    </style>
    <path d="M254.9 105.4c-43.3 28.4-37.8 89.1 7.9 110-3.8 8.5-7.2 17.2-11.6 25.4-6.9 13.1-15.2 25.3-25.6 35.9-7.6 7.8-16.7 12.7-27.9 11.5-5.3-.6-10.7-2.2-15.7-4.1-7.4-2.7-14.5-6-22.6-6.6-9.6-.7-18.5 1.3-27.3 4.8-5.2 2.1-10.6 4.2-16 5.5-8 1.9-15.6.5-22.6-4-7.2-4.7-12.7-11-18-17.6-19.3-24.4-31.6-52-36.4-82.8-3.2-20.6-2.9-41.2 5.5-60.8C54 100.5 70 85.9 93.8 80.4c12.9-3 25.2-.7 37.3 4.4 4.4 1.8 8.8 3.4 13.3 5 4.8 1.7 9.7 1.7 14.5-.1 8.8-3.2 17.4-7.2 26.4-9.2 26.2-6 48.8.7 66.8 21.3.9 1 1.7 2.2 2.8 3.6zM204.4 11.4c4.6 30.9-25.2 66.3-54.4 62.9-6.3-26 27-64.5 54.4-62.9z" class="st0"/>
</svg>
