<svg xmlns="http://www.w3.org/2000/svg" id="Layer_1" viewBox="0 0 100 125">
    <style>
        .st0{fill:#fff}
    </style>
    <path d="M49.1 76.3c0 .1 0 .1 0 0 .2.1.3.2.4.3 0 0 .1.1.2.1.1.1.2.1.3.1.1 0 .1 0 .2.1.1 0 .2.1.3.1.2 0 .3.1.5.1h.5c.1 0 .2-.1.4-.1h.1c.1-.1.3-.1.4-.2.1-.1.3-.2.4-.3L80 49c1-1 1-2.6 0-3.5s-2.6-1-3.5 0l-23.1 23V13.7c0-1.4-1.1-2.5-2.5-2.5s-2.5 1.1-2.5 2.5v54.8L25.3 45.4c-1-1-2.6-1-3.5 0-1 1-1 2.6 0 3.5l27.3 27.4zm29.1 7.5H23.5c-1.4 0-2.5 1.1-2.5 2.5s1.1 2.5 2.5 2.5h54.7c1.4 0 2.5-1.1 2.5-2.5s-1.1-2.5-2.5-2.5z" class="st0"/>
</svg>
