<?xml version="1.0" encoding="utf-8"?>
<!-- Generator: Adobe Illustrator 21.1.0, SVG Export Plug-In . SVG Version: 6.00 Build 0)  -->
<svg version="1.1" id="Layer_1" xmlns="http://www.w3.org/2000/svg" xmlns:xlink="http://www.w3.org/1999/xlink" x="0px" y="0px"
	 viewBox="0 0 100 86.8" style="enable-background:new 0 0 100 86.8;" xml:space="preserve">
<style type="text/css">
	.st0{fill:#FF0000;}
</style>
<g>
	<g>
		<path class="st0" d="M50,63.3c-1.5,0-2.7-1.2-2.7-2.7V26.3c0-1.5,1.2-2.7,2.7-2.7s2.7,1.2,2.7,2.7v34.4
			C52.7,62.1,51.5,63.3,50,63.3z"/>
	</g>
	<g>
		<circle class="st0" cx="50" cy="73" r="3.2"/>
	</g>
	<g>
		<path class="st0" d="M88.8,85.5l-77.8,0c-0.4,0-4.2-0.6-5.7-3.8c-1.2-2.5-0.6-5.6,1.8-9.3L42,9.3l1.6-3c1.8-3.3,3.9-5,6.3-5
			c0,0,0,0,0.1,0c2.6,0,4.4,1.9,5.6,3.6h0.1L57,7.4l35.9,65.1c0.1,0.1,0.1,0.2,0.2,0.3l0.1,0.1c2.2,3.5,2.7,6.5,1.5,8.9
			c-1.5,3.2-5.3,3.7-5.7,3.7L88.8,85.5z M11.4,81.5h77.1c0.4-0.1,2-0.4,2.5-1.5c0.5-1,0-2.8-1.3-5l-0.3-0.5L52.7,8
			c-0.9-1.5-2-2.6-2.8-2.6c0,0,0,0,0,0c-0.7,0-1.6,0.9-2.5,2.4l-0.3,0.5L10.5,74.6C9,77,8.4,78.9,8.9,80C9.4,81.1,11,81.4,11.4,81.5
			z"/>
	</g>
</g>
</svg>
