<?xml version="1.0" encoding="utf-8"?>
<!-- Generator: Adobe Illustrator 21.1.0, SVG Export Plug-In . SVG Version: 6.00 Build 0)  -->
<svg version="1.1" id="Layer_1" xmlns="http://www.w3.org/2000/svg" xmlns:xlink="http://www.w3.org/1999/xlink" x="0px" y="0px"
	 viewBox="0 0 100 103.7" style="enable-background:new 0 0 100 103.7;" xml:space="preserve">
<style type="text/css">
	.st0{fill:#262626;}
</style>
<path class="st0" d="M95.5,46.9c-3.7-4.3-7.3-8.8-10.9-13.1c-3.2-3.9-6.5-7.7-9.8-11.6c-3.6-4.3-7.1-8.6-10.6-12.8
	c-1.2-1.4-2.4-2.8-3.7-4.2c-1.7-1.9-5.7-2.2-7.9-0.9c-2.4,1.4-3.7,4.3-3.3,6.9c0.4,2.3,1.9,3.8,3.2,5.4c4.1,4.9,8.2,9.8,12.3,14.8
	c3.2,3.8,6.4,7.6,9.5,11.4c0.6,0.7,1.4,1.3,1.7,2.3c-0.5,0.3-1,0.2-1.4,0.2c-21.6,0-43.2,0-64.8,0c-3,0-5.5,1.1-6.7,3.9
	c-0.4,0.9-0.6,1.9-0.6,2.8c0,0.9,0.2,1.9,0.6,2.8c1.3,2.8,3.7,3.9,6.7,3.9c21.6,0,43.2,0,64.8,0c0.5,0,1-0.1,1.4,0.2
	c-0.4,1-1.1,1.6-1.7,2.3c-3.1,3.8-6.4,7.6-9.5,11.4c-4.1,4.9-8.2,9.8-12.3,14.8c-1.3,1.6-2.8,3.1-3.2,5.4c-0.4,2.7,0.9,5.5,3.3,6.9
	c2.2,1.3,6.2,1,7.9-0.9c1.3-1.4,2.5-2.8,3.7-4.2c3.6-4.2,7.1-8.5,10.6-12.8c3.2-3.9,6.5-7.7,9.8-11.6c3.7-4.4,7.3-8.8,10.9-13.1
	c1.3-1.6,2-3.3,2-5C97.5,50.1,96.8,48.4,95.5,46.9z"/>
</svg>
