<?xml version="1.0" encoding="utf-8"?>
<!-- Generator: Adobe Illustrator 21.1.0, SVG Export Plug-In . SVG Version: 6.00 Build 0)  -->
<svg version="1.1" id="Layer_1" xmlns="http://www.w3.org/2000/svg" xmlns:xlink="http://www.w3.org/1999/xlink" x="0px" y="0px"
	 viewBox="0 0 242 241" style="enable-background:new 0 0 242 241;" xml:space="preserve">
<style type="text/css">
	.st0{fill:#76C430;}
</style>
<g id="ic_x5F_phone">
	<path class="st0" d="M86.1,111c8.5,16.7,22.1,30.3,38.7,38.7l12.2-12.4c1.1-1.1,2.6-1.8,4.1-1.8h23.5c3.3,0,5.9,2.6,5.9,5.9V165
		c0,3.3-2.6,5.9-5.9,5.9C109.5,171,64.8,126.1,64.8,71c0-3.3,2.6-5.9,5.9-5.9h23.5c3.3,0,5.9,2.6,5.9,5.9v23.5
		c0,1.6-0.7,3.2-1.8,4.1L86.1,111z"/>
</g>
<g>
	<path class="st0" d="M117.7,227.5C57.3,227.5,8.2,178.3,8.2,118C8.2,57.6,57.3,8.5,117.7,8.5c60.4,0,109.5,49.1,109.5,109.5
		C227.2,178.3,178.1,227.5,117.7,227.5z M117.7,18.5c-54.9,0-99.5,44.6-99.5,99.5s44.6,99.5,99.5,99.5s99.5-44.6,99.5-99.5
		S172.5,18.5,117.7,18.5z"/>
</g>
</svg>
