<svg xmlns="http://www.w3.org/2000/svg" id="Layer_1" viewBox="0 0 100 125">
    <style>
        .st0{fill:none;stroke:#fff;stroke-width:2;stroke-miterlimit:10}.st1{fill:#fff}
    </style>
    <path d="M51.2 54.9c-8.7 0-15.8 7.1-15.8 15.8 0 8.7 7.1 15.8 15.8 15.8S67 79.3 67 70.7c0-8.8-7.1-15.8-15.8-15.8z" class="st0"/>
    <path d="M24.7 102.2h-.5c-2.8 0-5-2.2-5-5v-3.5h-1.9c-3.6 0-6.6-3-6.6-6.7v-8.4c0-2.1.4-3.5 3.8-7.2 11.2-12 19.7-21.5 21.1-23.2l.1-4.2c0-2.7 2.2-4.9 5-4.9h.5c2.8 0 5 2.1 5 4.9v3.6h9.4V44c0-2.7 2.2-4.9 5-4.9h.4c2.8 0 5 2.1 5 4.9l.3 4.1c1.4 1.6 9.9 11.1 21.2 23.1 3.6 3.9 3.8 5.3 3.8 7.2V87c0 3.5-2.9 6.7-6.3 6.7h-1.9v3.5c0 2.7-2.2 5-5 5h-.5c-2.8 0-5-2.2-5-5v-3.5h-43v3.6c0 2.6-2.2 4.9-4.9 4.9zm16.1-61.1c-1.8 0-3.1 1.3-3.1 3l-.1 4.9-.2.3c-.1.1-9.1 10.3-21.4 23.5-3.3 3.6-3.3 4.5-3.3 5.9v8.4c0 2.6 2.1 4.8 4.7 4.8h3.8v5.3c0 1.7 1.4 3.1 3.1 3.1h.5c1.7 0 3.1-1.4 3.1-3.1v-5.4h46.9v5.3c0 1.7 1.4 3.1 3.1 3.1h.5c1.7 0 3.1-1.4 3.1-3.1v-5.3h3.8c2.3 0 4.4-2.2 4.4-4.8v-8.4c0-1.4 0-2.3-3.3-5.9-12.7-13.2-21.7-23.4-21.7-23.5l-.3-.2-.3-4.8c0-1.8-1.3-3.1-3.1-3.1h-.5c-1.8 0-3.1 1.3-3.1 3v5.4h-13v-5.4c0-1.7-1.3-3-3.1-3h-.5zm19.7 3z" class="st1"/>
    <path d="M13.8 50.4c-3.1 0-5.2-2-5.4-5.4 0-.3-.4-5 1.3-8.5.5-1.5 7.7-20.6 40.1-21.2h2.5c30.9 0 38.6 18.2 39.1 19.5 1.8 3.6 1.6 8.3 1.6 8.5-.1 4.2-3 5.7-5.4 5.7h-.2l-13.2.2c-4 0-5-2.9-5-4.5l-.6-8C63.3 34.9 57.9 34 51.9 34h-1.7c-6.4.1-12.2 1.2-17.8 3.4l-.2 8.1s0 1.9-1.3 3.3c-.9.9-2.2 1.4-3.8 1.4l-13.3.2zm36-33.2c-31.6.6-38.2 19.8-38.3 19.9v.1c-1.5 3.1-1.1 7.5-1.1 7.6.2 2.4 1.3 3.6 3.4 3.6h.4l12.9-.3c1.1 0 1.9-.3 2.4-.8.7-.8.7-1.9.7-1.9l.2-9.5.6-.2c6-2.4 12.3-3.6 19.2-3.8h1.7c6.5 0 12.4 1 18 3.1l.6.2.6 9.3c0 .5.2 2.6 3 2.6h.3l13.1-.2c1.2 0 3.3-.5 3.4-3.7 0-.1.2-4.5-1.4-7.6v-.1s-1.8-4.6-7.2-9.1c-5-4.2-14.3-9.1-30-9.1h-2.5zM15.1 38.8zM51.2 63.6c-3.9 0-7.1 3.2-7.1 7.1s3.2 7.1 7.1 7.1 7.1-3.2 7.1-7.1-3.2-7.1-7.1-7.1zm0 12c-2.7 0-4.9-2.2-4.9-4.9s2.2-4.9 4.9-4.9 4.9 2.2 4.9 4.9-2.2 4.9-4.9 4.9z" class="st1"/>
</svg>
