<?xml version="1.0" encoding="utf-8"?>
<svg version="1.1" id="Layer_1" x="0px" y="0px" viewBox="0 0 300 300" style="enable-background:new 0 0 300 300;" xmlns="http://www.w3.org/2000/svg">
  <g>
    <g>
      <path d="M276.5,37.1h-16.6c-6.4,0-9.5,3.4-10.7,5.5c-1.2,2.2-1.5,4-1.5,5.2l-2.4,12.6H39.7c-4.3,0-7.4,1.2-9.5,3.7&#10;&#9;&#9;&#9;c-1.8,2.2-2.8,4.9-2.4,8v0.6l23,95.4c1.2,5.2,5.8,11.1,14.1,11.1h155.6l-4.3,21.2c-2.2-0.6-4.3-0.9-6.4-0.9&#10;&#9;&#9;&#9;c-12.9,0-23.6,8.9-26.1,21.2h-82.9c-2.8-12-13.2-21.2-26.1-21.2c-14.7,0-26.7,12-26.7,26.7c0,14.7,12,26.7,26.7,26.7&#10;&#9;&#9;&#9;c12.9,0,23.6-8.9,26.1-21.2h82.5c2.8,12,13.2,21.2,26.1,21.2c14.7,0,26.7-12,26.7-26.7c0-8.3-3.7-15.7-9.5-20.6l8.6-42l20.6-97&#10;&#9;&#9;&#9;l3.1-17.8v-0.6c0,0,0.6-0.3,1.2-0.3h16.6c3.1,0,5.5-2.4,5.5-5.5C282,39.5,279.6,37.1,276.5,37.1L276.5,37.1z M74.6,242&#10;&#9;&#9;&#9;c-8.6,0-15.3-6.8-15.3-15.3c0-8.6,6.8-15.3,15.3-15.3c8.6,0,15.3,6.8,15.3,15.3C90,235,83.2,242,74.6,242L74.6,242z M209.3,242&#10;&#9;&#9;&#9;c-8.6,0-15.3-6.8-15.3-15.3c0-8.6,6.8-15.3,15.3-15.3c8.6,0,15.3,6.8,15.3,15.3C224.6,235,217.9,242,209.3,242L209.3,242z&#10;&#9;&#9;&#9; M39.7,71.8h203.4l-4.3,20.6H44.3l-4.9-20.3v-0.3H39.7z M61.7,165.6l-15-62H236l-13.5,63.5c-0.3,0.9-1.5,0.9-1.8,0.9H65.1&#10;&#9;&#9;&#9;C63.3,168.1,62.4,167.1,61.7,165.6L61.7,165.6z M61.7,165.6" style="fill: rgb(255, 255, 255);"/>
    </g>
  </g>
</svg>