<svg xmlns="http://www.w3.org/2000/svg" id="Layer_1" viewBox="0 0 102 90">
    <style>
        .st0{fill:none;stroke:#fff;stroke-width:2;stroke-miterlimit:10}
    </style>
    <g transform="translate(-386 -1740.373)">
        <path d="M453.5 1792.4v-20.9c0-6.6 5.3-12 12-12 1.6 0 3.1.3 4.4.8.2.1.5.2.7.3.3.1.5.3.8.4 3.6 2.1 6.1 5.9 6.1 10.4v24.7" class="st0"/>
        <path d="M470 1784.8v4.8c0 1.5.8 3 2.1 3.7l7.5 4.4c.4.3 1.1.7 1.5 1 1.5 1.3 2.4 3.3 2.4 5.5V1813.5h-21m-5.3-19.2l.8-.4c1.9-1.1 3-3.1 3-5.3v-3.7" class="st0"/>
        <path d="M468.2 1771.8c-.5-.4-1.1-.4-1.5 0-1.4 1.2-5.1.7-7.1.7l-.1.6v6.8c0 3.8 2.7 7.9 6 7.9s6-4.1 6-7.9v-6.6c-1.2-.3-2.4-.7-3.3-1.5zM477.9 1813.5v-4.5M474.7 1795.4c0 2.9-1.4 5.7-3.8 7.4s-5.5 2.1-8.2 1.1M396.5 1796.2v-24.7c0-6.6 5.3-12 11.9-12 1.6 0 3 .3 4.4.8.2.1.5.2.7.3.3.1.5.3.8.4 3.6 2.1 6 5.9 6 10.4v20.9" class="st0"/>
        <path d="M413 1784.2v5.4c0 1.5.8 3 2.1 3.7l1.5.9m-5.3 19.3h-20.8v-7.9c0-.6 0-1.5.1-2 .2-1.7.9-3.2 2-4.4.6-.6 1.8-1.3 2.5-1.8l5.9-3.5c1.9-1.1 3-3.1 3-5.3v-4.3" class="st0"/>
        <path d="M411.2 1771.2c-.5-.4-1.1-.4-1.5 0-1.4 1.2-5.1.7-7.1.7l-.1.6v6.8c0 3.8 2.7 7.9 6 7.9s6-4.1 6-7.9v-6.6c-1.2-.3-2.4-.7-3.3-1.5zM396.1 1813.5v-4.5M411.2 1804.1c-2.8.8-5.8.2-8.1-1.6s-3.6-4.6-3.5-7.5M444.6 1780.3v7l13.4 7.5c2.7 1.5 4.4 4.4 4.4 7.5v11.2h-51v-11c0-3.2 1.8-6.2 4.6-7.8l13.2-7.4v-7" class="st0"/>
        <path d="M432.3 1756.1c-3.2 0-5.8 2.5-5.8 5.6V1773.6c0 5.6 4.7 10.1 10.5 10.1s10.5-4.5 10.5-10.1v-6.7-.1V1759.4c-.5-3.5-2.2-6-5.8-5.9-.1 1.6-1.9 2.5-3.5 2.6h-5.9z" class="st0"/>
        <path d="M426.8 1769.1c1.3 0 4.8-3.2 5.1-4.3 3.6 6.1 12.3.1 15.2 5.1M437 1814.6v-17.3l-2.8-2.7-5.5 2.7c-1 .4-2-.4-1.9-1.4l2.4-8.7c.9 2.7 2.9 5.3 5 7.5M437 1814.6v-17.3l2.9-2.7 5.8 2.7c1 .4 2.1-.4 2-1.4 0 0-2.7-8.3-2.5-8.7-1.3 2-2.1 4.8-5.2 7.4M420.5 1812.9v-8.1M453.5 1812.9v-8.1" class="st0"/>
        <ellipse cx="443" cy="1803" class="st0" rx="1.5" ry="1.5"/>
        <ellipse cx="443" cy="1809" class="st0" rx="1.5" ry="1.5"/>
    </g>
</svg>
