<?xml version="1.0" encoding="iso-8859-1"?>
<!-- Generator: Adobe Illustrator 19.0.0, SVG Export Plug-In . SVG Version: 6.00 Build 0)  -->
<svg version="1.1" id="Capa_1" xmlns="http://www.w3.org/2000/svg" xmlns:xlink="http://www.w3.org/1999/xlink" x="0px" y="0px"
	 viewBox="0 0 512 512" style="enable-background:new 0 0 512 512;" xml:space="preserve">
<g>
	<g>
		<g>
			<path d="M280.11,201.242c-9.448,7.085-16.371,19.291-18.066,31.854c-1.686,12.492,1.681,24.593,9.738,34.994
				c1.478,1.908,3.694,2.907,5.935,2.907c1.604,0,3.221-0.513,4.587-1.57c3.274-2.537,3.873-7.247,1.336-10.522
				c-5.619-7.255-7.884-15.263-6.731-23.802c1.409-10.438,7.453-18.3,12.2-21.86c3.314-2.485,3.986-7.186,1.501-10.5
				C288.125,199.427,283.422,198.757,280.11,201.242z"/>
			<path d="M104.347,174.667c26.298,0,47.692-21.395,47.692-47.692c0-26.298-21.395-47.692-47.692-47.692
				c-26.298,0-47.693,21.394-47.693,47.692C56.654,153.273,78.049,174.667,104.347,174.667z M104.347,94.283
				c18.027,0,32.692,14.666,32.692,32.692s-14.666,32.692-32.692,32.692c-18.027,0-32.693-14.666-32.693-32.692
				S86.32,94.283,104.347,94.283z"/>
			<path d="M263.216,282.05l-0.164-0.453c-1.41-3.895-5.71-5.909-9.605-4.5c-3.895,1.41-5.909,5.711-4.499,9.605l0.162,0.448
				c4.933,13.643,15.198,42.033,60.279,42.033c4.142,0,7.5-3.358,7.5-7.5c0-4.143-3.358-7.5-7.5-7.5
				C274.835,314.185,267.843,294.847,263.216,282.05z"/>
			<path d="M200.712,265.01c-0.307,5.362-4.536,17.658-12.977,28.205c-7.196,8.992-19.889,19.712-39.489,19.712
				c-4.142,0-7.5,3.357-7.5,7.5s3.358,7.5,7.5,7.5c25.557,0,41.949-13.78,51.2-25.34c10.462-13.073,15.752-28.198,16.241-36.72
				c0.237-4.135-2.924-7.68-7.059-7.916C204.489,257.698,200.949,260.875,200.712,265.01z"/>
			<path d="M278.944,154.992c-26.584,5.249-65.788,34.602-70.252,76.063c-0.443,4.118,2.536,7.816,6.654,8.26
				c0.273,0.029,0.544,0.044,0.813,0.044c3.782,0,7.034-2.853,7.448-6.698c3.645-33.851,36.752-58.71,58.244-62.952
				c4.064-0.803,6.708-4.747,5.905-8.811C286.952,156.833,283.001,154.188,278.944,154.992z"/>
			<path d="M484.428,284.153H405.57c-21.029,0-37.687-11.527-44.561-30.837c-5.691-15.988-3.9-38.243,12.701-52.414
				c0.834-0.368,1.658-0.76,2.47-1.182c6.173,3.208,13.022,4.885,20.061,4.885c6.236,0,12.397-1.344,18.043-3.913
				c5.646,2.569,11.808,3.913,18.043,3.913c24.034,0,43.588-19.553,43.588-43.587s-19.553-43.588-43.588-43.588
				c-6.236,0-12.397,1.344-18.043,3.913c-4.993-2.272-10.389-3.582-15.884-3.855c-0.794-0.359-1.553-0.677-2.309-0.96
				c-20.963-7.862-43.045-11.849-65.633-11.849c-53.503,0-104.544,22.991-140.037,63.079c-2.746,3.102-2.458,7.841,0.643,10.587
				c1.427,1.264,3.201,1.885,4.969,1.885c2.073,0,4.136-0.854,5.618-2.528c32.648-36.874,79.596-58.022,128.807-58.022
				c3.635,0,7.255,0.119,10.859,0.343c-16.769,6.074-28.785,22.157-28.785,40.996c0,22.488,17.12,41.05,39.011,43.345
				c-9.209,15.689-11.243,35.505-4.665,53.983c8.96,25.171,31.449,40.807,58.692,40.807h78.858c6.932,0,12.572,5.64,12.572,12.572
				v32.314H359.403c-4.142,0-7.5,3.357-7.5,7.5s3.358,7.5,7.5,7.5H497v46.105c0,6.932-5.64,12.571-12.572,12.571H27.572
				c-6.932,0-12.572-5.64-12.572-12.571v-46.105h314.906c4.142,0,7.5-3.357,7.5-7.5s-3.358-7.5-7.5-7.5H15v-32.314
				c0-6.933,5.64-12.572,12.572-12.572h58.232c18.04,0,35.273-5.584,49.837-16.149c14.663-10.637,25.235-25.331,30.573-42.493
				c4.537-14.585,11.025-28.523,19.285-41.43c2.233-3.489,1.215-8.127-2.274-10.36c-3.486-2.23-8.126-1.214-10.36,2.274
				c-8.982,14.035-16.04,29.195-20.975,45.061c-8.948,28.768-35.506,48.098-66.087,48.098H27.572
				C12.369,284.153,0,296.521,0,311.726v93.42c0,15.203,12.369,27.571,27.572,27.571h456.856c15.203,0,27.572-12.368,27.572-27.571
				v-93.42C512,296.521,499.631,284.153,484.428,284.153z M327.532,161.018c0-15.764,12.824-28.588,28.587-28.588
				c5.687,0,11.18,1.667,15.885,4.819c2.525,1.693,5.823,1.693,8.349,0c4.692-3.143,10.166-4.807,15.834-4.817
				c0.109,0.005,0.218,0.009,0.328,0.011c0.023,0,0.046-0.002,0.069-0.001c4.896,0.059,9.711,1.371,13.943,3.82
				c2.323,1.346,5.189,1.346,7.513,0c4.332-2.506,9.272-3.831,14.287-3.831c15.763,0,28.588,12.824,28.588,28.588
				c0,15.763-12.824,28.587-28.588,28.587c-5.015,0-9.955-1.325-14.287-3.831c-1.162-0.673-2.459-1.009-3.756-1.009
				s-2.595,0.336-3.756,1.009c-4.332,2.506-9.272,3.831-14.287,3.831c-5.686,0-11.18-1.667-15.887-4.819
				c-2.525-1.693-5.823-1.693-8.349,0c-1.596,1.069-3.288,1.953-5.042,2.673c-0.011,0.004-0.021,0.009-0.032,0.014
				c-3.408,1.395-7.065,2.132-10.811,2.132C340.356,189.604,327.532,176.781,327.532,161.018z"/>
			<circle cx="427.506" cy="378.596" r="7.273"/>
			<path d="M407.216,329.185c4.142,0,7.5-3.358,7.5-7.5c0-4.143-3.358-7.5-7.5-7.5h-43.849c-4.142,0-7.5,3.357-7.5,7.5
				c0,4.142,3.358,7.5,7.5,7.5H407.216z"/>
			<circle cx="364.674" cy="402.433" r="7.273"/>
			<circle cx="179.959" cy="399.56" r="7.273"/>
			<circle cx="289.736" cy="381.105" r="7.273"/>
			<circle cx="78.795" cy="381.105" r="7.273"/>
			<path d="M71.522,312.927c-4.142,0-7.5,3.357-7.5,7.5s3.358,7.5,7.5,7.5h43.849c4.142,0,7.5-3.357,7.5-7.5s-3.358-7.5-7.5-7.5
				H71.522z"/>
		</g>
	</g>
</g>
<g>
</g>
<g>
</g>
<g>
</g>
<g>
</g>
<g>
</g>
<g>
</g>
<g>
</g>
<g>
</g>
<g>
</g>
<g>
</g>
<g>
</g>
<g>
</g>
<g>
</g>
<g>
</g>
<g>
</g>
</svg>
