<?xml version="1.0" standalone="no"?> 
<!DOCTYPE svg PUBLIC "-//W3C//DTD SVG 1.1//EN" "http://www.w3.org/Graphics/SVG/1.1/DTD/svg11.dtd" >
<svg xmlns="http://www.w3.org/2000/svg">
<defs>
  <font id="optus-icons" horiz-adv-x="512">
    <font-face font-family="optus-icons"
      units-per-em="512" ascent="512"
      descent="0" />
    <missing-glyph horiz-adv-x="0" />
    <glyph glyph-name="3g4g"
      unicode="&#xE001;"
      horiz-adv-x="512" d=" M138.3 311.4C119.5 311.4 100.6 319.2000000000001 88.3 332.6L67.7 311.2C82.9 292.5 108.2 281.6 139 281.6C176.6 281.6 212.2 301.1 212.2 341.5C212.2 364.1 197.7 381 176 389.6C195.1 398.5 207.5 414.6 207.5 436.6C207.5 472.3 179.2 495.8 137.1 495.8C104.6 495.8 81.9 481.8 70.1 463.3L93.2 443.6C101.2 455.1 115.7 465.9 135.1 465.9C156.6 465.9 174.2 454.8 174.2 435C174.2 414.3 156.1 404.2 133.8 404.2H108.9V374.8H133.9C158.6 374.8 178.7 363.8 178.7 343C178.7 321.7 160.9 311.4 138.3 311.4z M342.5 281.4C406.6 281.4 444.3 330.7 444.3 390.2C444.3 392.9 444.1 395.5 444 398.2H352.9V367.1H407.8C402.5 332.9 380.3 313.4 342.6 313.4C301.8 313.4 270.7 344 270.7 388.7C270.7 433.4 301.8 464 344.0999999999999 464C367.2 464 386.7 454.4 399.7 438.8L424.3 462.6C405.5 483.6 377.1 495.9999999999999 344.1 495.9999999999999C281.2 495.9999999999999 235.6 450.9 235.6 388.6C235.5 319.6 289.1 281.4 342.5 281.4z M190.5 146L158.4 146L158.4 90.4L104.5 90.4L179.9 226.5L143.4 226.5L65.9 84.6L65.9 59.9L158.4 59.9L158.4 19.6L190.5 19.6L190.5 59.9L222.2 59.9L222.2 90.4L190.5 90.4z M445.8 132.7H354.7000000000001V101.6H409.6C404.3 67.4 382.1 47.9 344.4000000000001 47.9C303.6 47.9 272.5 78.5 272.5 123.2C272.5 167.9 303.6 198.5 345.9 198.5C369 198.5 388.5 188.9 401.5 173.3L426.1 197.1C407.3 218.1 378.9000000000001 230.5 345.9000000000001 230.5C283.0000000000001 230.5 237.4000000000001 185.4 237.4000000000001 123.1C237.4000000000001 54 290.9000000000001 15.8 344.4000000000001 15.8C408.5 15.8 446.2000000000001 65.1 446.2000000000001 124.6C446.1 127.3 445.9 130 445.8 132.7z" />
    <glyph glyph-name="4g"
      unicode="&#xE002;"
      horiz-adv-x="512" d=" M167.2 283.1L133.6 283.1L133.6 206.4L45.6 206.4L148 396.8L109.6 396.8L4 199.9L4 174.4L133.6 174.4L133.6 116.8L167.2 116.8L167.2 174.4L213.6 174.4L213.6 206.4L167.2 206.4z M386.4 265.6V233.6H469.6C464.8 179.2000000000001 429.6 145.6 372 145.6C311.2 145.6 264.8 190.4 264.8 256C264.8 321.6 312.8 366.4000000000001 373.6 366.4000000000001C408.8 366.4000000000001 437.6 352 456.8 329.6L482.4 355.2000000000001C456.8 384 418.4000000000001 401.6 373.6 400C290.4000000000001 400 228.0000000000001 340.8 228.0000000000001 256C228.0000000000001 164.8 298.4000000000001 112 372 112C456.8 112 508 176 508 257.6C508 259.2 508 262.4 508 265.6H386.4z" />
    <glyph glyph-name="4gplus-stacked"
      unicode="&#xE003;"
      horiz-adv-x="512" d=" M24.1 79.6V21H0V170.2H57.9C92.3 170.2 110.7 152.8 110.7 124.9C110.7 97 92.3 79.6 57.9 79.6H24.1zM24.1 147.5V102.3H57.2C76.7 102.3 85.6 109.5 85.6 124.9S76.6 147.5000000000001 57.2 147.5000000000001H24.1z M237 21H130.4V170.2H154.5V43.8H237V21z M372.6 79.9C372.6 38.5 344.6 18.4 309.3 18.4C274 18.4 246 38.4 246 79.9V170.2H270.1V81.7C270.1 53.3 286.2000000000001 41.5 309.3 41.5C332.4000000000001 41.5 348.5 53.2 348.5 81.7V170.2H372.6V79.9z M498 137.2C485.3 145.3 471.3 150 456.1 150C436.2000000000001 150 422.5 141.4 422.5 127.7C422.5 115.3 434.1 110.5 453.5 107.8L463.8 106.4C488 103.1 511.9 93.1 511.9 65.4C511.9 35.0000000000001 484.4 18.4 452.1 18.4C431.9000000000001 18.4 407.6 25.1 392.1 38.4L405.2000000000001 57.6C415.4000000000001 48.2 434.7000000000001 41.2 452.0000000000001 41.2C471.5000000000001 41.2 486.8000000000001 49.5000000000001 486.8000000000001 63.3000000000001C486.8000000000001 75.0000000000001 475.1000000000001 80.5000000000001 453.2 83.4000000000001L441.6 85.0000000000001C419.4000000000001 88.1000000000001 397.4000000000001 98.5000000000001 397.4000000000001 126.2000000000001C397.4000000000001 156.1000000000001 423.9000000000001 172.8000000000001 456.2 172.8000000000001C477.9 172.8000000000001 495.1 166.7000000000001 510.1 156.7000000000001L498 137.2z M167.3 299.5H213.8V267.5H167.3V209.8H133.5V267.5H4.3V293.5L108.8 489H147.2L44.9 299.5H133.6V376.8H167.4V299.5z M481.3 447.3L455.5 422.3C436.1 445.5 406.8 459.9 373 459.9C311.5 459.9 265 415.3 265 349.6C265 283.9 311.5 239.3 371.5 239.3C428.6 239.3 463.8 272.5 469.2 327.2000000000001H385.3V360H507.4C507.6 357 507.8 354 507.8 351.2C507.8 269.9 456.3 205.8 371.6 205.8C298.3 205.8 228.4 258.3 228.4 349.6C228.4 433.7 290.1 493.6 373.2 493.6C417.4 493.6 456 476.2 481.3 447.3z" />
    <glyph glyph-name="4gplus"
      unicode="&#xE004;"
      horiz-adv-x="512" d=" M46.9 239.8H62.5V229.4000000000001H46.9V208.6H36.5V229.4000000000001H0V237.8L34.3 302.1H46.9L13.3 239.8H36.4V265.8H46.8V239.8z M152.8 289.6L144.3 281.4C137.9 289 128.3 293.7000000000001 117.2 293.7000000000001C97 293.7000000000001 81.7 279.1 81.7 257.5S97 221.3 116.7 221.3C135.5 221.3 147 232.2 148.8 250.2H121.7V260.7H161.3C161.4 259.7 161.4 259 161.4 258.1C161.4 231.4 144.5 210.3 116.6 210.3C92.5 210.3 69.5 227.6 69.5 257.6C69.5 285.2000000000001 89.8 304.9000000000001 117.1 304.9000000000001C131.8 304.8 144.5 299.1 152.8 289.6z M204.9 246V208.5H193.1V302.1H228.7C249.8 302.1 261.8 291.5 261.8 274S249.8 245.9 228.7 245.9H204.9zM204.9 291.1V257.1H228.4C242.2 257.1 249.5 262.7 249.5 274.1C249.5 285.5 242.2 291.1 228.4 291.1H204.9z M340.1 208.5H274.7000000000001V302.1H286.5000000000001V219.6H340.1000000000001V208.5z M424.5 245.2C424.5 219.6 407.2 207.1 385.6 207.1C364 207.1 346.7000000000001 219.6 346.7000000000001 245.2V302.1H358.5000000000001V246.1C358.5000000000001 226.9000000000001 369.9000000000001 218.5 385.6000000000001 218.5C401.3000000000001 218.5 412.6000000000001 226.9 412.6000000000001 246.1V302.1H424.4000000000001V245.2z M504.4 283.7C496.8 288.9 487.5 292.3 476.6 292.3C462.9 292.3 453.1 286.1 453.1 276C453.1 267.5 460.3 263.2 474.3 261.4L482.4999999999999 260.4C498.3999999999999 258.5 511.8999999999999 252 511.8999999999999 235.5C511.8999999999999 216.8 494.9999999999999 207.1 474.6999999999999 207.1C461.3999999999999 207.1 446.8 211.7000000000001 437.8 219.3L444.2 228.7C450.6999999999999 223.1 462.8 218.3 474.6999999999999 218.3C488.6999999999999 218.3 499.5999999999999 224 499.5999999999999 234.6C499.5999999999999 243.3 491.7999999999999 247.4000000000001 477.1999999999999 249.2000000000001L468.4999999999999 250.3000000000001C452.9999999999999 252.2000000000001 440.7 259.3000000000001 440.7 275.3000000000001C440.7 293.4000000000001 456.8 303.5000000000001 476.4999999999999 303.5000000000001C490.6 303.5000000000001 501.3999999999999 299.4000000000001 510.1999999999999 293.3000000000001L504.4 283.7z" />
    <glyph glyph-name="activate-service"
      unicode="&#xE005;"
      horiz-adv-x="512" d=" M282.4 308.8V360C303.2 374.4 314.4 398.4 314.4 424C314.4 468.8 279.2 504 234.4 504S154.4 468.8 154.4 424C154.4 398.4 167.2 374.4 186.4 360V254.4H138.4L88.8 147.2L162.4 8H368.8L423.2 248L282.4 308.8zM234.4 472C261.6 472 282.4 451.2 282.4 424C282.4 417.6 280.8 412.8 279.2 406.4C272.8 422.4 255.2 433.6 234.4 433.6S196 422.4 189.6 406.4C188 412.8 186.4 417.6 186.4 424C186.4 451.2 207.2 472 234.4 472zM343.2 40H181.6L124 147.2L157.6 222.4H186.4V152H218.4V392C218.4 396.8 224.8 401.6 234.4 401.6S250.4 396.8 250.4 392V216H282.4V273.6L384.8 228.8L343.2 40z" />
    <glyph glyph-name="add-a-second-plan"
      unicode="&#xE006;"
      horiz-adv-x="512" d=" M353.6 512C312.4000000000001 512 277.2000000000001 489.2 259.5 455.4H54.1V0H403.3V311.6C437.1 329.3 460 364.5 460 405.8C459.9 464.9 412.8 512 353.6 512zM372.9 30.4H84.4V425.1H249.2C248.1 418.8 247.4 412.4 247.4 405.8C247.4 370.1 264.6 339 291.1 319.7H130.2V289.3H328.1V302.7C336.3 300.7 344.8 299.5 353.7000000000001 299.5C360.3000000000001 299.5 366.7000000000001 300.2 373.0000000000001 301.3V30.4zM403.2 348.3C394.6 340.9 384.3 335.4 372.9 332.5C366.7 330.9 360.4 329.8 353.6 329.8C311.1 329.8 277.7 363.2000000000001 277.7 405.7000000000001C277.7 412.5 278.8 418.8 280.3999999999999 425C283.2999999999999 436.5 288.7999999999999 446.8 296.2 455.4C310 471.4 330.3 481.6 353.5 481.6C396 481.6 429.4 448.2000000000001 429.4 405.7C429.6 382.4 419.3 362.1 403.2 348.3z M130.2 243.6H328.1V213.2000000000001H130.2V243.6z M130.2 167.4H328.1V137H130.2V167.4z M369.7 453.7L337.7 453.7L337.7 421.7L305.7 421.7L305.7 389.7L337.7 389.7L337.7 357.7L369.7 357.7L369.7 389.7L401.7 389.7L401.7 421.7L369.7 421.7z" />
    <glyph glyph-name="addons-purchases"
      unicode="&#xE007;"
      horiz-adv-x="512" d=" M96 48C96 30.3268880054146 110.3268880054146 16 128 16C145.6731119945854 16 160 30.3268880054146 160 48C160 65.6731119945854 145.6731119945854 80 128 80C110.3268880054146 80 96 65.6731119945854 96 48z M352 48C352 30.3268880054146 366.3268880054146 16 384 16C401.6731119945854 16 416 30.3268880054146 416 48C416 65.6731119945854 401.6731119945854 80 384 80C366.3268880054146 80 352 65.6731119945854 352 48z M400 496C337.6 496 288 446.4 288 384C288 366.4 291.2 350.4 299.2 336H94.4L83.2 400H0V368H56L102.4 128H424L452.8 284.8C488 304 512 340.8 512 384C512 446.4 462.4 496 400 496zM398.4 160H129.6L100.8 304H321.6C342.4000000000001 284.8 369.6 272 400 272C406.4 272 412.8 272 419.2 273.6L398.4 160zM400 304C355.2 304 320 339.2 320 384S355.2 464 400 464S480 428.8 480 384S444.8 304 400 304z M416 432L384 432L384 400L352 400L352 368L384 368L384 336L416 336L416 368L448 368L448 400L416 400z" />
    <glyph glyph-name="address-book"
      unicode="&#xE008;"
      horiz-adv-x="512" d=" M464 336H432V496H48V16H432V176H464V336zM400 48H80V464H400V336H240V176H400V48zM432 208H272V304H432V208z M304 256C304 242.745166004061 314.745166004061 232 328 232C341.2548339959391 232 352 242.745166004061 352 256C352 269.2548339959391 341.2548339959391 280 328 280C314.745166004061 280 304 269.2548339959391 304 256z" />
    <glyph glyph-name="aeroplane"
      unicode="&#xE009;"
      horiz-adv-x="512" d=" M491.9 431.3C492.9 447.1 488.3 460.8 478.2 472.2C477.3 473.3 476.2 474.1 475 474.9C474.3 476.1 473.4 477.2 472.3 478.1C460.9 488.2 447.3 492.8 431.4000000000001 491.8C395.1 489.5 350.3000000000001 457.5 294.5 394C241 406.6 105.3 438.3 90.5 438.3C69.7 438.4 24 415 20.1 387.8C18.3 375.2 16.3 360.9 182 279.2C175.1 263.7 145.5 229.1 132.6 222.7C129.2 221.6 117 226.1 109.8 228.8C89 236.5 57.5 248.1 38 220.7C9.8 181.2 42.7 156.9 66.7 139.3C77.9 131.1 89.4 122.6 99 111.4999999999999L112.3 98.1999999999999C122.6 89.3 131.1 77.6999999999999 139.3 66.4999999999999C152.1 48.9999999999999 168.4 26.8999999999999 191.5 26.8999999999999C200.2 26.8999999999999 209.9 29.9999999999999 220.7 37.7999999999999C248.1 57.2999999999999 236.5 88.7999999999999 228.8 109.5999999999999C226.1 116.8999999999999 221.6 128.9999999999999 222.7 132.2999999999999C229.2 145.2999999999999 263.8 174.8999999999999 279.2 181.7999999999999C352.4 33.3999999999999 371.5 19.4999999999999 383.7 19.4999999999999C385.1 19.4999999999999 386.5 19.6999999999999 387.8 19.8999999999999C415 23.7999999999998 438.4000000000001 69.4999999999999 438.4000000000001 90.2999999999998C438.4000000000001 105.1999999999998 406.7000000000001 240.7999999999999 394.1 294.2999999999999C457.6 350.2999999999999 489.6 394.9999999999999 491.9 431.2999999999999zM373.6 314.7C370.7000000000001 312.2 368.8 310.4 368 309.6C364.5 306.1 363 301 364.2 296.1C381.5 223.1 409.1 102.7 409.7 90.3C409.7 80.1 395.7 56.1999999999999 386.9 49.9C379.8 57.4 358.6 86.1 304.5 195.7L301.8 201.2C301.8 201.2 301.8 201.2 301.8 201.2S301.8 201.2 301.8 201.2V201.2C301.8 201.2 301.8 201.2 301.8 201.3C298.4000000000001 208 291.7 212 283.7 212C258.3 212 207 165 197.1 145.1C190.2 131.3 196.2 115.1 202 99.5C210.6 76.2 212.2 66.9 204.2 61.1C189.7 50.8 184.7 53.5 162.7 83.5C154 95.4 144.1 108.8 132.1 119.1L120 131.1C109 143.8 95.5 153.7000000000001 83.7 162.4C53.8 184.4 51 189.5000000000001 61.3 203.9C67.1 212.0000000000001 76.3 210.3 99.7 201.7000000000001C115.3 195.9 131.5 189.9 145.3 196.8000000000001C165.2 206.8000000000001 212.2 258.0000000000001 212.2 283.4000000000001C212.2 291.4000000000001 208.2 298.2000000000001 201.4 301.6L196.3 304.1C86.4 358.4000000000001 57.6 379.7000000000001 50.1 386.8000000000001C56.4 395.6 80.2 409.6 90.3 409.6C102.8 409.0000000000001 223.3 381.4000000000001 296.3 364.1C301.1 363.0000000000001 306.2 364.4000000000001 309.8 367.9000000000001C310.6 368.7000000000001 312.4000000000001 370.7000000000001 314.9000000000001 373.6C377.7000000000001 445.4000000000001 414 461.9 433.3000000000001 463.1C441.2000000000001 463.6 447.7000000000001 461.5000000000001 453.3000000000001 456.6C453.9000000000001 456.1 454.6000000000001 455.6 455.2 455.2C455.6 454.5000000000001 456.1 453.8000000000001 456.7 453.2C461.7 447.6 463.7 441.3000000000001 463.2 433.2000000000001C461.9 413.8000000000001 445.4000000000001 377.5000000000001 373.6 314.7000000000001z" />
    <glyph glyph-name="android"
      unicode="&#xE00A;"
      horiz-adv-x="512" d=" M345.6 426.4L364.8 471.2L336 484L318.4 445.6C299.2 455.2 278.4 460 256 460C232 460 208 453.6 188.8 442.4L171.2 484L140.8 471.2L161.6 423.2C136 399.2 120 364 120 327.2V76H184V28H216V76H296V28H328V76H392V327.2C392 367.2 374.4 402.4 345.6 426.4zM360 108H152V314.4H360V108zM153.6 346.4C163.2 392.8 206.4 428 256 428S348.8 392.8 358.4 346.4H153.6z M192 376.8C192 367.079788402978 199.879788402978 359.2000000000001 209.6 359.2000000000001C219.320211597022 359.2000000000001 227.2 367.079788402978 227.2 376.8C227.2 386.520211597022 219.320211597022 394.4 209.6 394.4C199.879788402978 394.4 192 386.520211597022 192 376.8z M280 376.8C280 367.079788402978 287.8797884029781 359.2000000000001 297.6 359.2000000000001C307.320211597022 359.2000000000001 315.2000000000001 367.079788402978 315.2000000000001 376.8C315.2000000000001 386.520211597022 307.320211597022 394.4 297.6 394.4C287.8797884029781 394.4 280 386.520211597022 280 376.8z M408 316H440V156H408V316z M72 316H104V156H72V316z" />
    <glyph glyph-name="apple"
      unicode="&#xE00B;"
      horiz-adv-x="512" d=" M324.8 414.4C342.4000000000001 433.6 352 459.2 350.4000000000001 486.4C326.4000000000001 486.4 297.6 472 280 451.2C265.6 433.6 251.2 406.4 256 380.8C281.6 377.6 308.8 393.6 324.8 414.4z M184 344C195.2 344 206.4 339.2 217.6 334.4C230.4 329.6 243.2 323.2000000000001 259.2 323.2000000000001C272 323.2000000000001 284.8 328 299.2 332.8C315.2 337.6 332.8 344 348.8 344C355.2 344 372.8 342.4 388.8 332.8C368 310.4 352 280 352 241.6L352 241.6L352 241.6C353.6 190.4 382.4 155.2000000000001 408 136C403.2 126.4 396.8 115.2 388.8 102.4L388.8 102.4L388.8 102.4C371.2 75.2 356.8 59.2 342.4000000000001 59.2C334.4000000000001 59.2 329.6 60.8 320.0000000000001 65.6C307.2000000000001 70.4 291.2000000000001 78.4 265.6000000000001 78.4C238.4000000000001 78.4 220.8000000000001 70.4 208.0000000000001 65.6C198.4000000000001 62.4 193.6000000000001 59.2 187.2000000000001 59.2C171.2000000000001 59.2 155.2000000000001 80 137.6000000000001 104C120 129.6 96 180.8 96 235.2C96 260.8 100.8 283.2 112 300.8C126.4 326.4 153.6 342.4 184 344L184 344M184 376H182.4C142.4 376 105.6 352 84.8 318.4C68.8 292.8 64 264 64 233.6C64 177.6 86.4 120 113.6 83.2000000000001C134.4 54.4 156.8 25.6 188.8 25.6C217.6 25.6 228.8 44.8 265.6 44.8C300.8 44.8 312 25.6 342.4000000000001 25.6C374.4000000000001 25.6 395.2000000000001 54.4 414.4000000000001 83.2000000000001C438.4000000000001 116.8000000000001 446.4000000000001 147.2000000000001 448.0000000000001 148.8000000000001C446.4000000000001 148.8000000000001 385.6000000000001 172.8000000000001 384.0000000000001 241.6000000000001C384.0000000000001 302.4000000000001 433.6000000000001 329.6000000000001 435.2000000000001 329.6000000000001C408.0000000000001 371.2000000000001 364.8000000000001 376.0000000000001 347.2000000000001 376.0000000000001C308.8000000000001 376.0000000000001 275.2000000000001 355.2000000000001 257.6 355.2000000000001C240 355.2 214.4 376 184 376L184 376z" />
    <glyph glyph-name="arrow-down-right-organic-small"
      unicode="&#xE00C;"
      horiz-adv-x="512" d=" M144 196.8L166.4 219.2L240 147.2L240 427.2L272 427.2L272 145.6L345.6 219.2L368 196.8L256 84.8z" />
    <glyph glyph-name="arrow-down"
      unicode="&#xE00D;"
      horiz-adv-x="512" d=" M256 190.7L148.7 298L171.3 320.6L256 235.9L340.7 320.6L363.3 298z" />
    <glyph glyph-name="arrow-left-organic"
      unicode="&#xE00E;"
      horiz-adv-x="512" d=" M147.2 272L219.2 345.6L196.8 368L84.8 256L196.8 144L219.2 166.4L145.6 240L427.2 240L427.2 272z" />
    <glyph glyph-name="arrow-left"
      unicode="&#xE00F;"
      horiz-adv-x="512" d=" M191 256L298.3 363.3L321 340.7L236.3 256L321 171.3L298.3 148.7z" />
    <glyph glyph-name="arrow-right-organic"
      unicode="&#xE010;"
      horiz-adv-x="512" d=" M315.2 368L292.8 345.6L364.8 272L84.8 272L84.8 240L366.4 240L292.8 166.4L315.2 144L427.2 256z" />
    <glyph glyph-name="arrow-right"
      unicode="&#xE011;"
      horiz-adv-x="512" d=" M321 256L213.7 148.7L191 171.3L275.7 256L191 340.7L213.7 363.3z" />
    <glyph glyph-name="arrow-up-left-organic-small"
      unicode="&#xE012;"
      horiz-adv-x="512" d=" M147.2 272L219.2 345.6L196.8 368L84.8 256L196.8 144L219.2 166.4L145.6 240L427.2 240L427.2 272z" />
    <glyph glyph-name="arrow-up"
      unicode="&#xE013;"
      horiz-adv-x="512" d=" M256 321L363.3 213.7L340.7 191L256 275.7L171.3 191L148.7 213.7z" />
    <glyph glyph-name="australia-map-outline"
      unicode="&#xE014;"
      horiz-adv-x="512" d=" M428 112H359.2C354.4 112 349.6 115.2 346.4 118.4L282.4 214.4H191.2L74.4 147.2C69.6 144 64.8 144 60 145.6C55.2 147.2 52 152 50.4 156.8L15.2 278.4C15.2 280 15.2 281.6 15.2 283.2000000000001V334.4000000000001C15.2 339.2000000000001 16.8 344 21.6 347.2000000000001L120.8 430.4000000000001L138.4 478.4C138.4 483.2 144.8 488.0000000000001 151.2 488.0000000000001H237.6C242.4000000000001 488.0000000000001 245.6 486.4 248.8 483.2L312.8 419.2000000000001H330.4000000000001L360.8 478.4C364 484.8000000000001 368.8 488.0000000000001 375.2 488.0000000000001S386.4 486.4 389.6 481.6L493.6 326.4000000000001C495.2 323.2000000000001 496.8 320.0000000000001 496.8 316.8000000000001V248C496.8 246.4 496.8 243.2 495.1999999999999 241.6L444 121.6C439.2 116.8 434.5 112 428 112zM367.2 144H416.8L463.2 251.2V312L378.5 440L356.1 395.2C352.9000000000001 390.4 348.1 385.6 341.7000000000001 385.6H306.5000000000001C301.7000000000001 385.6 298.5000000000001 387.2 295.3000000000001 390.4L231.3000000000001 454.4H162.5000000000001L148.1000000000001 414.4C148.1000000000001 412.8 146.5000000000001 409.6 143.3000000000001 408L47.3 326.4V284.8L76.1 185.6L178.5000000000001 244.8C181.7000000000001 246.4000000000001 183.3000000000001 246.4000000000001 186.5000000000001 246.4000000000001H290.5000000000001C295.3000000000001 246.4000000000001 300.1000000000001 243.2000000000001 303.3000000000001 240.0000000000001L367.2 144z M359.2 75.2L428 75.2L392.9 24z" />
    <glyph glyph-name="backup-storage"
      unicode="&#xE015;"
      horiz-adv-x="512" d=" M396.8 358.4C374.4000000000001 358.4 353.6 352 336 340.8C320 380.8 284.8 416 228.8 416C200 416 172.8 403.2000000000001 152 379.2000000000001C136 358.4 126.4 332.8 124.8 308.8C94.4 308.8 64 297.6 44.8 280C27.2 264 19.2 244.8 19.2 222.4C19.2 172.8 60.8 150.4 83.2 144H206.4V176H89.6C81.6 179.2 51.2 190.4 51.2 222.4C51.2 235.2 56 246.4 67.2 256C83.2 270.4 113.6 278.4 140.8 275.2L161.6 273.6L156.8 294.4C153.6 313.6 161.6 339.2 177.6 358.4C192 374.4 209.6 384 228.8 384C275.2 384 302.4 347.2 308.8 312L313.6 283.2L336 302.4C353.6 318.4 372.8 326.4 395.2 326.4C422.4 326.4 459.2 297.6 459.2 251.2C459.2 204.8 417.6 176 387.2 176H268.8V144H388.8C438.4000000000001 144 492.8 188.8 492.8 251.2C492.8 313.6 441.6 358.4 396.8 358.4z M316.8 228.8L236.8 307.2L158.4 228.8L180.8 206.4L220.8 246.4L220.8 96L252.8 96L252.8 246.4L294.4 206.4z" />
    <glyph glyph-name="banking-finance"
      unicode="&#xE016;"
      horiz-adv-x="512" d=" M250 367.1C289 367.1 320.7 398.2 320.7 436.4S289 505.7 250 505.7C211 505.7 179.3 474.6 179.3 436.4S211 367.1 250 367.1zM250 473.7C271.3 473.7 288.7 457 288.7 436.4S271.4 399.1 250 399.1S211.3 415.8 211.3 436.4S228.7 473.7 250 473.7z M458 288.3H444.6C436.3 311.5 422.9000000000001 332.8 405.6 351C403.7000000000001 364.1 401.9000000000001 379.6 400.6 398.3C399.5 413 399.1 418.3 397.6 422.4C393.2000000000001 434.9 386.4000000000001 440.3 376.9000000000001 440.4C366.3 440.4 360.6 434.4 357.6 415C356.4000000000001 407.1 353.6 399.5 349.9000000000001 392.2C347.7000000000001 387.8 345.3 383.5 342.6 379.4C339.4000000000001 374.5 335.7000000000001 370 331.7000000000001 365.7000000000001C330.4000000000001 364.3 328.9000000000001 362.9 327.5000000000001 361.5C323.6000000000001 357.7000000000001 319.5000000000001 353.9000000000001 314.8000000000001 350.5C308.0000000000001 345.6 300.5000000000001 341.5 291.8000000000001 337.9000000000001L290.3000000000001 337.3000000000001C286.4000000000001 335.8000000000001 282.3000000000001 334.4000000000001 277.6000000000001 333.2000000000001C273.8000000000001 332.2000000000001 269.9000000000001 331.5000000000001 265.9000000000001 331.0000000000001L262.7000000000001 330.6C258.5000000000001 330.1 254.2000000000001 329.8000000000001 249.8000000000001 329.8000000000001C211.1000000000001 329.8000000000001 174.8000000000001 350.1 155.1000000000001 382.7000000000001L147.1000000000001 396.0000000000001L133.6000000000001 388.4000000000001C88 362.5 55.6 322.1 43.3 275.9H6V164.6H52.9C64.7 138.9 82.9 116 106.2 97.5L96.2 22L215.2 6.3L221.2 51.6C237.7 49.8 254.3 49.9 270.8 51.6L276.8 6.5L395.8 22.2L385.8 98C405 113.4 420.9000000000001 131.9 432.4000000000001 152.2H458C484.5 152.2 506 173.7 506 200.2V240.3C506 266.8 484.5 288.3 458 288.3zM474 200.2C474 191.4 466.8 184.2 458 184.2H412.7L408.3 175.2C397.6 153.2 380.6 133.4 359.3 118L351.6 112.4L359.9000000000001 49.7L304.4000000000001 42.4L298.3 88.4L281.8 85.5C258.4000000000001 81.3 234 81.3 210.3 85.4L193.9 88.3L187.8 42.1999999999999L132.3 49.4999999999999L140.6 111.9999999999999L132.8 117.6C107.7 135.7 88.9 159.5 78.6 186.3L74.7 196.6H38V243.9H69.4L71.8 257C78.7 294.9 102.2 329.1 137 352.7C163.6 318.4 205.6 297.7 250 297.7C255.6 297.7 261.1 298.1 266.5 298.7L270.6 299.2C275.7000000000001 299.9 280.7000000000001 300.8 286.4000000000001 302.3C291.7000000000001 303.7 296.9000000000001 305.4 302.0000000000001 307.4L304.6000000000001 308.5C314.9000000000001 312.7 324.7000000000001 318.1 334.2000000000001 324.9C338.7000000000001 328.2 342.9000000000001 331.7 346.9000000000001 335.4C347.5000000000001 336 348.1000000000001 336.6 348.7000000000001 337.2C356.5000000000001 344.6 363.5000000000001 352.8 369.4000000000001 361.8C370.0000000000001 362.8 370.6000000000001 363.7 371.2000000000001 364.7C372.2000000000001 355.3 373.5000000000001 345.6 375.2000000000001 335.9C397.9000000000001 314.7 413.6000000000001 288 419.4000000000001 258.4C423.5000000000001 257.1 427.8000000000001 256.2 432.6000000000001 256.2H452.2000000000001H457.9000000000001C466.7000000000001 256.2 473.9000000000001 249 473.9000000000001 240.2V200.2z M345.8 299.1C331.9000000000001 299.1 321.3 288.2 321.3 274.2C321.3 260.3 331.9000000000001 249.7 345.8 249.7S370.7 260.3 370.7 274.2C370.7 288.2 359.8 299.1 345.8 299.1z" />
    <glyph glyph-name="battery-empty"
      unicode="&#xE017;"
      horiz-adv-x="512" d=" M488 336H424V384H24V128H424V176H488V336zM392 160H56V352H392V336V176V160zM456 208H424V304H456V208z" />
    <glyph glyph-name="battery-full"
      unicode="&#xE018;"
      horiz-adv-x="512" d=" M488 336H424V384H24V128H424V176H488V336zM392 160H56V352H392V336V176V160zM456 208H424V304H456V208z M121.6 336L100.8 336L72 336L72 299.2L72 272L72 246.4L142.4 336z M316.8 176L337.6 176L356.8 176L376 176L376 200L376 227.2L376 252.8z M187.2 336L72 187.2L72 176L104 176L228.8 336z M275.2 336L152 176L192 176L315.2 336z M376 336L361.6 336L238.4 176L278.4 176L376 302.4z" />
    <glyph glyph-name="bell"
      unicode="&#xE019;"
      horiz-adv-x="512" d=" M464.8 56C416.8 108.8 389.6 179.2 389.6 252.8V355.2C389.6 433.6 333.6 500.8 260 504C258.4 504 256.8 504 255.2 504C181.6 504 122.4 440 122.4 361.6V252.8C122.4 179.2000000000001 95.2 108.8 47.2 56L47.2 56H199.2C204 27.2 226.4 8 255.2 8C284 8 306.4 27.2 311.2 56H464.8L464.8 56zM111.2 88C140 137.6 156 195.2 156 252.8V361.6C156 422.4 200.8 472 256.8 472C258.4000000000001 472 258.4000000000001 472 260 472C314.4 470.4 357.6 417.6 357.6 355.2V252.8C357.6 193.6 373.6 136 402.4000000000001 87.9999999999999H111.2z" />
    <glyph glyph-name="bill-settings"
      unicode="&#xE01A;"
      horiz-adv-x="512" d=" M199.2 235.2L212 254.4C199.2 262.4 184.8 268.8 165.6 270.4V291.2H144.8V270.4C117.6 267.2 96.8 251.2 96.8 225.6C96.8 198.4 119.2 187.2 143.2 184H144.8V140.8C128.8 142.4 114.4 148.8 104.8 156.8L92 137.6C104.8 126.4 125.6 120 144.8 118.4V96H164V118.4C191.2 121.6 212 137.6 212 163.2C212 190.4 189.6 201.6 164 204.8V248C176.8 246.4 189.6 241.6 199.2 235.2zM144.8 206.4C128.8 209.6 120.8 214.4 122.4 225.6C122.4 236.8 130.4 243.2 144.8 246.4V206.4zM165.6 179.2C181.6 176 189.6 169.6 189.6 161.6C189.6 150.4 180 144 165.6 140.8V179.2z M463.2 340.8L496.8 350.4L458.4 465.6L423.2 456C416.8 462.4 410.4 467.2 404 470.4V504H279.2V472C272.8 467.2 268 462.4 261.6 457.6L232.8 467.2L204 376H15.2V8H287.2V243.2L314.4 222.4L333.6 248C341.6 246.4 349.6 246.4 357.6 248L376.8 222.4L475.9999999999999 292.8L456.8 318.4C458.4 326.4 461.6 332.8 463.2 340.8zM255.2 40H47.2V344H221.6L226.4 342.4C228 334.4 231.2 328 234.4 320L216.8 294.4L255.2 265.6V40zM432.8 368L431.2 356.8C429.6 345.6 426.4 336 421.6 326.4L416.8 316.8L428 300.8L381.6 267.2000000000001L370.4 283.2000000000001L360.8 281.6C349.6 280 340 280 328.8 281.6L319.2 283.2000000000001L308 267.2000000000001L261.6 300.8L272.8 316.8L268 326.4C263.2 336 260 345.6 258.3999999999999 356.8L256.7999999999999 366.4L237.5999999999999 372.8L255.1999999999999 427.2000000000001L272.7999999999999 419.2000000000001L279.1999999999999 427.2000000000001C287.1999999999999 436.8 295.1999999999999 441.6 303.1999999999999 446.4000000000001L312.7999999999999 451.2V472H373.5999999999999V454.4L384.7999999999999 446.4C392.7999999999999 441.6 402.3999999999999 435.2 408.7999999999999 428.8L415.1999999999999 422.4L439.1999999999999 428.8L456.7999999999999 374.4L432.8 368z M346.4 428.8C312.8 428.8 285.6 401.6 285.6 368C285.6 334.4 312.8 307.2 346.4 307.2C380 307.2 407.2 334.4 407.2 368C407.2 401.6 380 428.8 346.4 428.8zM346.4 339.2C330.4 339.2 317.6 352 317.6 368S330.4 396.8 346.4 396.8S375.2 384 375.2 368S362.4 339.2 346.4 339.2z" />
    <glyph glyph-name="billing"
      unicode="&#xE01B;"
      horiz-adv-x="512" d=" M339.2 496H72V16H440V400L339.2 496zM344 448L395.2 400H344V448zM408 48H104V464H312V368H408V48z M270.4 371.2H246.4V339.2C204.8 334.4 172.8 312 172.8 273.6C171.2 235.2 200 217.6 240 212.8H244.8V136C220.8 137.6 195.2 148.8 180.8 160L164.8 137.6C184 121.6 216 110.4 244.8 108.8V75.2H270.4000000000001V108.8C312.0000000000001 113.6 345.6 136 345.6 176C345.6 214.4 313.6 232 273.6 236.8H270.4000000000001V313.6C292.8 312 312.0000000000001 304 328.0000000000001 292.8L342.4000000000001 316.8C323.2000000000001 329.6 299.2000000000001 339.2000000000001 270.4000000000001 340.8V371.2zM244.8 241.6C214.4 246.4000000000001 200 257.6 200 275.2000000000001C201.6 296 219.2 310.4000000000001 244.8 313.6V241.6zM316.8 174.4C316.8 152 297.6 139.2 270.4000000000001 136V209.6C300.8 204.8 316.8 193.6 316.8 174.4z" />
    <glyph glyph-name="building"
      unicode="&#xE01C;"
      horiz-adv-x="512" d=" M96 416H160V352H96V416z M224 416H288V352H224V416z M352 416H416V352H352V416z M96 288H160V224H96V288z M224 288H288V224H224V288z M352 288H416V224H352V288z M96 160H160V96H96V160z M352 160H416V96H352V160z M32 480V32H224V64V160H288V64V32H480V480H32zM448 64H320V192H192V64H64V448H448V64z" />
    <glyph glyph-name="bundles"
      unicode="&#xE01D;"
      horiz-adv-x="512" d=" M384 367.2C395.2 380 401.6 397.6 401.6 416.8C401.6 460 364.8 496.8 321.6 496.8C294.4000000000001 496.8 270.4000000000001 484 256 463.2C241.6 484 217.6 496.8 192 496.8C147.2 496.8 112 461.6 112 416.8C112 397.6 118.4 380 129.6 367.2H80V15.2H432V367.2H384zM240 47.2H112V175.2H240V47.2zM240 207.2H112V335.2H240V207.2zM240 413.6V368.8H192C164.8 368.8 144 389.6 144 416.8C144 444 164.8 464.8 192 464.8S240 444 240 416.8V413.6zM273.6 413.6V416.8C272 442.4 294.4000000000001 464.8 321.6 464.8C348.8 464.8 369.6 444 369.6 416.8C369.6 389.6 347.2000000000001 368.8 321.6 368.8H273.6V413.6zM400 47.2H272V175.2H400V47.2zM400 207.2H272V335.2H400V207.2z" />
    <glyph glyph-name="business-builder"
      unicode="&#xE01E;"
      horiz-adv-x="512" d=" M93.3 268V30H410.8V480H285.1V374H189.1V268H93.3zM188.9 60H123.2V238H188.9V60zM284.7 60H219V344H284.7V60zM380.7 60H315V450H380.7V60z" />
    <glyph glyph-name="business-care"
      unicode="&#xE01F;"
      horiz-adv-x="586.2595419847329" d=" M408.8549618320611 254.2900763358779A69.04427480916031 69.04427480916031 0 0 1 391.2793893129771 285.5206106870229Q369.7587786259542 305.4534351145038 342.4244274809161 305.4656488549619A65.14809160305344 65.14809160305344 0 0 1 317.2519083969466 300.2137404580153A61.97251908396948 61.97251908396948 0 0 1 295.7312977099237 285.5572519083969L292.0671755725191 281.8931297709924L288.9160305343512 285.5572519083969A68.48244274809161 68.48244274809161 0 0 1 267.1389312977099 300.2137404580153A63.87786259541985 63.87786259541985 0 0 1 241.9541984732824 305.4656488549619A65.73435114503816 65.73435114503816 0 0 1 216.5007633587786 300.2137404580153A61.98473282442748 61.98473282442748 0 0 1 194.9801526717557 285.5572519083969A68.89770992366412 68.89770992366412 0 0 1 177.4045801526718 254.2900763358779A71.37709923664123 71.37709923664123 0 0 1 177.4045801526718 218.8702290076336A65.41679389312978 65.41679389312978 0 0 1 194.9801526717557 187.9083969465649L293.1175572519084 87.1450381679389L391.2549618320611 187.9083969465649A65.55114503816795 65.55114503816795 0 0 1 408.8549618320611 218.8580152671755A71.56030534351146 71.56030534351146 0 0 1 408.8549618320611 254.2900763358779zM378.1496183206108 198.9251908396947L292.0793893129772 110.7541984732824L206.5832061068703 198.9251908396947A50.34503816793894 50.34503816793894 0 0 0 191.3648854961832 235.920610687023A52.103816793893124 52.103816793893124 0 0 0 206.5832061068703 273.4412213740458A46.10687022900763 46.10687022900763 0 0 0 241.7465648854962 288.6595419847329Q263.2549618320611 288.6595419847329 277.4351145038168 273.4412213740458L292.0916030534351 257.6977099236642L307.3099236641222 273.4412213740458Q321.4778625954199 288.6595419847329 342.7297709923664 288.6595419847329T378.1496183206108 273.4412213740458A51.29770992366413 51.29770992366413 0 0 0 392.8061068702291 236.4458015267176A53.12977099236641 53.12977099236641 0 0 0 378.1496183206108 198.9251908396946z M410.381679389313 390.8396946564886V394.7480916030535C410.381679389313 459.236641221374 357.618320610687 512 293.1297709923665 512S175.8778625954199 459.236641221374 175.8778625954199 394.7480916030535V390.8396946564886H0V0H586.2595419847329V390.8396946564886H410.381679389313zM214.9618320610687 394.7480916030535A78.16793893129771 78.16793893129771 0 1 0 371.2977099236641 394.7480916030535V390.8396946564886H214.9618320610687V394.7480916030535zM547.175572519084 39.0839694656489H39.0839694656489V351.7557251908397H547.175572519084V39.0839694656489z M397.0809160305344 291.7862595419848C381.2030534351146 306.5282442748092 362.7847328244275 314.0030534351145 342.4610687022901 314.0030534351145A73.95419847328245 73.95419847328245 0 0 1 313.9786259541985 308.0916030534352A71.3526717557252 71.3526717557252 0 0 1 292.2748091603053 294.1190839694657A77.34961832061069 77.34961832061069 0 0 1 270.4854961832061 308.0671755725191A72.57404580152674 72.57404580152674 0 0 1 213.2030534351145 308.0671755725191A70.65648854961833 70.65648854961833 0 0 1 188.7755725190839 291.4076335877862A77.65496183206108 77.65496183206108 0 0 1 169.0748091603053 256.3541984732824A80.1587786259542 80.1587786259542 0 0 1 169.0748091603053 216.757251908397A74.02748091603054 74.02748091603054 0 0 1 188.824427480916 181.8992366412213L293.0931297709924 74.8458015267175L397.2763358778626 181.8137404580152A74.28396946564887 74.28396946564887 0 0 1 417.1114503816794 216.7572519083968A80.34198473282443 80.34198473282443 0 0 1 417.1114503816794 256.3541984732824H417.1114503816794A77.80152671755727 77.80152671755727 0 0 1 397.4351145038168 291.4198473282443zM371.957251908397 204.824427480916L292.0916030534352 122.9923664122138L212.7022900763359 204.824427480916L212.6045801526718 204.9221374045802A41.74656488549619 41.74656488549619 0 0 0 199.8900763358779 235.8717557251909A43.48091603053436 43.48091603053436 0 0 0 212.7022900763359 267.4564885496184L212.8122137404581 267.5786259541985A37.56946564885497 37.56946564885497 0 0 0 241.7221374045802 280.0732824427481C253.6916030534352 280.0732824427481 263.3160305343512 275.981679389313 271.157251908397 267.5664122137405L291.9938931297711 245.2396946564886L313.4656488549619 267.4564885496183L313.575572519084 267.5664122137405C321.4045801526719 275.969465648855 330.9435114503817 280.0610687022901 342.7419847328245 280.0610687022901S364.0793893129772 275.969465648855 371.9083969465649 267.5664122137405L372.006106870229 267.4564885496183C380.2870229007633 258.9068702290076 384.3053435114504 248.7083969465649 384.3053435114504 236.3969465648855A44.470229007633584 44.470229007633584 0 0 0 371.957251908397 204.824427480916z" />
    <glyph glyph-name="business-portal"
      unicode="&#xE020;"
      horiz-adv-x="512" d=" M352 366.4V369.6C352 422.4 308.8 465.6 256 465.6S160 422.4 160 369.6V366.4H16V46.4H496V366.4H352zM192 369.6C192 404.8 220.8 433.6 256 433.6S320 404.8 320 369.6V366.4H192V369.6zM464 78.4H48V334.4H160H192H320H352H464V78.4z" />
    <glyph glyph-name="business-reports"
      unicode="&#xE021;"
      horiz-adv-x="512" d=" M185.8 294.5H217.5V326.2V460.3V492.6C206.7 490.8 196.1 488.2 185.8 485.1C109.8 461.9 50.1 402.2 27 326.2C23.9 315.9 21.2 305.4 19.5 294.5H51.8H185.8zM185.8 451.7V326.2H60.3C81.2 384.7 127.3 430.8 185.8 451.7z M425.6 425.8C377 474.4 312.5 498.2 249.1 495.9V262.8H16.1C13.8 199.5 37.6 135 86.2 86.4C180.1 -7.5 331.7 -7.5 425.6 86.4C519.5 180.3 519.5 331.9 425.6 425.8zM403 109C321.5 27.5 190.3 27.5 108.8 109C74.9 142.9 55.7 184.8 50 231.2H249.1H280.8V262.9V462C327.2 456.3 369 437.1 403 403.2C484.5 321.7 484.5 190.4 403 109z" />
    <glyph glyph-name="business-sharing"
      unicode="&#xE022;"
      horiz-adv-x="512" d=" M512.1 320.8V416.8L416.3 416.6L416.4000000000001 384.6L456.1 384.7L363 291.5V337.3H258V340.3C258 382.5 223.7 416.8 181.5 416.8C139.3 416.8 105 382.5 105 340.3V337.3H-0.1V95.2000000000001H363V220.5L456.1 127.4L416.4000000000001 127.5L416.3 95.5L512.1 95.3V191.3H480.1V148.7L372.7 256L480.1 363.4V320.8H512.1zM136.9 340.3C136.9 364.8 156.9 384.8 181.4 384.8C205.9 384.8 225.9 364.8 225.9 340.3V337.3H136.8V340.3zM331 127.2H31.9V305.3H331V127.2z" />
    <glyph glyph-name="business-solutions"
      unicode="&#xE023;"
      horiz-adv-x="512" d=" M352 366.4V369.6C352 422.4 308.8 465.6 256 465.6S160 422.4 160 369.6V366.4H16V46.4H496V366.4H352zM192 369.6C192 404.8 220.8 433.6 256 433.6S320 404.8 320 369.6V366.4H192V369.6zM464 78.4H48V334.4H160H192H320H352H464V78.4z" />
    <glyph glyph-name="business-think-tank"
      unicode="&#xE024;"
      horiz-adv-x="512" d=" M160 324.8H192C192 368 227.2 404.8 270.4 404.8V436.8C209.6 436.8 160 387.2 160 324.8z M256 496C163.2 496 88 419.2 88 324.8C88 268.8 115.2 219.2000000000001 160 187.2000000000001V16H352V188.8C396.8 220.8 424 272 424 326.4C424 419.2 348.8 496 256 496zM320 48H192V126.4H320V48zM328 209.6L320 206.4V158.4H192V204.8L184 208C144 233.6 120 276.8 120 324.8C120 401.6 180.8 464 256 464S392 401.6 392 326.4C392 278.4 368 235.2 328 209.6z" />
    <glyph glyph-name="calendar"
      unicode="&#xE025;"
      horiz-adv-x="512" d=" M384 432V480H352V432H160V480H128V432H16V32H496V432H384zM464 64H48V400H128V368H160V400H352V368H384V400H464V64z" />
    <glyph glyph-name="camera"
      unicode="&#xE026;"
      horiz-adv-x="512" d=" M496 80H16V384H169.6L203.2 432H307.2L342.4 384H496V80zM48 112H464V352H326.4L291.2 400H219.2L185.6 352H48V112z M256 160C211.2 160 176 195.2 176 240S211.2 320 256 320S336 284.8 336 240S300.8 160 256 160zM256 288C228.8 288 208 267.2 208 240S228.8 192 256 192S304 212.8 304 240S283.2 288 256 288z" />
    <glyph glyph-name="cart"
      unicode="&#xE027;"
      horiz-adv-x="548.5714285714286" d=" M109.7142857142857 47.5428571428576C109.7142857142857 21.2856621794729 130.9999478937576 0 157.2571428571412 0C183.5143378205248 0 204.8000000000008 21.2856621794729 204.8000000000008 47.5428571428576C204.8000000000008 73.8000521062412 183.5143378205248 95.0857142857141 157.2571428571412 95.0857142857141C130.9999478937576 95.0857142857141 109.7142857142857 73.8000521062412 109.7142857142857 47.5428571428576z M380.3428571428563 47.5428571428576C380.3428571428563 21.2856621794729 401.6285193223323 0 427.885714285716 0C454.1429092490995 0 475.4285714285714 21.2856621794729 475.4285714285714 47.5428571428576C475.4285714285714 73.8000521062412 454.1429092490995 95.0857142857141 427.885714285716 95.0857142857141C401.6285193223323 95.0857142857141 380.3428571428563 73.8000521062412 380.3428571428563 47.5428571428576z M501.0285714285731 138.971428571429H102.3999999999983L47.5428571428555 438.8571428571429H0V512H109.7142857142857L124.3428571428571 431.5428571428572H548.5714285714286L501.0285714285731 138.971428571429zM164.5714285714286 212.1142857142862H438.8571428571429L464.4571428571428 358.4000000000005H138.9714285714269L164.5714285714286 212.1142857142862z" />
    <glyph glyph-name="case-studies"
      unicode="&#xE028;"
      horiz-adv-x="512" d=" M480 450C355.2 456.4 278.4 424.4 254.4 411.6C230.4 424.4 153.6 456.4 28.8 450L14.4 448.4V115.6L19.2 110.8C24 105.9999999999999 30.4 105.9999999999999 38.4 107.6C147.2 117.2 211.2 91.6 246.4 67.6L256 61.2L265.6 67.6C352 123.6 476.8 105.9999999999999 478.4 104.4L497.6 101.2V448.4L480 450zM46.4 141.2V418C150.4 421.2 217.6 394 238.4 384.4V109.2000000000001C203.2 126.8000000000001 153.6 141.2000000000001 83.2 141.2000000000001C72 142.8 59.2 141.2 46.4 141.2zM462.4 139.6C425.6 142.8 342.4 144.4 270.4 109.2000000000001V384.4C291.2 395.6 358.4 421.2 462.4 418V139.6z" />
    <glyph glyph-name="chat-bubble"
      unicode="&#xE029;"
      horiz-adv-x="512" d=" M448 448V192H276.8H265.6L257.6 185.6L144 97.6V160V192H112H64V448H448M480 480H32V160H112V32L276.8 160H480V480L480 480z" />
    <glyph glyph-name="cheap-value"
      unicode="&#xE02A;"
      horiz-adv-x="512" d=" M267.2 369.6V344C289.6 342.4 307.2 334.4 324.8 324.8L310.4000000000001 300.8C297.6 308.8 283.2000000000001 315.2000000000001 268.8 316.8V264C299.2 259.2 328 246.4 326.4000000000001 214.4C326.4000000000001 182.4 300.8 164.8 268.8 160V132.8H243.2V160C220.8 161.6 195.2 169.6 179.2 184L195.2 208C206.4 198.4 224 190.4 243.2 188.8V240H240C211.2 244.8 184 257.6 184 291.2C184 321.6 209.6 340.8 241.6 345.6V369.6H267.2zM240 267.2V315.2C222.4 312 212.8 302.4 212.8 289.6C212.8 278.4 222.4 272 240 267.2zM267.2 235.2V187.2C283.2 190.4 296 198.4 296 212.8C296 224 284.8 230.4 267.2 235.2z M240 102.4V16H272V102.4C267.2 102.4 260.8 100.8 254.4 100.8C249.6 102.4 244.8 102.4 240 102.4z M272 406.4V496H240V408C244.8 408 249.6 408 254.4 408C260.8 408 267.2 408 272 406.4z M160 374.4L97.6 436.8L75.2 414.4L137.6 352C144 360 152 368 160 374.4z M352 137.6L414.4 75.2000000000001L436.8 97.6L374.4 160C368 152 360 144 352 137.6z M408 254.4C408 249.6 408 244.8 408 240H496V272H406.4C408 267.2 408 260.8 408 254.4z M102.4 272H16V240H102.4C102.4 244.8 102.4 249.6 102.4 254.4C102.4 260.8 102.4 267.2 102.4 272z M374.4 352L436.8 414.4L414.4 436.8L352 374.4C360 366.4 366.4 360 374.4 352z M136 158.4L75.2 97.6L97.6 75.2L158.4 136C150.4 142.4 142.4 150.4 136 158.4z" />
    <glyph glyph-name="checkout"
      unicode="&#xE02B;"
      horiz-adv-x="512" d=" M120 96C120 78.3268880054146 134.3268880054146 64 152 64C169.6731119945854 64 184 78.3268880054146 184 96C184 113.6731119945854 169.6731119945854 128 152 128C134.3268880054146 128 120 113.6731119945854 120 96z M376 96C376 78.3268880054146 390.3268880054146 64 408 64C425.6731119945854 64 440 78.3268880054146 440 96C440 113.6731119945854 425.6731119945854 128 408 128C390.3268880054146 128 376 113.6731119945854 376 96z M448 176H128L80 416H24V448H107.2L120 384H488L448 176zM153.6 208H422.4L449.6 352H124.8L153.6 208z" />
    <glyph glyph-name="claim-credit"
      unicode="&#xE02C;"
      horiz-adv-x="512" d=" M245.3 209.5H242.3V282.4C263.6 280.9 281.8 273.3 297 262.7000000000001L310.7 285.5C292.5 297.6 269.7 306.8000000000001 242.4 308.3000000000001V337H219.7V306.6C180.2 302 149.9 280.8 149.9 244.4C148.4 208 175.7 191.3 213.7 186.7H218.3V113.8C195.5 115.3 171.2 125.9 157.6 136.6L142.4 115.3C160.6 100.1 191 89.4999999999999 218.3 87.9999999999999V56.1H242.6V88C282.1 92.5 314 113.8 314 151.8C313.7 188.2 283.3 204.9 245.3 209.5zM218 214C189.2 218.6 175.5 229.2 175.5 245.9C177 265.6 193.7 279.3 218 282.3V214zM242.3 113.9V183.7C271.2 179.1 286.3 168.5 286.3 150.3C286.4 129 268.1 116.9 242.3 113.9z M353.6 512C312.4000000000001 512 277.2000000000001 489.2 259.5 455.4H54.1V0H403.3V311.6C437.1 329.3 460 364.5 460 405.8C459.9 464.9 412.8 512 353.6 512zM372.9 30.4H84.4V425.1H249.2C248.1 418.8 247.4 412.4 247.4 405.8C247.4 346.6 294.5 299.5 353.7 299.5C360.3 299.5 366.7 300.2 373 301.3V30.4zM403.2 348.3C394.6 340.9 384.3 335.4 372.9 332.5C366.7 330.9 360.4 329.8 353.6 329.8C311.1 329.8 277.7 363.2000000000001 277.7 405.7000000000001C277.7 412.5 278.8 418.8 280.3999999999999 425C283.2999999999999 436.5 288.7999999999999 446.8 296.2 455.4C310 471.4 330.3 481.6 353.5 481.6C396 481.6 429.4 448.2000000000001 429.4 405.7C429.6 382.4 419.3 362.1 403.2 348.3z M345.1 403.6L324.1 424.6L306.5 399.7L348.2 358L400.8 432.6L380 453.4z" />
    <glyph glyph-name="clever-plans"
      unicode="&#xE02D;"
      horiz-adv-x="512" d=" M160 324.8H192C192 368 227.2 404.8 270.4 404.8V436.8C209.6 436.8 160 387.2 160 324.8z M256 496C163.2 496 88 419.2 88 324.8C88 268.8 115.2 219.2000000000001 160 187.2000000000001V16H352V188.8C396.8 220.8 424 272 424 326.4C424 419.2 348.8 496 256 496zM320 48H192V126.4H320V48zM328 209.6L320 206.4V158.4H192V204.8L184 208C144 233.6 120 276.8 120 324.8C120 401.6 180.8 464 256 464S392 401.6 392 326.4C392 278.4 368 235.2 328 209.6z" />
    <glyph glyph-name="clock"
      unicode="&#xE02E;"
      horiz-adv-x="512" d=" M256 496H240V249.6L348.8 148.8L371.2 172.8L272 262.4V464C379.2 456 464 366.4 464 256C464 140.8 371.2 48 256 48S48 140.8 48 256C48 342.4 102.4 420.8 182.4 449.6V483.2C84.8 452.8 16 360 16 256C16 123.2 123.2 16 256 16S496 123.2 496 256S388.8 496 256 496z" />
    <glyph glyph-name="cloud-data"
      unicode="&#xE02F;"
      horiz-adv-x="512" d=" M401.6 438.4C380.8 438.4 360 433.6 342.4000000000001 422.4C326.4000000000001 460.8 292.8 496 238.4000000000001 496C211.2000000000001 496 184 483.2 164.8000000000001 459.2C147.2000000000001 438.4 137.6000000000001 412.8 136 388.8C105.6 388.8 78.4 379.2 59.2 361.6C41.6 345.6 32 320 32 304C22.4 296 16 284.8 16 273.6V272L16 272V73.6C16 33.6 76.8 16 132.8 16S249.6 33.6 249.6 73.6V224H396.8C444.8 224 496 268.8 496 331.2C497.6 393.6 446.4 438.4 401.6 438.4zM132.8 299.2C187.2 299.2 216 281.6 216 273.6S187.2 248 132.8 248C76.8 248 48 267.2 48 273.6C48 280 76.8 299.2 132.8 299.2zM48 232C70.4 220.8 102.4 216 132.8 216S195.2 222.4 217.6 233.6V206.4H216C216 198.4 188.8 180.8 132.8 180.8C78.4 180.8 48 198.4 48 206.4V232zM48 164.8C70.4 153.6 102.4 148.8 132.8 148.8S195.2 153.6 217.6 164.8V140.8H216C216 132.8 188.8 115.2 132.8 115.2C78.4 115.2 48 132.8 48 140.8V164.8zM132.8 48C78.4 48 48 65.6 48 73.6V99.2000000000001C70.4 88.0000000000001 102.4 83.2000000000001 132.8 83.2000000000001S195.2 88.0000000000001 217.6 99.2000000000001V73.6C217.6 65.6 187.2 48 132.8 48zM396.8 256H249.6V268.8L249.6 268.8C249.6 270.4 249.6 272 249.6 273.6C249.6 312 192 331.2000000000001 134.4 331.2000000000001C110.4 331.2000000000001 88 328 68.8 321.6C72 328 75.2 332.8 81.6 337.6C96 352 123.2 358.4000000000001 150.4 355.2000000000001L171.2 353.6L168 374.4000000000001C164.8 395.2000000000001 172.8 420.8000000000001 188.8 438.4000000000001C203.2 454.4 220.8 464.0000000000001 238.4 464.0000000000001C284.8 464.0000000000001 310.4 427.2000000000001 316.8 392L321.6 363.2000000000001L344 382.4C361.6 398.4 380.8 406.4 401.6 406.4C427.2000000000001 406.4 465.6 377.6 465.6 331.2C465.6 284.8 425.6 256 396.8 256z" />
    <glyph glyph-name="cloud-download"
      unicode="&#xE030;"
      horiz-adv-x="512" d=" M292.8 164L252.8 124L252.8 258.4L220.8 258.4L220.8 122.4L179.2 164L156.8 141.6L236.8 61.6L315.2 141.6z M492.8 285.6C492.8 348 441.6 392.8 396.8 392.8C374.4000000000001 392.8 353.6 386.4 336 375.2C320 415.2 284.8 450.4 228.8 450.4C200 450.4 172.8 437.6 152 413.6C136 392.8 126.4 367.2 124.8 343.2C94.4 343.2 64 332 44.8 314.4C27.2 298.4 19.2 279.2 19.2 256.8C19.2 207.2 60.8 184.8 83.2 178.4H206.4V210.4H89.6C81.6 213.6 51.2 224.8 51.2 256.8C51.2 269.6 56 280.8 67.2 290.4C83.2 304.8 113.6 312.8 140.8 309.6L161.6 308L156.8 328.8C153.6 348 161.6 373.6 177.6 392.8C192 408.8 209.6 418.4 228.8 418.4C275.2 418.4 302.4 381.6 308.8 346.4L313.6 317.6L336 336.8C353.6 352.8 372.8 360.8 395.2 360.8C422.4 360.8 459.2 332 459.2 285.6S417.6 210.4 387.2 210.4H268.8V178.4H388.8C438.4 178.4 492.8 223.2 492.8 285.6z" />
    <glyph glyph-name="concierge"
      unicode="&#xE031;"
      horiz-adv-x="512" d=" M272 350.4V400H304V432H208V400H240V350.4C132.8 342.4 48 254.4 48 144H464C464 254.4 379.2 342.4 272 350.4zM256 320C342.4 320 414.4 257.6 428.8 176H83.2C97.6 257.6 169.6 320 256 320z M16 112H496V80H16V112z" />
    <glyph glyph-name="conferencing"
      unicode="&#xE032;"
      horiz-adv-x="512" d=" M232 413.9C232 400.645166004061 242.745166004061 389.9 256 389.9C269.2548339959391 389.9 280 400.645166004061 280 413.9C280 427.1548339959391 269.2548339959391 437.9 256 437.9C242.745166004061 437.9 232 427.1548339959391 232 413.9z M272 80C318.9 83.7 364.7 103.3 400.5 139.1C480.3 218.9 480.3 348.3 400.5 428.1C360.6 468 308.3 488 256 488S151.4 468 111.5 428.1C31.7 348.3 31.7 218.9 111.5 139.1C147.3 103.3 193.2 83.7000000000001 240 80V56H88V24H424V56H272V80zM134.1 405.5C166.7 438.1 210 456 256 456S345.3 438.1 377.9 405.5C445.1 338.3 445.1 228.9 377.9 161.7C345.3 129.1 302 111.2 256 111.2S166.7 129.1 134.1 161.7C66.9 228.9 66.9 338.3 134.1 405.5z M318.4 221.2C352.8 255.6 352.8 311.5 318.4 345.9C301.2 363.1 278.6 371.7 256 371.7S210.9 363.1 193.6 345.9C159.2 311.5 159.2 255.6 193.6 221.2C210.8 204 233.4 195.4 256 195.4S301.1 204 318.4 221.2zM216.3 323.4C226.9 334 241 339.9 256 339.9S285.1 334.1 295.7 323.4C317.6 301.5 317.6 265.8 295.7 243.9C285.1 233.3 271 227.4 256 227.4S226.9 233.2 216.3 243.9C194.3 265.8 194.3 301.4 216.3 323.4z" />
    <glyph glyph-name="confirm-tick"
      unicode="&#xE033;"
      horiz-adv-x="512" d=" M256 455.2C308.8 455.2 360 434.4 396.8 396C475.2 317.6 475.2 191.2 396.8 112.8C360 76 308.8 55.2 256 55.2S152 76 115.2 114.4C36.8 192.8 36.8 319.2 115.2 397.6C152 434.4 203.2 455.2 256 455.2M256 487.2C196.8 487.2 137.6 464.8 91.2 420C0 328.8 0 183.2 91.2 92C136 47.2 195.2 24.8 256 24.8S374.4 47.2 420.8 92C512 183.2 512 328.8 420.8 420C374.4 464.8 315.2 487.2 256 487.2 M226.2 129.5L131.8 223.9L154.4 246.5L221.9 179.1L354 366.9L380.2 348.5z" />
    <glyph glyph-name="convenient-returns"
      unicode="&#xE034;"
      horiz-adv-x="512" d=" M14.4 301.6L206.4 205.6L300.8 15.2L497.6 496.8L14.4 301.6zM91.2 298.4L401.6 423.2L214.4 236L91.2 298.4zM297.6 92L236.8 213.6L424 400.8L297.6 92z" />
    <glyph glyph-name="copyright"
      unicode="&#xE035;"
      horiz-adv-x="512" d=" M256 455.2C308.8 455.2 360 434.4 396.8 396C475.2 317.6 475.2 191.2 396.8 112.8C360 76 308.8 55.2 256 55.2S152 76 115.2 114.4C36.8 192.8 36.8 319.2 115.2 397.6C152 434.4 203.2 455.2 256 455.2M256 487.2C196.8 487.2 137.6 464.8 91.2 420C0 328.8 0 183.2 91.2 92C136 47.2 195.2 24.8 256 24.8S374.4 47.2 420.8 92C512 183.2 512 328.8 420.8 420C374.4 464.8 315.2 487.2 256 487.2 M345.1 320.1L317.1 301.5C304.5 319.8 283.9000000000001 331.4 259.3 331.4C217 331.4 185.9 300.8 185.9 256.1S217 180.8 259.3 180.8C283.8 180.8 304.1 191.9 317 210.5L344.2 190.5C326.6 164.6 295.5 148.7 259.3 148.7C195.7 148.7 150.8 194.3 150.8 256.1S195.6 363.5 259.3 363.5C296.2 363.4 328.8 347 345.1 320.1z" />
    <glyph glyph-name="coverage-maps"
      unicode="&#xE036;"
      horiz-adv-x="512" d=" M256 16.8L147.2 192.8C129.6 221.6 116.8 253.6 112 272.8C108.8 287.2000000000001 104 309.6 104 330.4C104 420 171.2 493.6 254.4 495.2H256C340.8 493.6 408 420 408 330.4C408 309.6 403.2 285.6 400 272.8C395.2 255.2 382.4 221.6 364.8 192.8L256 16.8zM256 463.2H254.4C188.8 461.6 136 402.4 136 330.4C136 314.4 139.2 293.6 142.4 280.8C147.2 264.8 158.4 234.4000000000001 174.4 208.8L256 76L337.6 208.8C353.6 234.4000000000001 364.8 264.8 368 280.8C371.2 293.6 374.4 314.4 374.4 330.4C376 402.4 323.2 461.6 256 463.2z M256 271.2C216 271.2 184 303.2 184 343.2S216 415.2 256 415.2S328 383.2 328 343.2S296 271.2 256 271.2zM256 383.2C233.6 383.2 216 365.6 216 343.2S233.6 303.2 256 303.2S296 320.8 296 343.2S278.4 383.2 256 383.2z" />
    <glyph glyph-name="credit-card"
      unicode="&#xE037;"
      horiz-adv-x="512" d=" M16 415.2V96.8H496V415.2H16zM464 383.2V336.8H48V383.2H464zM48 128.8V304.8H464V128.8H48z" />
    <glyph glyph-name="credit-transfer"
      unicode="&#xE038;"
      horiz-adv-x="512" d=" M434.4 358.4L412 336L444 304H375.2V400H7.2V112H375.2V272H444L412 240L434.4 217.6L504.8 288L434.4 358.4zM343.2 368V304H39.2V368H343.2zM39.2 144V272H343.2V144H39.2z" />
    <glyph glyph-name="cross"
      unicode="&#xE039;"
      horiz-adv-x="512" d=" M430.4 407.4L408 429.8L256 277.8L104 429.8L81.6 407.4L233.6 255.4L81.6 103.4L104 81L256 233L408 81L430.4 103.4L278.4 255.4z" />
    <glyph glyph-name="customer-support"
      unicode="&#xE03A;"
      horiz-adv-x="512" d=" M448 304.8C443.2 304.8 436.8 303.2000000000001 432 301.6V314.4000000000001C432 413.6 353.6 493.6 256 493.6S80 412 80 312.8V301.6C75.2 303.2000000000001 68.8 304.8 64 304.8C38.4 304.8 16 282.4 16 256.8V180C16 154.4 38.4 132 64 132C73.6 132 81.6 135.2 88 140C107.2 84 155.2 42.4 216 32.8C222.4 23.2 233.6 18.4 246.4 18.4C267.2 18.4 284.8 36.0000000000001 284.8 56.8S267.2 95.2 246.4 95.2C228.8 95.2 214.4 84 209.6 68C153.6 80.8 112 130.4 112 191.2V197.6V234.4V256.8V312.8C112 394.4 176 461.6 256 461.6S400 396 400 314.4V256.8V199.2V180C400 154.4 422.4 132 448 132S496 154.4 496 180V256.8C496 282.4 473.6 304.8 448 304.8zM80 197.6V191.2000000000001V180C80 172 72 164 64 164S48 172 48 180V256.8C48 264.8 56 272.8 64 272.8S80 264.8 80 256.8V234.4000000000001V197.6zM464 180C464 172 456 164 448 164S432 172 432 180V199.2V256.8C432 264.8 440 272.8 448 272.8S464 264.8 464 256.8V180z" />
    <glyph glyph-name="dashboard"
      unicode="&#xE03B;"
      horiz-adv-x="512" d=" M256 376C132.8 376 32 275.2 32 152V136H144V168H64C73.6 267.2 155.2 344 256 344S438.4 267.2 448 168H352H244.8L308.8 233.6V211.2000000000001H340.8V286.4000000000001H267.2000000000001V254.4000000000001H284.8000000000001L208 176V168V153.6V136H352H480V152C480 275.2 379.2 376 256 376z" />
    <glyph glyph-name="delivery"
      unicode="&#xE03C;"
      horiz-adv-x="512" d=" M496 266.4L408 388H368V404V420H16V132H68.8C75.2 109.6 94.4 92 120 92S164.8 109.6 171.2 132H302.4C308.8 109.6 328 92 353.6 92C377.6 92 398.4 109.6 404.8 132H496V266.4zM120 124C108.8 124 99.2 133.6 99.2 144.8S108.8 165.6 120 165.6S140.8 156 140.8 144.8S131.2 124 120 124zM353.6 124C342.4000000000001 124 332.8 133.6 332.8 144.8S342.4000000000001 165.6 353.6 165.6S374.4000000000001 156 374.4000000000001 144.8S364.8 124 353.6 124zM464 164H403.2C395.2 183.2 376 197.6 353.6 197.6S312 183.2 304 164H168C160 183.2 140.8 197.6 118.4 197.6S78.4 183.2000000000001 70.4 164H48V388H336V356V260H368V356H392L464 256.8V164z" />
    <glyph glyph-name="desktop-computer"
      unicode="&#xE03D;"
      horiz-adv-x="512" d=" M480 136V440H54.4H32V136H238.4V104H128V72H384V104H270.4V136H480zM64 408H448V168H64V408z" />
    <glyph glyph-name="dollar-magnify"
      unicode="&#xE03E;"
      horiz-adv-x="512" d=" M236.9 427.2V395.2C265.7 393.6 289.7 384 308.9 371.2L294.5 348.8C278.5 360 259.3 368 236.9 369.6V292.8H240.1C280.1 288 312.1 270.4 312.1 232C312.1 192 278.5 169.6 236.9000000000001 164.8V131.2H211.3000000000001V164.8C182.5 166.4 150.5000000000001 177.6 131.3000000000001 193.6L147.3000000000001 216C161.7000000000001 204.8 187.3000000000001 193.6 211.3000000000001 192V268.8H206.5C166.5 273.6 137.7000000000001 291.2000000000001 139.3 329.6C139.3 368 171.3 390.4000000000001 212.9 395.2000000000001V427.2000000000001C212.9 427.2 236.9 427.2 236.9 427.2zM211.3 294.4V366.4C185.7 363.2000000000001 168.1 348.8 166.5 328C168.1 312 180.9 300.8 211.3 294.4zM236.9 264V190.4C264.1 193.6 283.3 206.4 283.3 228.8C284.9 248 267.3 259.2 236.9 264z M497.7 36.8L388.9 145.6C460.9 228.8 457.7 355.2000000000001 377.7 435.2000000000001C336.1 476.8000000000001 281.7 497.6 227.3 497.6S118.5 476.8 76.9 435.2C-6.3 352 -6.3 217.6 76.9 134.4C118.5 92.8 172.9 72 227.3 72C276.9000000000001 72 326.5 89.6 366.5 123.2L475.3 14.4L497.7 36.8zM99.3 156.8C28.9 227.2000000000001 28.9 342.4 99.3 412.8C132.9 446.4 179.3 465.6 227.3 465.6S320.1 446.4 355.3 412.8C425.7000000000001 342.4 425.7000000000001 227.2000000000001 355.3 156.8C321.7 123.2 275.3 104 227.3 104S134.5 123.2 99.3 156.8z" />
    <glyph glyph-name="dollar"
      unicode="&#xE03F;"
      horiz-adv-x="512" d=" M277.2 464V419.3C317.5 417.1 351 403.6 377.8 385.8L357.7 352.3C335.3 368 308.5 379.1 277.2 381.4V274H281.7C337.5999999999999 267.3 382.3999999999999 242.7 382.3999999999999 189C382.3999999999999 133.1 335.3999999999999 101.8 277.3 95.1V48.1H241.5V95.1C201.1999999999999 97.4 156.5 113 129.6999999999999 135.4L152.0999999999999 166.7000000000001C172.1999999999999 151.0000000000001 208 135.4 241.6 133.2000000000001V240.3H234.9C179 247 138.6999999999999 271.6 141 325.3C141 379 185.6999999999999 410.3 243.9 417V461.8L277.2 464zM241.5 278.4V379C205.7 374.5 181.1 354.4 178.9 325.3C178.8 303 199 287.3 241.5 278.4M277.2 235.9V133C315.2 137.5 342.1 155.4 342.1 186.7C342.1 213.5 319.7 229.2 277.2 235.9" />
    <glyph glyph-name="down-arrow"
      unicode="&#xE040;"
      horiz-adv-x="512" d=" M144 196.8L166.4 219.2L240 147.2L240 427.2L272 427.2L272 145.6L345.6 219.2L368 196.8L256 84.8z" />
    <glyph glyph-name="download-pdf"
      unicode="&#xE041;"
      horiz-adv-x="512" d=" M264 171.2L264 304L232 304L232 172.8L196.8 208L174.4 185.6L248 110.4L323.2 185.6L300.8 208z M339.2 496H72V16H440V400L339.2 496zM344 448L395.2 400H344V448zM104 48V464H312V368H408V48H104z" />
    <glyph glyph-name="download"
      unicode="&#xE042;"
      horiz-adv-x="512" d=" M496 72L16 72L16 216L48 216L48 104L464 104L464 216L496 216z M323.2 307.2L272 248L272 440L240 440L240 248L188.8 307.2L163.2 284.8L256 180.8L348.8 284.8z" />
    <glyph glyph-name="edit"
      unicode="&#xE043;"
      horiz-adv-x="512" d=" M384 450.4L451.2 383.2L115.2 48.8H48V112.8L384 450.4M384 495.2L16 125.6V16.8H129.6L496 383.2L384 495.2L384 495.2z" />
    <glyph glyph-name="education"
      unicode="&#xE044;"
      horiz-adv-x="512" d=" M0 0H240V240H0V0zM32 208H208V32H32V208z M376 512H136V272H376V512zM344 304H168V480H344V304z M272 240V0H512V240H272zM480 32H304V208H480V32z M227.9 349.8H285.7L296.7 319.2000000000001H333.7L277.9 464.9H236.4L180.6 319.3H216.9L227.9 349.8zM256.8 430.3L274.5 381.2H239.1L256.8 430.3z M161.4 121.8C173 127 181.5 138.2 181.5 152.6C181.5 179.3 162.4 193.8 125.5 193.8H62.9V48.2H129.1C166 48.2 184.4 63.2000000000001 184.4 89.9C184.5 104.7 174.3 117.2 161.4 121.8zM97.6 164.5H124.6C137.1 164.5 145.2 160.9 145.2 150.3C145.2 139.5 137.1 135.8 124.6 135.8H97.6V164.5zM127.4 77.2H97.6V106.7H127.3C140.7 106.7 148.5 102.7 148.5 92C148.6 81.2 140.8 77.2 127.4 77.2z M399.1 45.4C427 45.4 449.1 57.8 462.4 77.6L434 97.8C425.7 85.4 413.6 78.7 398.8 78.7C377.3 78.7 358.6 93.9 358.6 120.9C358.6 145.9 375.7000000000001 163.1 398.6 163.1C413.7000000000001 163.1 425.7000000000001 156.2 433.3 143.9L463.8 161.4C451.4 183.5 426.9000000000001 196.5 399.1 196.5C354.2000000000001 196.5 322.4000000000001 165.1 322.4000000000001 121S354.2 45.4 399.1 45.4z" />
    <glyph glyph-name="eligible"
      unicode="&#xE045;"
      horiz-adv-x="512" d=" M353.6 512C312.4000000000001 512 277.2000000000001 489.2 259.5 455.4H54.1V0H403.3V311.6C437.1 329.3 460 364.5 460 405.8C459.9 464.9 412.8 512 353.6 512zM372.9 30.4H84.4V425.1H249.2C248.1 418.8 247.4 412.4 247.4 405.8C247.4 370.1 264.6 339 291.1 319.7H130.2V289.3H328.1V302.7C336.3 300.7 344.8 299.5 353.7000000000001 299.5C360.3000000000001 299.5 366.7000000000001 300.2 373.0000000000001 301.3V30.4zM403.2 348.3C394.6 340.9 384.3 335.4 372.9 332.5C366.7 330.9 360.4 329.8 353.6 329.8C311.1 329.8 277.7 363.2000000000001 277.7 405.7000000000001C277.7 412.5 278.8 418.8 280.3999999999999 425C283.2999999999999 436.5 288.7999999999999 446.8 296.2 455.4C310 471.4 330.3 481.6 353.5 481.6C396 481.6 429.4 448.2000000000001 429.4 405.7C429.6 382.4 419.3 362.1 403.2 348.3z M345.1 403.6L324.1 424.6L306.5 399.7L348.2 358L400.8 432.6L380 453.4z M130.2 243.6H328.1V213.2000000000001H130.2V243.6z M130.2 167.4H328.1V137H130.2V167.4z" />
    <glyph glyph-name="email"
      unicode="&#xE046;"
      horiz-adv-x="512" d=" M16 432V80H496V432H16zM428.8 400L254.4 262.4L81.6 400H428.8zM48 112V387.2L254.4 222.4L464 387.2V112H48z" />
    <glyph glyph-name="enterprise-govt"
      unicode="&#xE047;"
      horiz-adv-x="512" d=" M448 72V262.4H360L272 360V408H336V472H272H240V360L150.4 262.4H64V72H32V40H64H96H480V72H448zM416 72H368V230.4H416V72zM336 230.4V72H176V230.4H336zM256 329.6L316.8 262.4H193.6L256 329.6zM96 230.4H144V72H96V230.4z" />
    <glyph glyph-name="equals"
      unicode="&#xE048;"
      horiz-adv-x="512" d=" M56.8 344H455.2V312H56.8V344z M56.8 200H455.2V168H56.8V200z" />
    <glyph glyph-name="error-alert"
      unicode="&#xE049;"
      horiz-adv-x="512" d=" M256 0C396.8 0 512 115.2 512 256S396.8 512 256 512S0 396.8 0 256S115.2 0 256 0zM278.4 368L272 214.4H240L233.6 368H278.4zM256 192C272 192 284.8 179.2 284.8 163.2S272 134.4 256 134.4S227.2 147.2 227.2 163.2C227.2 176 240 192 256 192z" />
    <glyph glyph-name="error"
      unicode="&#xE04A;"
      horiz-adv-x="512" d=" M256 462.4C371.2 462.4 464 369.6 464 256S371.2 49.6 256 49.6S48 142.4 48 256S140.8 462.4 256 462.4M256 494.4C123.2 494.4 16 387.2 16 256S123.2 17.6 256 17.6S496 124.8 496 256S388.8 494.4 256 494.4L256 494.4z M231.2 144.8C231.2 159.2 242.4 168.8 256.8 168.8C271.2 168.8 280.8 157.6 280.8 144.8C280.8 130.4 269.6 119.2 256.8 119.2C244 119.2 231.2 130.4 231.2 144.8zM237.6 392.8H272.8V199.2H237.6V392.8z" />
    <glyph glyph-name="expert-advice"
      unicode="&#xE04B;"
      horiz-adv-x="512" d=" M480.8 352.8C356 357.6 280.8 327.2000000000001 256.8 316C232.8 327.2 156 357.6 32.8 352.8H16.8V45.6L34.4 48.8C36 48.8 160.8 66.4 247.2 12L255.2 7.2L263.2000000000001 12C349.6 66.4 474.4 48.8 476.0000000000001 48.8L495.2 45.6V352.8H480.8zM48.8 80.8V320.8C152.8 322.4 218.4 298.4 240.8 287.2000000000001V50.4C188 76 127.2 80.8 85.6 80.8C71.2 82.4 58.4 82.4 48.8 80.8zM464.8 80.8C428 84 344.8 85.6 272.8 52V288.8C295.2 298.4 360.8 324 464.8 322.4V80.8z M125.6 384.8H196C221.6 384.8 242.4 405.6 242.4 431.2V436C242.4 444 240.8 452 236 458.4C239.2 466.4 247.2 472.8 256.8 472.8S274.4000000000001 466.4 277.6 456.8C274.4000000000001 450.4 272.8 444 272.8 436V431.2C272.8 405.6 293.6 384.8 319.2 384.8H389.6C415.2000000000001 384.8 436 405.6 436 431.2000000000001V436C434.4 461.6 415.2 482.4 389.6 482.4H319.2000000000001C312.8000000000001 482.4 308.0000000000001 480.8 303.2000000000001 479.2C292 495.2 276 504.8 256.8 504.8S221.6 495.2 212 479.2C207.2 480.8 202.4 482.4 196 482.4H125.6C100 482.4 79.2 461.6 79.2 436V431.2C79.2 405.6 100 384.8 125.6 384.8zM389.6 450.4C397.6 450.4 404 444 404 436V431.2C404 423.2 397.6 416.8 389.6 416.8H319.2000000000001C311.2000000000001 416.8 304.8000000000001 423.2 304.8000000000001 431.2V436C304.8000000000001 444 311.2000000000001 450.4 319.2000000000001 450.4H389.6zM111.2 436C111.2 444 117.6 450.4 125.6 450.4H196C204 450.4 210.4 444 210.4 436V431.2C210.4 423.2 204 416.8 196 416.8H125.6C117.6 416.8 111.2 423.2 111.2 431.2V436z" />
    <glyph glyph-name="extras"
      unicode="&#xE04C;"
      horiz-adv-x="512" d=" M256 494.4C123.2 494.4 16 387.2 16 256S123.2 17.6 256 17.6S496 124.8 496 256S388.8 494.4 256 494.4zM256 49.6C140.8 49.6 48 142.4 48 256S140.8 462.4 256 462.4S464 369.6 464 256S371.2 49.6 256 49.6z M272 272L272 416L240 416L240 272L96 272L96 240L240 240L240 96L272 96L272 240L416 240L416 272z" />
    <glyph glyph-name="facebook"
      unicode="&#xE04D;"
      horiz-adv-x="512" d=" M16 496V16H496V496H16zM464 48H316.8V216H395.2000000000001V244.8H316.8000000000001V278.4C316.8000000000001 305.6 328.0000000000001 321.6 353.6000000000001 321.6C368.0000000000001 321.6 382.4000000000001 316.8 393.6000000000001 310.4000000000001L404.8000000000001 336C390.4000000000001 344 372.8000000000001 350.4000000000001 350.4000000000001 350.4000000000001C304.0000000000001 350.4000000000001 284.8000000000001 320 284.8000000000001 278.4000000000001V244.8H240V216H284.8V48H48V464H464V48z" />
    <glyph glyph-name="family-sharing"
      unicode="&#xE04E;"
      horiz-adv-x="512" d=" M496 320.8L496 416.8L400.2 416.6L400.3 384.6L440 384.7L323.7 268.4L310.9 256L323.7 243.6L440 127.3L400.3 127.4L400.2 95.4L496 95.2L496 191.2L464 191.2L464 148.6L356.6 256L464 363.4L464 320.8z M184 216C247.3 216 300.6 175.1 315.7 120H52.3C67.4 175.1 120.7 216 184 216M184 248C91.2 248 16 176.4 16 88H352C352 176.4 276.8 248 184 248L184 248z M192 264C147.9 264 112 299.9 112 344S147.9 424 192 424S272 388.1 272 344S236.1 264 192 264zM192 392C165.5 392 144 370.5 144 344S165.5 296 192 296S240 317.5 240 344S218.5 392 192 392z" />
    <glyph glyph-name="faq"
      unicode="&#xE04F;"
      horiz-adv-x="512" d=" M256 462.4C371.2 462.4 464 369.6 464 256S371.2 49.6 256 49.6S48 142.4 48 256S140.8 462.4 256 462.4M256 494.4C123.2 494.4 16 387.2 16 256S123.2 17.6 256 17.6S496 124.8 496 256S388.8 494.4 256 494.4L256 494.4z M224 201.6V265.6H238.4C284.8 265.6 310.4 284.8 310.4 316.8C310.4 347.2000000000001 283.2 364.8 238.4 364.8C227.2 364.8 217.6 363.2000000000001 209.6 363.2000000000001L206.4 396.8C216 398.4 230.4 400 240 400C305.6 400 347.2 368 347.2 318.4000000000001C347.2 272 313.6 241.6 254.4 235.2000000000001L252.8 201.6C252.8 201.6 224 201.6 224 201.6zM265.6 134.4C265.6 120 252.8 107.2 238.4000000000001 107.2S211.2000000000001 120 211.2000000000001 134.4C211.2000000000001 148.8 224.0000000000001 161.6 238.4000000000001 161.6S265.6 148.8 265.6 134.4z" />
    <glyph glyph-name="fibre-connectivity"
      unicode="&#xE050;"
      horiz-adv-x="512" d=" M160 256H192V16H160V256z M240 256H272V16H240V256z M320 256H352V16H320V256z M336 288C318.4 288 304 302.4 304 320S318.4 352 336 352S368 337.6 368 320S353.6 288 336 288z M296 360C278.4 360 264 374.4 264 392S278.4 424 296 424S328 409.6 328 392S313.6 360 296 360z M256 288C238.4 288 224 302.4 224 320S238.4 352 256 352C273.6 352 288 337.6 288 320S273.6 288 256 288z M256 432C238.4 432 224 446.4 224 464S238.4 496 256 496C273.6 496 288 481.6 288 464S273.6 432 256 432z M176 288C158.4 288 144 302.4 144 320S158.4 352 176 352S208 337.6 208 320S193.6 288 176 288z M216 360C198.4 360 184 374.4 184 392S198.4 424 216 424S248 409.6 248 392S233.6 360 216 360z" />
    <glyph glyph-name="filtering"
      unicode="&#xE051;"
      horiz-adv-x="512" d=" M256 512C256 457.6 80 440 27.2 440C64 116.8 256 0 256 0S448 116.8 484.8 440C432 440 256 456 256 512zM62.4 409.6C108.8 412.8 192 420.8 240 448V52.8C192 99.2 94.4 208 62.4 409.6zM272 52.8V446.4C304 432 329.6 425.6 344 422.4C380.8 414.4 419.2 409.6 448 408C417.6 209.6 320 99.2 272 52.8z" />
    <glyph glyph-name="fixed-line"
      unicode="&#xE052;"
      horiz-adv-x="512" d=" M142.5 15.5C73.7 15.5 36.9 58.7 35.3 61.9C12.9 85.9 9.7 121.1 27.3 149.9C35.3 164.3 49.7 178.7 65.7 191.5C80.1 202.7 96.1 210.7 108.9 217.1C132.9 226.7000000000001 161.7 221.9 182.5 205.9L184.1 204.3C190.5 197.9 206.5 186.7 217.7 189.9C233.7 193.1 251.3 205.9 275.3 228.3L284.9000000000001 237.9000000000001C307.3 261.9000000000001 318.5000000000001 277.9000000000001 323.3 295.5C326.5 308.3000000000001 315.3 322.7000000000001 308.9000000000001 329.1L307.3 330.7000000000001C289.7 351.5 284.9000000000001 380.3 296.1 404.3C300.9000000000001 415.5 308.9000000000001 431.5 320.1 445.9C332.9000000000001 463.5 348.9000000000001 476.3 363.3 485.9C390.5 503.5 427.3 498.7 451.3 476.3C452.9 474.7 505.7 429.9 494.5 348.3C483.3 263.5 425.7 194.7000000000001 384.1 149.9L363.3 127.5C318.5 84.3 249.7 26.7 164.9 15.5C156.9 15.5 150.5 15.5 142.5 15.5zM136.1 189.9C131.3 189.9 126.5 188.3 120.1 186.7C108.9 181.9 96.1 175.5 84.9 167.5C70.5 156.3 59.3 145.1 54.5 133.9C44.9 117.9 46.5 97.1 59.3 82.7C60.9 79.5 96.1 41.1 160.1 49.1C217.7 57.1 273.7 87.4999999999999 340.9 151.5L361.7 172.3C425.7 239.5 456.1 293.9 464.1 353.1C472.1 417.1 432.1 452.3 430.5 452.3C416.1 466.7 395.3 468.3 379.3 458.7C368.1 452.3 355.3 441.1 345.7 426.7000000000001C336.1 415.5 329.7 402.7000000000001 326.5 391.5C320.1 377.1 323.3 361.1 332.9 349.9C339.3 343.5 364.9 316.3 356.9 285.9C352.1 263.5 337.7 242.7 310.5 213.9L300.9 204.3C272.1 177.1 251.3 162.6999999999999 228.9 157.9C198.5 149.9 171.3 173.9 164.9 181.9C153.7 186.7 145.7 189.9 136.1 189.9z" />
    <glyph glyph-name="future-bus-reports"
      unicode="&#xE053;"
      horiz-adv-x="512" d=" M496 336L496 432L400 432L400 400L440 400L334.4 294.4L302.4 326.4L174.4 198.4L142.4 230.4L48 136L48 496L16 496L16 16L494.4 16L494.4 48L48 48L48 91.2L142.4 185.6L174.4 153.6L302.4 281.6L334.4 249.6L464 379.2L464 336z" />
    <glyph glyph-name="games"
      unicode="&#xE054;"
      horiz-adv-x="512" d=" M264 464C312 464 355.2 448 392 419.2L251.2 278.4L228.8 256L251.2 233.6L392 92.8C355.2 64 312 48 264 48C148.8 48 56 140.8 56 256S148.8 464 264 464M264 496C131.2 496 24 388.8 24 256S131.2 16 264 16C332.8 16 395.2 44.8 438.4 91.2L273.6 256L438.4 420.8C395.2 467.2 332.8 496 264 496L264 496z M424 256C424 238.3268880054146 438.3268880054146 224 456 224C473.6731119945854 224 488 238.3268880054146 488 256C488 273.6731119945854 473.6731119945854 288 456 288C438.3268880054146 288 424 273.6731119945854 424 256z" />
    <glyph glyph-name="global-international"
      unicode="&#xE055;"
      horiz-adv-x="512" d=" M493.2 312C483.6 339.2 450 348.8 405.2 348.8C374.8 398.4 320.4 432 256.4 432C158.8 432 80.4 353.6 80.4 256C80.4 254.4 80.4 251.2 80.4 249.6C38.8 222.4 10 190.4 18 161.6C24.4 137.6 54.8 123.2000000000001 104.4 123.2000000000001C115.6 123.2000000000001 126.8 123.2000000000001 139.6 124.8000000000001C170 97.6000000000001 211.6 80.0000000000001 256.4 80.0000000000001C341.2 80.0000000000001 413.2 139.2000000000001 429.2 220.8000000000001C478.8 252.8 502.8 284.8 493.2 312zM50 169.6C48.4 177.6 59.6 193.6 86.8 214.4C91.6 192.0000000000001 99.6 172.8 112.4 155.2000000000001C70.8 153.6 51.6 161.6 50 169.6zM256.4 112C184.4 112 125.2 163.2 114 232C136.4 244.8 163.6 257.6 195.6 270.4L184.4 300.8C160.4 291.2000000000001 136.4 280 112.4 268.8C118.8 342.4 181.2 400 256.4 400C301.2 400 342.8 379.2 368.4 347.2C342.8 344 315.6 339.2 290 332.8L306 364.8L277.2 379.2L238.8 300.8L317.2 259.2L331.6 288L304.4 304C336.4 312 365.2 315.2 387.6 316.8C395.6 299.2000000000001 400.4 278.4 400.4 257.6C400.4 176 336.4 112 256.4 112zM432.4 262.4C432.4 281.6 427.6 299.2 421.2 316.8C446.8 315.2000000000001 461.2 310.4 462.8 302.4C464.4 297.6 458 281.6 432.4 262.4z" />
    <glyph glyph-name="googleplus"
      unicode="&#xE056;"
      horiz-adv-x="512" d=" M157 240H275.9C268.1 185.8 221.3 144 165 144C103.2 144 53 194.2 53 256C53 317.8 103.2 368 164.9 368C193.9 368 218.6 357 240.8 334.4L263.4 356.8C235.3 385.4 201.5 400 164 400C84.6 400 19 335.4 19 256C19 176.6 81.6 112 161 112S301 176.6 301 256V272H157V240z M493 272L429 272L429 336L397 336L397 272L333 272L333 240L397 240L397 176L429 176L429 240L493 240z" />
    <glyph glyph-name="handshake"
      unicode="&#xE057;"
      horiz-adv-x="512" d=" M419.7 224.1L432.4 236.8C437.5 241.9000000000001 441.3 247.7 443.8 254L446.7 251.1L510.5999999999999 315L347.8 477.9L283.8 414L286.7 411.1C280.4 408.6 274.6 404.8 269.5 399.7L256.7 386.9L242.4 401.2C237.3 406.3 231.5 410.1 225.2 412.6L228.1 415.5L164.2 479.4L1.4 316.6L65.3 252.7L68.2 255.6C70.8 249.2 74.6 243.4 79.6 238.4L93.9 224L77.1 207.2C61.5 191.6 61.5 166.2 77.1 150.6L89.9 137.8C96.3 131.4 104.4 127.8 112.7 126.6C113.9 118 117.6 109.9999999999999 123.9 103.8L136.7 90.9999999999999H136.7C142.9 84.8 150.9 80.9999999999999 159.5 79.8C160.7 71.4999999999999 164.3000000000001 63.4 170.7 56.9999999999999L183.5 44.1999999999999C191.3000000000001 36.3999999999999 201.5 32.4999999999999 211.8000000000001 32.4999999999999S232.3000000000001 36.3999999999999 240.1000000000001 44.1999999999999L257.0000000000001 61.0999999999999L274.1000000000001 43.9999999999999C281.9000000000001 36.1999999999999 292.1000000000001 32.2999999999999 302.4000000000001 32.2999999999999C312.6000000000001 32.2999999999999 322.9000000000001 36.1999999999999 330.7000000000001 43.9999999999999L343.5000000000001 56.7999999999999C349.9000000000001 63.1999999999999 353.5000000000001 71.1999999999999 354.7000000000001 79.5999999999999C363.0000000000001 80.7999999999999 371.1000000000001 84.3999999999999 377.5000000000001 90.7999999999999L390.3000000000002 103.5999999999999C396.7000000000001 109.9999999999999 400.3000000000002 117.9999999999999 401.5000000000001 126.3999999999999C410.1000000000002 127.5999999999999 418.1000000000002 131.2999999999999 424.3000000000002 137.5999999999999L437.1000000000002 150.3999999999999C444.6000000000002 157.8999999999999 448.8000000000002 168 448.8000000000002 178.6999999999999S444.6000000000002 199.5 437.1000000000002 207L419.7 224.1zM347.8 432.6L465.4 315L446.7 296.3L432.4 310.6C432.4 310.6 432.4 310.6 432.4 310.6L343.4 399.6L343.4 399.6L329.1 414L347.8 432.6zM292.2 377C300.1 384.9 313 384.9 320.8 377L365.3 332.5L409.8 288C417.7 280.1 417.7 267.3 409.8 259.4L397.1 246.7L348.6 295.5L324.8 319.5C319 318.1 314.2 319.9 308.6 323C307.6 323.6 306.6 324.1 305.5 324.8C294.6 331.1 274.4 342.8 252.6 320.6L228 296C225.7 293.7000000000001 221.9 293.7000000000001 219.7 296C217.4 298.3000000000001 217.4 302.1 219.7 304.4000000000001L244.9 329.6L244.9 329.6L253.5 338.2000000000001L261 345.7000000000001L261 345.7000000000001L292.2 377zM164.2 434.2L182.9 415.5L168.6 401.2L79.6 312.2L65.3 297.9L46.6 316.6L164.2 434.2zM97.4 178.9C97.4 180.1 97.7 182.5 99.7 184.6L116.5 201.4L128.1 213C130.1 215 132.5 215.3 133.7 215.3C134.9 215.3 137.3 215 139.4 213L144.2 208.2L152.2 200.2C154.2 198.2 154.5 195.8 154.5 194.5S154.2 190.9 152.2 188.8L123.8 160.4C120.8 157.3 115.6 157.3 112.5 160.4L99.7 173.2000000000001C97.7 175.3 97.4 177.7 97.4 178.9zM144.1 132.2C144.1 133.4 144.4 135.8 146.4 137.9L174.8 166.3L195.6 187.1C197.1 188.6 199.2 189.4 201.3 189.4S205.4 188.6 207 187.1L219.8 174.3C222.9 171.1999999999999 222.9 166 219.8 163L170.6 113.8C168.6 111.8 166.2 111.4999999999999 165 111.4999999999999C163.8000000000001 111.4999999999999 161.4 111.8 159.3000000000001 113.8L146.5 126.6C144.4 128.5 144.1 130.9 144.1 132.2zM217.3 67C214.2 63.9 209.1 63.9 206 67L193.2 79.8C190.1 82.9 190.1 88.1 193.2 91.1L232 129.9C233.5 131.4 235.6 132.2000000000001 237.7 132.2000000000001S241.8 131.4 243.4 129.9L256.2 117.1C259.2 114.1 259.2 109 256.3 105.9L234.4 84.0000000000001L234.4 84.0000000000001L217.3 67zM320.7 79.7L307.9 66.9C304.8 63.8 299.7 63.8 296.6 66.9L279.4 84C289.6 94.8 292.6 109.8 288.5 123.2L292.3 119.4L292.3 119.4L320.7 91C323.7 87.9 323.7 82.7 320.7 79.7zM414.1 173.1L401.3 160.3C399.3 158.3 396.9000000000001 158 395.7 158S392.1 158.3 390 160.3L326.2 224.1L303.6 201.5L304.5 200.6L304.5 200.6L367.3 137.8C370.4 134.7 370.4 129.5 367.3 126.5L354.5 113.7C351.3999999999999 110.6 346.2 110.6 343.2 113.7L279.3999999999999 177.5L259.5999999999999 157.7C257.5999999999999 159 255.3999999999999 160.1 253.1999999999999 161.1C255.5999999999999 173.7 251.9999999999999 187.3 242.1999999999999 197L229.3999999999999 209.8C216.0999999999999 223.1 195.7999999999999 224.9 180.3999999999999 215.6C178.7999999999999 218.2 176.8999999999999 220.7 174.6999999999999 223L161.8999999999999 235.8C154.3999999999999 243.3 144.2999999999999 247.5 133.5999999999999 247.5C133.5999999999999 247.5 133.5999999999999 247.5 133.5999999999999 247.5C128.3999999999999 247.5 123.3999999999999 246.5 118.6999999999999 244.6L102.2 261C94.3 268.9 94.3 281.7 102.2 289.6L191.2 378.6C199.1 386.5 211.9 386.5 219.8 378.6L234.1 364.3L230.7 360.9L197 327.1C182.2 312.3 182.2 288.3 197 273.5C204.4 266.1 214.1 262.4 223.8 262.4S243.2 266.1 250.6 273.5L275.3 298.1C279.8 302.7 279.9000000000001 302.7 289.5 297.1C296 293.3 302.9 289.9 310.6 288.1L414.3 184.4C416.3 182.4 416.6 180 416.6 178.8S416.1 175.2 414.1 173.1z" />
    <glyph glyph-name="happy-face"
      unicode="&#xE058;"
      horiz-adv-x="512" d=" M256 57.6C123.2 57.6 16 164.8 16 297.6H48C48 182.4 140.8 89.6 256 89.6S464 182.4 464 297.6H496C496 164.8 388.8 57.6 256 57.6z M112 414.4C112 392.3086100067683 129.9086100067683 374.4 152 374.4C174.0913899932318 374.4 192 392.3086100067683 192 414.4C192 436.4913899932318 174.0913899932318 454.4 152 454.4C129.9086100067683 454.4 112 436.4913899932318 112 414.4z M336 414.4C336 392.3086100067683 353.9086100067683 374.4 376 374.4C398.0913899932318 374.4 416 392.3086100067683 416 414.4C416 436.4913899932318 398.0913899932318 454.4 376 454.4C353.9086100067683 454.4 336 436.4913899932318 336 414.4z" />
    <glyph glyph-name="hash"
      unicode="&#xE059;"
      horiz-adv-x="512" d=" M455.2 312V344H344V455.2H312V344H200V455.2H168V344H56.8V312H168V200H56.8V168H168V56.8H200V168H312V56.8H344V168H455.2V200H344V312H455.2zM312 200H200V312H312V200z" />
    <glyph glyph-name="headphones"
      unicode="&#xE05A;"
      horiz-adv-x="512" d=" M448 240.8C443.2 240.8 436.8 239.2 432 237.6V264.8C432 364 353.6 444 256 444S80 362.4 80 263.2V237.6C75.2 239.2 68.8 240.8 64 240.8C38.4 240.8 16 218.4 16 192.8V116C16 90.4 38.4 68 64 68S112 90.4 112 116V148V192.8V263.2000000000001C112 344.8 176 412 256 412S400 346.4000000000001 400 264.8000000000001V192.8000000000001V148V116C400 90.4 422.4 68 448 68S496 90.4 496 116V192.8C496 218.4 473.6 240.8 448 240.8zM80 116C80 108 72 100 64 100S48 108 48 116V192.8C48 200.8 56 208.8 64 208.8S80 200.8 80 192.8V148V116zM464 116C464 108 456 100 448 100S432 108 432 116V148V192.8C432 200.8 440 208.8 448 208.8S464 200.8 464 192.8V116z" />
    <glyph glyph-name="healthcare"
      unicode="&#xE05B;"
      horiz-adv-x="512" d=" M176.2 344.4C187.4 344.4 198.6 339.6 209.8 334.8C222.6 330 235.4 323.6 251.4 323.6C264.2 323.6 277 328.4000000000001 291.4 333.2000000000001C307.4 338 325 344.4 341 344.4C347.4 344.4 365 342.8 381 333.2000000000001C444 288.2000000000001 425.5 183.1 400.2 136.4C395.4 126.8 389 115.6 381 102.8L381 102.8L381 102.8C363.4 75.6 349 59.6 334.6 59.6C326.6 59.6 321.8 61.2 312.2000000000001 65.9999999999999C299.4000000000001 70.8 283.4000000000001 78.8 257.8000000000001 78.8C230.6000000000001 78.8 213.0000000000001 70.8 200.2000000000001 65.9999999999999C190.6000000000001 62.8 185.8000000000001 59.6 179.4000000000001 59.6C163.4000000000001 59.6 147.4000000000001 80.4 129.8000000000001 104.4C112.2000000000001 130 88.2000000000001 181.2 88.2000000000001 235.6C88.2000000000001 261.2 93.0000000000001 283.6 104.2000000000001 301.2C118.6 326.8 145.8 342.8 176.2 344.4L176.2 344.4M427.4 330C400.2 371.6 357 376.4 339.4 376.4C301 376.4 267.4 355.6 249.8 355.6C232.2 355.6 206.6 376.4 176.2 376.4L176.2 376.4H174.6C134.6 376.4 97.8 352.4 77 318.8C61 293.2000000000001 56.2 264.4 56.2 234C56.2 178 78.6 120.4 105.8 83.6C126.6 54.8 149 26 181 26C209.8 26 221 45.2 257.8 45.2C293 45.2 304.2 26 334.6 26C366.6 26 387.4000000000001 54.8 406.6 83.6C430.6 117.2000000000001 438.6 147.6 440.2000000000001 149.2000000000001C452.8 185.1 473.3 265.8 427.4 330z M270.8 381.2C275.6 406.8 261.2 434 246.8 451.6C229.2 472.4 200.4 486.8 176.4 486.8C174.8 459.6 184.4 434 202 414.8C218 394 245.2 378 270.8 381.2z" />
    <glyph glyph-name="help-support"
      unicode="&#xE05C;"
      horiz-adv-x="512" d=" M363.2 320.7L385.6 418.3V421.5C385.6 423.1 382.4 463.1 352 483.9C334.3999999999999 495.1 313.6 496.7 289.6 488.7L278.4 483.9V472.7C276.8 429.5 273.6 416.7 273.6 416.7C273.6 415.1 246.4 298.3 166.4 285.5V306.3H22.4V34.3H166.4V66.3H206.4L238.4 18.3H433.6L489.6 272.7000000000001L363.2 320.7zM134.4 66.3H54.4V274.3H134.4V66.3zM408 50.3H254.4L222.4 98.3H166.4V253.5C272 264.7 304 403.9 305.6 410.3C305.6 411.9 308.8 423.1 310.4000000000001 461.5C320.0000000000001 463.1 328.0000000000001 461.5 334.4000000000001 458.3C347.2000000000001 450.3 352.0000000000001 431.1 353.6 423.1L324.8 303.1L451.2 255.1L408 50.3z" />
    <glyph glyph-name="home-wireless-broadband"
      unicode="&#xE05D;"
      horiz-adv-x="512" d=" M256 499.4L108 371.1V416.6L76 388.9V343.5L16 291.5V13H184H216H296H328H496V291.4L256 499.4zM464 45H328H184H48V275.4L256 456.2L464 275.4V45z M80 254.6V222.6C160 222.6 225.6 157 225.6 77H257.6C257.6 174.6 177.6 254.6 80 254.6z M80 181V149C120 149 152 117 152 77H184C184 134.6 137.6 181 80 181z M80 93C80 84.1634440027073 87.1634440027073 77 96 77C104.8365559972927 77 112 84.1634440027073 112 93C112 101.8365559972927 104.8365559972927 109 96 109C87.1634440027073 109 80 101.8365559972927 80 93z" />
    <glyph glyph-name="home"
      unicode="&#xE05E;"
      horiz-adv-x="512" d=" M256 499.2L108 370.9V416.4L76 388.7V343.2L16 291.2V12.8H184H216V44.8V211.1H296V44.8V12.8H328H496V291.2L256 499.2zM464 44.8H328V243.1H184V44.8H48V275.2L256 456L464 275.2V44.8z" />
    <glyph glyph-name="hosting"
      unicode="&#xE05F;"
      horiz-adv-x="512" d=" M448 144V208V237.5V240H272V304H400V496H112V304H240V240H64V237.5V208V144H16V16H144V144H96V208H240V144H192V16H320V144H272V208H416V144H368V16H496V144H448zM144 464H368V336H144V464zM112 48H48V112H112V48zM288 48H224V112H288V48zM464 48H400V112H464V48z" />
    <glyph glyph-name="hourglass"
      unicode="&#xE060;"
      horiz-adv-x="512" d=" M313.6 278.4C353.6 313.6 404.8 356.8 404.8 425.6V464H440V496H404.8H108.8H72V464H108.8V425.6C108.8 358.4 160 313.6 200 278.4C203.2 273.6 208 270.4 211.2 267.2000000000001C208 262.4 204.8 259.2000000000001 200 256C160 220.8 108.8 177.6 108.8 108.8000000000001V48H72V16H108.8H403.2H404.8H440V48H404.8V108.8C404.8 176 353.6 220.8 313.6 256C310.4000000000001 260.8 305.6 264 302.4000000000001 267.2C305.6 272 308.8 275.2 313.6 278.4zM140.8 48C140.8 48 140.8 80 140.8 97.6H372.8V48H140.8zM371.2 129.6H142.4C150.4 172.8 185.6 204.8 220.8 235.2000000000001C230.4 243.2000000000001 238.4 249.6 246.4 257.6L257.6 264.0000000000001L267.2000000000001 254.4000000000001C275.2000000000001 248.0000000000001 283.2000000000001 240.0000000000001 292.8000000000001 232.0000000000001C328 203.2 361.6 172.8 371.2 129.6zM291.2 302.4C281.6 294.4 273.6 288 265.6 280L256 270.4L246.4 280C238.4 286.4 230.4 294.4 220.8 302.4C180.8 336 140.8 371.2 140.8 425.6V464H371.2V425.6C371.2 372.8 331.2 337.6 291.2 302.4z" />
    <glyph glyph-name="house-my-medium-team"
      unicode="&#xE061;"
      horiz-adv-x="512" d=" M364.8 448H142.4L16 320V64H496V320L364.8 448zM432 337.6H278.4L198.4 416H352L432 337.6zM464 96H48V307.2L153.6 414.4L265.6 305.6H464V96z" />
    <glyph glyph-name="inbound"
      unicode="&#xE062;"
      horiz-adv-x="512" d=" M206.4 272L254.4 320L232 342.4L145.6 256L232 169.6L254.4 192L206.4 240L472 240L472 272z M344 48L72 48L72 464L344 464L344 304L376 304L376 496L40 496L40 16L376 16L376 208L344 208z" />
    <glyph glyph-name="indent-arrow"
      unicode="&#xE063;"
      horiz-adv-x="512" d=" M368 315.2L345.6 292.8L272 364.8L272 84.8L240 84.8L240 366.4L166.4 292.8L144 315.2L256 427.2z" />
    <glyph glyph-name="industry-insights"
      unicode="&#xE064;"
      horiz-adv-x="512" d=" M246.4 377.6C246.4 363.2 235.2 353.6 220.8 353.6S196.8 364.8 196.8 377.6C196.8 392 208 403.2 220.8 403.2S246.4 392 246.4 377.6zM240 161.6H204.8V323.2H240V161.6z M497.6 36.8L388.8 145.6C460.8 228.8 457.6 355.2000000000001 377.6 435.2000000000001C336 476.8000000000001 281.6 497.6 227.2 497.6S118.4 476.8 76.8 435.2C-6.4 352 -6.4 217.6 76.8 134.4C118.4 92.8 172.8 72 227.2 72C276.8 72 326.4 89.6 366.4 123.2L475.2 14.4L497.6 36.8zM99.2 156.8C28.8 227.2000000000001 28.8 342.4 99.2 412.8C132.8 446.4 179.2 465.6 227.2 465.6S320 446.4 355.2 412.8C425.6 342.4 425.6 227.2000000000001 355.2 156.8C321.6 123.2 275.2 104 227.2 104S134.4 123.2 99.2 156.8z" />
    <glyph glyph-name="infinity"
      unicode="&#xE065;"
      horiz-adv-x="512" d=" M443.2 343.9C409.6 361.5 371.2 358.3 340.8 335.9L256 276.7L171.2 337.5C140.8 358.3 102.4 361.5 68.8 343.9C36.8 327.9 16 294.3 16 255.9S36.8 185.5 68.8 167.9C83.2 159.9 99.2 156.7 113.6 156.7C134.4 156.7 153.6 163.1 171.2 174.3L256 235.1L340.8 174.3C358.4000000000001 161.5 377.6 156.7 398.4000000000001 156.7C414.4000000000001 156.7 428.8 159.9 443.2000000000001 167.9C476.8000000000001 185.5 496.0000000000001 219.1 496.0000000000001 255.9S475.2 327.9 443.2 343.9zM153.6 203.1C132.8 188.7000000000001 107.2 187.1 84.8 198.3C60.8 209.5 48 231.9000000000001 48 255.9000000000001S60.8 303.9000000000001 83.2 315.1C94.4 319.9000000000001 104 323.1 115.2 323.1C128 323.1 142.4 318.3 153.6 310.3L228.8 255.9000000000001L153.6 203.1zM428.8 198.3C406.4000000000001 187.1 380.8 188.7 360 203.1L284.8 257.5L360 311.9000000000001C380.8 326.3000000000001 406.4 327.9000000000001 428.8 316.7000000000001C451.2 305.5000000000001 464 283.1 464 257.5000000000001S451.2 209.5 428.8 198.3z" />
    <glyph glyph-name="info"
      unicode="&#xE066;"
      horiz-adv-x="512" d=" M283.2 360.8C283.2 344.8 272 333.6 256 333.6S228.8 344.8 228.8 360.8S240 388 256 388C270.4 388 283.2 376.8 283.2 360.8zM275.2 124H236.8V300H275.2V124z M256 455.2C308.8 455.2 360 434.4 396.8 396C475.2 317.6 475.2 191.2 396.8 112.8C360 76 308.8 55.2 256 55.2S152 76 115.2 114.4C36.8 192.8 36.8 319.2 115.2 397.6C152 434.4 203.2 455.2 256 455.2M256 487.2C196.8 487.2 137.6 464.8 91.2 420C0 328.8 0 183.2 91.2 92C136 47.2 195.2 24.8 256 24.8S374.4 47.2 420.8 92C512 183.2 512 328.8 420.8 420C374.4 464.8 315.2 487.2 256 487.2L256 487.2z" />
    <glyph glyph-name="instagram"
      unicode="&#xE067;"
      horiz-adv-x="512" d=" M16 496V16H496V496H16zM464 464V336H48V464H464zM48 48V304H464V48H48z M256 272C203.2 272 160 228.8 160 176S203.2 80 256 80S352 123.2 352 176S308.8 272 256 272zM256 112C220.8 112 192 140.8 192 176S220.8 240 256 240S320 211.2 320 176S291.2 112 256 112z M368 400C368 382.3268880054146 382.3268880054146 368 400 368C417.6731119945854 368 432 382.3268880054146 432 400C432 417.6731119945854 417.6731119945854 432 400 432C382.3268880054146 432 368 417.6731119945854 368 400z" />
    <glyph glyph-name="instore-appointment"
      unicode="&#xE068;"
      horiz-adv-x="512" d=" M384 432V480H352V432H160V480H128V432H16V32H496V432H384zM464 64H48V400H128V368H160V400H352V368H384V400H464V64z" />
    <glyph glyph-name="international-minutes"
      unicode="&#xE069;"
      horiz-adv-x="512" d=" M256.8 496H240.8V249.6L349.6 148.8L372 172.8L272.8 262.4V464C380 456 464.8 366.4 464.8 256C464.8 140.8 372 48 256.8 48C164 48 85.6 108.8 58.4 193.6C56.8 196.8 56.8 200 55.2 203.2000000000001C53.6 206.4 53.6 209.6 52 212.8000000000001C50.4 219.2000000000001 50.4 225.6000000000001 48.8 232.0000000000001C48.8 232.0000000000001 48.8 232.0000000000001 48.8 233.6000000000001C42.4 302.4000000000001 71.2 374.4000000000001 127.2 419.2000000000001L120.8 363.2000000000001L152.8 360.0000000000001L165.6 465.6000000000001L58.4 478.4L55.2 446.4L103.2 440C48.8 393.6 16.8 326.4 16.8 256L16.8 256C16.8 246.4 16.8 238.4 18.4 228.8V227.2C20 220.8 20 212.8 21.6 206.4C21.6 203.2 23.2 200 24.8 195.2C26.4 192 26.4 187.2 28 184C32.8 168 39.2 152 47.2 137.6L47.2 137.6C88.8 65.6 167.2 16 255.2 16C388 16 495.2 123.2 495.2 256C496.8 388.8 389.6 496 256.8 496z" />
    <glyph glyph-name="internet-data"
      unicode="&#xE06A;"
      horiz-adv-x="512" d=" M145.6 385.6C41.6 358.4 -20.8 249.6 6.4 145.6C30.4 57.6 108.8 0 196.8 0C212.8 0 230.4 1.6 248 6.4C352 33.6 414.4 142.4 387.2 246.4C356.8 350.4 249.6 412.8 145.6 385.6zM353.6 238.4L353.6 238.4C358.4000000000001 219.2 339.2000000000001 192 300.8 169.6C299.2 187.2 296 203.2 289.6 222.4C273.6 281.6 246.4000000000001 331.2 217.6 360C281.6 348.8 337.6 304 353.6 238.4zM238.4 38.4C219.2 33.6 192 52.8 169.6 91.2C187.2 92.8 203.2 97.6 222.4 102.4C240.0000000000001 105.6 256.0000000000001 112 272.0000000000001 118.4C270.4 73.6 257.6 43.2 238.4 38.4zM212.8 132.8C192 126.4 171.2 123.2 152 121.6C144 139.2000000000001 137.6 158.4 131.2 179.2000000000001C107.2 272.0000000000001 123.2 347.2000000000001 153.6 355.2000000000001C155.2 355.2000000000001 156.8 355.2000000000001 160 355.2000000000001C190.4 355.2000000000001 236.8 300.8000000000001 260.8 212.8000000000001C267.2 192.0000000000001 270.4000000000001 171.2000000000001 272 152.0000000000001C252.8 145.6 233.6 137.6 212.8 132.8zM96 324.8C84.8 284.8 86.4 230.4 102.4 169.6C107.2 152 113.6 134.4 120 118.4C75.2 120 44.8 132.8 38.4 152C20.8 219.2 44.8 286.4 96 324.8zM65.6 96C83.2 91.2 102.4 88 124.8 88C128 88 129.6 88 132.8 88C145.6 65.6 158.4 46.4 172.8 33.6C131.2 40 92.8 62.4 65.6 96zM296 67.2C300.8 86.4 304 108.8 302.4 134.4C324.8 147.2 342.4 160 356.8 174.4C352 131.2 329.6 92.8 296 67.2z M320 512V480C408 480 480 408 480 320H512C512 425.6 425.6 512 320 512z M320 432V400C364.8 400 400 363.2 400 320H432C432 382.4 382.4 432 320 432z" />
    <glyph glyph-name="internet"
      unicode="&#xE06B;"
      horiz-adv-x="512" d=" M427.2 424C382.4 470.4 321.6 496 256 496S129.6 470.4 84.8 424L84.8 424C40 377.6 16 318.4 16 256S40 134.4 84.8 88L84.8 88C129.6 41.6 190.4 16 256 16S382.4 41.6 427.2 88S496 193.6 496 256S472 377.6 427.2 424zM464 272H366.4C363.2 340.8 339.2 406.4 296 460.8C337.6 452.8 376 432 406.4 401.6C440 366.4 459.2 320 464 272zM49.6 272C52.8 320 73.6 366.4 107.2 401.6L107.2 401.6C137.6 432 176 452.8 217.6 460.8C174.4 406.4 148.8 340.8 145.6 272H49.6zM145.6 240C148.8 171.2 172.8 105.6 216 51.2C174.4 59.2 136 80 105.6 110.4L105.6 110.4C72 145.6 51.2 190.4 48 240C48 240 145.6 240 145.6 240zM177.6 240H332.8C329.6 171.2 302.4 107.2 254.4 56C209.6 107.2 182.4 171.2 177.6 240zM177.6 272C180.8 340.8 208 404.8 256 456C302.4 404.8 329.6 340.8 334.4 272H177.6zM404.8 110.4C374.4000000000001 80 336 59.2 294.4 51.2C337.6 105.6 361.6 169.6 364.8 240H464C459.2 192 440 145.6 404.8 110.4z" />
    <glyph glyph-name="ipphone"
      unicode="&#xE06C;"
      horiz-adv-x="512" d=" M142.5 15.5C73.7 15.5 36.9 58.7 35.3 61.9C12.9 85.9 9.7 121.1 27.3 149.9C35.3 164.3 49.7 178.7 65.7 191.5C80.1 202.7 96.1 210.7 108.9 217.1C132.9 226.7000000000001 161.7 221.9 182.5 205.9L184.1 204.3C190.5 197.9 206.5 186.7 217.7 189.9C233.7 193.1 251.3 205.9 275.3 228.3L284.9000000000001 237.9000000000001C307.3 261.9000000000001 318.5000000000001 277.9000000000001 323.3 295.5C326.5 308.3000000000001 315.3 322.7000000000001 308.9000000000001 329.1L307.3 330.7000000000001C289.7 351.5 284.9000000000001 380.3 296.1 404.3C300.9000000000001 415.5 308.9000000000001 431.5 320.1 445.9C332.9000000000001 463.5 348.9000000000001 476.3 363.3 485.9C390.5 503.5 427.3 498.7 451.3 476.3C452.9 474.7 505.7 429.9 494.5 348.3C483.3 263.5 425.7 194.7000000000001 384.1 149.9L363.3 127.5C318.5 84.3 249.7 26.7 164.9 15.5H142.5zM136.1 189.9C131.3 189.9 126.5 188.3 120.1 186.7C108.9 181.9 96.1 175.5 84.9 167.5C70.5 156.3 59.3 145.1 54.5 133.9C44.9 117.9 46.5 97.1 59.3 82.7C60.9 79.5 96.1 41.1 160.1 49.1C217.7 57.1 273.7 87.4999999999999 340.9 151.5L361.7 172.3C425.7 239.5 456.1 293.9 464.1 353.1C472.1 417.1 432.1 452.3 430.5 452.3C416.1 466.7 395.3 468.3 379.3 458.7C368.1 452.3 355.3 441.1 345.7 426.7000000000001C336.1 415.5 329.7 402.7000000000001 326.5 391.5C320.1 377.1 323.3 361.1 332.9 349.9C339.3 343.5 364.9 316.3 356.9 285.9C352.1 263.5 337.7 242.7 310.5 213.9L300.9 204.3C272.1 177.1 251.3 162.6999999999999 228.9 157.9C198.5 149.9 171.3 173.9 164.9 181.9C153.7 186.7 145.7 189.9 136.1 189.9 M243.7 455.1V423.1C163.7 423.1 98.1 357.5 98.1 277.5H66.1C66.1 375.1 146.1 455.1 243.7 455.1 M243.7 381.5V349.5C203.7 349.5 171.7 317.5 171.7 277.5H139.7C139.7 335.1 186.1 381.5 243.7 381.5" />
    <glyph glyph-name="laptop"
      unicode="&#xE06D;"
      horiz-adv-x="512" d=" M32 120H480V88H32V120z M416 392V184H96V392H416M448 424H76.8H64V152H448V424L448 424z" />
    <glyph glyph-name="latest-tech"
      unicode="&#xE06E;"
      horiz-adv-x="512" d=" M474.4 490.4C468 490.4 348 485.6 218.4 348H159.2L21.6 212H120.8L212 120.8V21.6L348 159.2000000000001V218.4C485.6 346.4000000000001 490.4 468 490.4 474.4V490.4L474.4 490.4zM172 316H191.2C173.6 295.2 156 271.2 140 244H98.4L172 316zM316 172L244 98.4V138.4C271.2 156 295.2 172 316 189.6V172zM424.8 368.8C396 314.4 336.8 234.4 216.8 159.2000000000001L160.8 218.4C236 338.4000000000001 316 397.6 370.4 426.4000000000001C407.2 445.6 437.6 453.6 456.8 456.8C452 437.6 444 407.2 424.8 368.8z" />
    <glyph glyph-name="link-service"
      unicode="&#xE06F;"
      horiz-adv-x="512" d=" M448 189.6V389.6C448 447.2000000000001 401.6 493.6 344 493.6C288 493.6 240 445.6 240 389.6V122.4C240 82.4 208 50.4 168 50.4C129.6 50.4 96 84.0000000000001 96 122.4V333.6H144V493.6H16V333.6H64V122.4C64 66.4 112 18.4 168 18.4C225.6 18.4 272 64.8 272 122.4V389.6C272 428 305.6 461.6 344 461.6C384 461.6 416 429.6 416 389.6V189.6H368V29.6H496V189.6H448zM48 461.6H112V365.6H48V461.6zM464 61.6H400V157.6H464V61.6z" />
    <glyph glyph-name="linkedin"
      unicode="&#xE070;"
      horiz-adv-x="512" d=" M16 496V16H496V496H16zM200 48V158.4C200 196.8 227.2 219.2 260.8 219.2C296 219.2 316.8 196.8 316.8 160V48C316.8 48 200 48 200 48zM464 48H347.2V169.6C347.2 216 315.2 248 264 246.4000000000001C240 246.4000000000001 214.4 238.4000000000001 198.4 214.4V243.2000000000001H168V48H112V243.2H80V48H48V464H464V48z M96 291.2C108.8 291.2 118.4 300.8 118.4 313.6C118.4 326.4 108.8 336 96 336S73.6 326.4 73.6 313.6C73.6 300.8 83.2 291.2 96 291.2z" />
    <glyph glyph-name="loading"
      unicode="&#xE071;"
      horiz-adv-x="512" d=" M272 406.4V496H240V408C244.8 408 249.6 408 254.4 408C260.8 408 265.6 408 272 406.4z M240 100.8V16H272V102.4C265.6 102.4 260.8 100.8 254.4 100.8C249.6 100.8 244.8 100.8 240 100.8z M353.6 136L414.4000000000001 75.2L436.8 97.6L374.4 160C368 150.4 361.6 144 353.6 136z M160 374.4L97.6 436.8L75.2 414.4L136 353.6C144 361.6 150.4 368 160 374.4z M408 254.4C408 249.6 408 244.8 408 240H496V272H406.4C408 265.6 408 260.8 408 254.4z M102.4 272H16V240H100.8C100.8 244.8 100.8 249.6 100.8 254.4C100.8 260.8 100.8 265.6 102.4 272z M374.4 350.4L438.4 414.4L416 436.8L352 372.8C360 366.4 366.4 360 374.4 350.4z M134.4 158.4L73.6 97.6L96 75.2L156.8 136C148.8 142.4 142.4 148.8 134.4 158.4z" />
    <glyph glyph-name="log-in"
      unicode="&#xE072;"
      horiz-adv-x="512" d=" M256 216.8C355.2 216.8 436.8 149.6 452.8 60H59.2C75.2 149.6 156.8 216.8 256 216.8M256 248.8C128 248.8 24 149.6 24 28H488C488 149.6 384 248.8 256 248.8L256 248.8z M256 276C198.4 276 152 322.4 152 380S198.4 484 256 484S360 437.6 360 380S313.6 276 256 276zM256 452C216 452 184 420 184 380S216 308 256 308S328 340 328 380S296 452 256 452z" />
    <glyph glyph-name="logout"
      unicode="&#xE073;"
      horiz-adv-x="512" d=" M48 224C48 108.8 140.8 16 256 16S464 108.8 464 224C464 321.6 395.2 403.2 304 425.6V392C377.6 371.2 432 304 432 224C432 128 353.6 48 256 48S80 128 80 224C80 304 134.4 371.2 208 392V425.6C116.8 403.2 48 321.6 48 224z M240 496H272V288H240V496z" />
    <glyph glyph-name="machine-to-machine"
      unicode="&#xE074;"
      horiz-adv-x="512" d=" M440.8 335.2H408.8C408.8 415.2 343.2000000000001 480.8 263.2000000000001 480.8V512.8C360.8 512.8 440.8 432.8 440.8 335.2z M367.2 335.2H335.2C335.2 375.2 303.2 407.2 263.2 407.2V439.2C320.8 439.2 367.2 392.8 367.2 335.2z M216.8 351.2L279.2 290.4V40.8C279.2 35.9999999999999 274.4 31.1999999999999 268 31.1999999999999H114.4C108 31.1999999999999 103.2 35.9999999999999 103.2 40.8V341.6C103.2 346.4 108 351.2 114.4 351.2H216.8M229.6 383.2H114.4C90.4 383.2 71.2 364 71.2 341.6V42.4C71.2 18.4 90.4 -0.8000000000001 114.4 -0.8000000000001H266.4C290.4 -0.8000000000001 309.6 18.3999999999999 309.6 40.8V304.8L229.6 383.2L229.6 383.2z" />
    <glyph glyph-name="managed-router-services"
      unicode="&#xE075;"
      horiz-adv-x="512" d=" M256 456C309.4 456 359.6 435.2 397.4 397.4C475.4 319.4 475.4 192.5 397.4 114.6C359.6 76.8 309.4 56 256 56C202.6 56 152.4 76.8 114.6 114.6C36.6 192.6 36.6 319.5 114.6 397.4000000000001C152.4 435.2 202.6 456 256 456M256 488C196.6 488 137.3 465.3 92 420C1.3 329.4 1.3 182.6 92 92C137.3 46.7 196.7 24 256 24S374.7 46.7 420 92C510.6 182.6 510.6 329.5 420 420.1C374.7 465.4 315.4 488 256 488L256 488z M286.6 164.4L271.2 149.1L271.2 228L239.2 228L239.2 149.4L225.4 163.2L202.8 140.6L255.4 88L309.2 141.8z M309.2 370.2L255.4 424L202.8 371.4L225.4 348.8L239.2 362.6L239.2 284L271.2 284L271.2 362.9L286.6 347.5z M174.3 309.2L151.7 286.6L167 271.2L88.1 271.2L88.1 239.2L166.7 239.2L152.9 225.4L175.5 202.8L228.1 255.4z M423.9 271.2L345 271.2L360.3 286.6L337.7 309.2L283.9 255.4L336.5 202.8L359.1 225.4L345.3 239.2L423.9 239.2z" />
    <glyph glyph-name="managed-services"
      unicode="&#xE076;"
      horiz-adv-x="512" d=" M463.3 341.3L496.9 350.9L458.5 466.1L423.3 456.5C416.9000000000001 462.9 410.5 467.7 404.1 470.9V504.5H279.3V472.5C272.9000000000001 467.7 268.1 462.9 261.7 458.1L232.9 467.7L204 376.5H15.3V8.5H287.3V243.7L314.5 222.9L333.7 248.5C341.7 246.9 349.7 246.9 357.7 248.5L376.9 222.9L476.1 293.3L456.9 318.9C458.5 326.9 461.7 333.3 463.3 341.3zM255.3 40.5H47.3V344.5H221.7L226.5000000000001 342.9C228.1 334.9 231.3000000000001 328.5 234.5000000000001 320.5L216.9 294.9L255.3000000000001 266.1V40.5zM431.3 357.3C429.7 346.1 426.5 336.5 421.7 326.9L416.9 317.3L428.1 301.3L381.7 267.7000000000001L370.5 283.7000000000001L360.9 282.1C349.7 280.5 340.1 280.5 328.9 282.1L319.3 283.7000000000001L308.1 267.7000000000001L261.7 301.3L272.9 317.3L268.1 326.9C263.3 336.5 260.1 346.1 258.5 357.3L256.8999999999999 366.9L237.7 373.3L255.3 427.7000000000001L272.8999999999999 419.7000000000001L279.2999999999999 427.7000000000001C287.2999999999999 437.3 295.2999999999999 442.1 303.2999999999999 446.9000000000001L312.8999999999999 451.7V472.5H373.7V454.9L384.8999999999999 446.9C392.8999999999999 442.1 402.5 435.7 408.8999999999999 429.3L415.2999999999999 422.9L439.2999999999999 429.3L456.8999999999999 374.9L432.8999999999999 368.5L431.3 357.3z M346.5 429.3C312.9 429.3 285.7 402.1 285.7 368.5S312.9 307.7 346.5 307.7C380.1 307.7 407.3 334.9 407.3 368.5S380 429.3 346.5 429.3zM346.5 339.7C330.5 339.7 317.7 352.5 317.7 368.5S330.5 397.3 346.5 397.3S375.3 384.5 375.3 368.5S362.5 339.7 346.5 339.7z M71.3 280.5H231.3V248.5H71.3V280.5z M71.3 200.5H231.3V168.5H71.3V200.5z M71.3 120.5H231.3V88.5H71.3V120.5z" />
    <glyph glyph-name="member-services"
      unicode="&#xE077;"
      horiz-adv-x="512" d=" M400 425.6C400 416 392 409.6 384 409.6C374.4 409.6 368 416 368 425.6S374.4 441.6 384 441.6S400 435.2 400 425.6zM398.4 312H371.2V398.4H398.4V312z M184 152C248 152 300.8 110.4 315.2 56H52.8C67.2 110.4 120 152 184 152M184 184C91.2 184 16 112 16 24H352C352 112 276.8 184 184 184L184 184z M192 200C147.9 200 112 235.9 112 280S147.9 360 192 360S272 324.1 272 280S236.1 200 192 200zM192 328C165.5 328 144 306.5 144 280S165.5 232 192 232S240 253.5 240 280S218.5 328 192 328z M384 456C428.8 456 464 420.8 464 376S428.8 296 384 296S304 331.2 304 376S339.2 456 384 456M384 488C321.6 488 272 438.4 272 376S321.6 264 384 264S496 313.6 496 376S446.4 488 384 488L384 488z" />
    <glyph glyph-name="menu"
      unicode="&#xE078;"
      horiz-adv-x="512" d=" M104 384H408V352H104V384z M104 272H408V240H104V272z M104 160H408V128H104V160z" />
    <glyph glyph-name="micro-sim"
      unicode="&#xE079;"
      horiz-adv-x="512" d=" M275.2 464L368 356.8V68.8C368 57.6 358.4 48 347.2 48H164.8C153.6 48 144 57.6 144 68.8V443.2C144 454.4 153.6 464 164.8 464H275.2M289.6 496H164.8C136 496 112 472 112 443.2V68.8C112 40 136 16 164.8 16H347.2000000000001C376.0000000000001 16 400.0000000000001 40 400.0000000000001 68.8V369.6L289.6 496L289.6 496z" />
    <glyph glyph-name="minus"
      unicode="&#xE07A;"
      horiz-adv-x="512" d=" M56.8 272H455.2V240H56.8V272z" />
    <glyph glyph-name="mobile-arrow-top-left"
      unicode="&#xE07B;"
      horiz-adv-x="512" d=" M358.5 64.1C365.6 64.1 371.3 58.4 371.3 51.3C371.3 44.2 365.6 38.5 358.5 38.5C351.4 38.5 345.7 44.2 345.7 51.3C345.7 58.3 351.4 64.1 358.5 64.1 M470.5 64.1V328.1C470.5 337.7000000000001 464.1 344.1 454.5 344.1H379.3H347.3H326.5H262.5C252.9 344.1 246.5 337.7000000000001 246.5 328.1V16.1C246.5 6.5 252.9 0.1 262.5 0.1H454.5C464.1 0.1 470.5 6.5 470.5 16.1V32.1V64.1zM278.5 312.1H438.5V284.9H278.5V312.1zM438.5 32.1H366.5H278.5V252.9H438.5V32.1z M142.9 450.8L191.9 401.8L214.5 424.5L127 511.9L39.5 424.5L62.1 401.8L110.9 450.6L110.9 252.9L208.3 252.9L208.3 284.9L142.9 284.9z" />
    <glyph glyph-name="mobile-broadband-arrow-top-left"
      unicode="&#xE07C;"
      horiz-adv-x="512" d=" M490.9 248H458.9C458.9 304.2 413.2 349.9 357 349.9V381.9C430.9 381.9 490.9 321.8 490.9 248z M437.9 248H405.9C405.9 274.9 384 296.8 357.1 296.8V328.8C401.6 328.8 437.9 292.5 437.9 248z M352.6 -2.1H255.8C231.6 -2.1 211.9 17.7 211.9 42.1V242.6C211.9 267 231.6 286.8 255.8 286.8H335.3L396.5 224.4V42C396.5 17.7 376.8 -2.1 352.6 -2.1zM255.9 254.8C249.4 254.8 244 249.3 244 242.6V42C244 35.3 249.3 29.8 255.9 29.8H352.7C359.2 29.8 364.6 35.3 364.6 42V211.4L322 254.8H255.9z M124.5 452.7L173.4 403.8L196 426.4L108.6 513.9L21.1 426.4L43.7 403.8L92.5 452.5L92.5 254.8L189.8 254.8L189.8 286.8L124.5 286.8z" />
    <glyph glyph-name="mobile-devices"
      unicode="&#xE07D;"
      horiz-adv-x="512" d=" M440.8 335.2H408.8C408.8 415.2 343.2000000000001 480.8 263.2000000000001 480.8V512.8C360.8 512.8 440.8 432.8 440.8 335.2z M367.2 335.2H335.2C335.2 375.2 303.2 407.2 263.2 407.2V439.2C320.8 439.2 367.2 392.8 367.2 335.2z M216.8 351.2L279.2 290.4V40.8C279.2 35.9999999999999 274.4 31.1999999999999 268 31.1999999999999H114.4C108 31.1999999999999 103.2 35.9999999999999 103.2 40.8V341.6C103.2 346.4 108 351.2 114.4 351.2H216.8M229.6 383.2H114.4C90.4 383.2 71.2 364 71.2 341.6V42.4C71.2 18.4 90.4 -0.8000000000001 114.4 -0.8000000000001H266.4C290.4 -0.8000000000001 309.6 18.3999999999999 309.6 40.8V304.8L229.6 383.2L229.6 383.2z" />
    <glyph glyph-name="mobile-email"
      unicode="&#xE07E;"
      horiz-adv-x="512" d=" M16 432V80H496V432H16zM428.8 400L254.4 262.4L81.6 400H428.8zM48 112V387.2L254.4 222.4L464 387.2V112H48z" />
    <glyph glyph-name="mobile-plans"
      unicode="&#xE07F;"
      horiz-adv-x="512" d=" M441.1 184.7L418.5 207.4L466.8 255.6L418.5 303.9L441.1 326.5L512 255.6z M70.9 184.4L0 255.2L70.9 326.1L93.5 303.5L45.2 255.2L93.5 207z M241.6 119.2C241.6 111.2470996024366 248.0470996024366 104.8 256 104.8C263.9529003975635 104.8 270.4 111.2470996024366 270.4 119.2C270.4 127.1529003975634 263.9529003975635 133.6 256 133.6C248.0470996024366 133.6 241.6 127.1529003975634 241.6 119.2z M364.8 448.8H147.2C137.6 448.8 131.2 442.4 131.2 432.8V79.2C131.2 69.6 137.6 63.2 147.2 63.2H364.8C372.8 63.2 380.8 69.6 380.8 79.2V432.8C380.8 442.4 374.4 448.8 364.8 448.8zM348.8 416.8V380H163.2V416.8H348.8zM163.2 95.2V348.1H348.8V95.3H163.2z" />
    </font>
</defs>
</svg>
